<svg width="73" height="41" viewBox="0 0 73 41" fill="none" xmlns="http://www.w3.org/2000/svg">
<path d="M42.0989 24.7122L41.7458 24.6256C41.3807 24.5377 41.0363 24.4545 40.7505 24.3266C40.2042 24.0803 39.9177 23.4656 39.9177 22.9861C39.9177 22.1098 40.7791 21.3679 41.8031 21.3566C42.444 21.3633 43.0363 21.647 43.3887 22.1164C43.7059 22.5373 44.3035 22.6245 44.7258 22.3076C45.1482 21.9906 45.2328 21.3932 44.917 20.9711C44.3448 20.2086 43.4747 19.7098 42.5133 19.5333V18.8907C42.5133 18.364 42.0856 17.9358 41.5579 17.9358C41.031 17.9358 40.6026 18.3633 40.6026 18.8907V19.6499C39.0996 20.1254 38.0076 21.4325 38.0076 22.9847C38.0076 24.3006 38.7944 25.5384 39.9655 26.0666C40.4152 26.269 40.8643 26.3776 41.3 26.4821L41.6258 26.5614C42.2134 26.7112 43.1981 27.1147 43.1981 28.1289C43.1981 29.0206 42.3546 29.7465 41.3126 29.7578C40.671 29.7511 40.0794 29.4674 39.7263 28.998C39.4099 28.5778 38.8116 28.4899 38.3892 28.8069C37.9669 29.1238 37.8822 29.7212 38.198 30.1433C38.771 30.9058 39.6404 31.4033 40.6018 31.5804V32.2383C40.6018 32.7651 41.0295 33.1933 41.5572 33.1933C42.0841 33.1933 42.5125 32.7658 42.5125 32.2383V31.4632C44.0155 30.9877 45.1075 29.6805 45.1075 28.1296C45.1075 26.4974 43.9549 25.1868 42.0988 24.712L42.0989 24.7122Z" fill="black"/>
<path d="M71.5446 10.1127H67.3975V5.96737C67.3975 5.44063 66.9698 5.01243 66.4421 5.01243H62.3835V0.954936C62.3835 0.4282 61.9558 0 61.4282 0L1.45536 0.000665921C0.928393 0.000665921 0.5 0.428184 0.5 0.955602V29.9331C0.5 30.4598 0.927711 30.888 1.45536 30.888H5.51466V34.9455C5.51466 35.4722 5.94237 35.9004 6.47003 35.9004L10.6165 35.8998V40.0451C10.6165 40.5718 11.0442 41 11.5718 41H71.5446C72.0716 41 72.5 40.5725 72.5 40.0451L72.4993 11.0676C72.4993 10.5409 72.0716 10.1133 71.5446 10.1133V10.1127ZM2.41151 28.9809V1.91107H60.4724V5.01356H6.47064C5.94367 5.01356 5.51528 5.44107 5.51528 5.96849V28.981L2.41151 28.9809ZM7.42539 33.9921V29.9393C7.42539 29.9373 7.42605 29.9367 7.42605 29.9347C7.42605 29.9327 7.42539 29.932 7.42539 29.93V6.9226H65.488V10.1131L11.5732 10.1137C11.0462 10.1137 10.6178 10.5412 10.6178 11.0687V33.9925L7.42539 33.9921ZM70.5892 39.0917H12.5283V12.0218H70.5892V39.0917Z" fill="black"/>
<path d="M41.5582 14.8296C35.6396 14.8296 30.8247 19.6421 30.8247 25.557C30.8247 31.473 35.6394 36.2857 41.5582 36.2857C47.4762 36.2857 52.2904 31.4731 52.2904 25.557C52.291 19.6416 47.4762 14.8296 41.5582 14.8296ZM41.5582 34.3763C36.6929 34.3763 32.7349 30.4201 32.7349 25.557C32.7349 20.695 36.6929 16.7387 41.5582 16.7387C46.4224 16.7387 50.3804 20.695 50.3804 25.557C50.381 30.4201 46.423 34.3763 41.5582 34.3763Z" fill="black"/>
</svg>
