<svg width="72" height="41" viewBox="0 0 563 321" fill="none" xmlns="http://www.w3.org/2000/svg">
<path d="M325.21 193.28L322.45 192.603C319.596 191.916 316.903 191.265 314.669 190.265C310.398 188.338 308.158 183.53 308.158 179.78C308.158 172.926 314.893 167.124 322.898 167.035C327.909 167.088 332.539 169.306 335.294 172.978C337.773 176.27 342.445 176.952 345.747 174.473C349.049 171.994 349.711 167.322 347.242 164.02C342.768 158.056 335.966 154.155 328.45 152.775V147.749C328.45 143.629 325.106 140.28 320.981 140.28C316.862 140.28 313.513 143.624 313.513 147.749V153.687C301.763 157.405 293.226 167.629 293.226 179.769C293.226 190.061 299.377 199.743 308.532 203.873C312.048 205.457 315.559 206.305 318.965 207.123L321.512 207.743C326.105 208.915 333.803 212.071 333.803 220.003C333.803 226.977 327.21 232.654 319.063 232.743C314.048 232.691 309.423 230.472 306.662 226.8C304.188 223.514 299.511 222.826 296.209 225.306C292.907 227.785 292.246 232.457 294.714 235.759C299.194 241.722 305.99 245.613 313.506 246.998V252.144C313.506 256.264 316.85 259.613 320.975 259.613C325.095 259.613 328.444 256.269 328.444 252.144V246.082C340.194 242.363 348.731 232.139 348.731 220.008C348.731 207.243 339.72 196.992 325.209 193.279L325.21 193.28Z" fill="black"/>
<path d="M555.41 79.0936H522.989V46.6723C522.989 42.5525 519.645 39.2035 515.52 39.2035H483.791V7.46879C483.791 3.34906 480.447 0 476.322 0L7.46881 0.00520833C3.34908 0.00520833 0 3.34893 0 7.474V234.114C0 238.234 3.34374 241.583 7.46881 241.583H39.2035V273.317C39.2035 277.437 42.5472 280.786 46.6723 280.786L79.0883 280.781V313.202C79.0883 317.322 82.432 320.671 86.5571 320.671H555.41C559.53 320.671 562.879 317.327 562.879 313.202L562.874 86.5624C562.874 82.4427 559.53 79.0988 555.41 79.0988V79.0936ZM14.9437 226.667V14.9469H468.85V39.2123H46.6771C42.5573 39.2123 39.2083 42.556 39.2083 46.6811V226.668L14.9437 226.667ZM54.1411 265.86V234.163C54.1411 234.147 54.1463 234.142 54.1463 234.126C54.1463 234.111 54.1411 234.106 54.1411 234.09V54.1434H508.061V79.0967L86.5677 79.1019C82.448 79.1019 79.0989 82.4456 79.0989 86.5707V265.864L54.1411 265.86ZM547.941 305.746H94.0344V94.0256H547.941V305.746Z" fill="black"/>
<path d="M320.984 115.987C274.713 115.987 237.072 153.627 237.072 199.888C237.072 246.159 274.712 283.8 320.984 283.8C367.249 283.8 404.885 246.16 404.885 199.888C404.89 153.623 367.249 115.987 320.984 115.987ZM320.984 268.867C282.948 268.867 252.005 237.924 252.005 199.888C252.005 161.861 282.948 130.919 320.984 130.919C359.01 130.919 389.953 161.861 389.953 199.888C389.958 237.924 359.016 268.867 320.984 268.867Z" fill="black"/>
</svg>
