<svg width="156" height="156" viewBox="0 0 156 156" fill="none" xmlns="http://www.w3.org/2000/svg">
<path d="M143 0H13C9.55219 0 6.24558 1.36964 3.80761 3.80761C1.36964 6.24558 0 9.55219 0 13V143C0 146.448 1.36964 149.754 3.80761 152.192C6.24558 154.63 9.55219 156 13 156H143C146.448 156 149.754 154.63 152.192 152.192C154.63 149.754 156 146.448 156 143V13C156 9.55219 154.63 6.24558 152.192 3.80761C149.754 1.36964 146.448 0 143 0ZM13 143V13H143V143H13Z" fill="black"/>
<path d="M65 113.75L32.5 81.51L42.835 71.5L65 93.275L113.165 45.5L123.5 55.77L65 113.75Z" fill="black"/>
</svg>
