<svg width="222" height="207" viewBox="0 0 222 207" fill="none" xmlns="http://www.w3.org/2000/svg">
<path fill-rule="evenodd" clip-rule="evenodd" d="M110.979 0.0019867C91.861 0.0248629 72.7509 9.31806 65.3625 27.8299C61.7322 27.068 57.9682 26.6703 54.1215 26.6703C24.3033 26.6703 0 50.9191 0 80.7332C0 108.809 21.558 131.949 48.9769 134.548V189.183C48.9769 189.352 48.984 189.521 48.9945 189.687C49.1459 191.955 50.3037 193.892 51.5919 195.235C52.9732 196.676 54.5798 197.699 56.3995 198.624C60.0385 200.475 64.6366 201.887 70.129 203.09C81.1168 205.499 95.6148 206.925 111 206.925C126.373 206.925 140.864 205.499 151.849 203.09C157.34 201.887 161.937 200.475 165.576 198.624C167.396 197.698 169.001 196.676 170.382 195.235C171.69 193.873 172.862 191.897 172.985 189.584H172.988C172.999 189.451 173.002 189.317 173.001 189.181V134.546C200.44 131.949 222 108.809 222 80.7313C222 50.918 197.695 26.6683 167.851 26.6683C164.021 26.6683 160.263 27.066 156.637 27.828C149.232 9.23637 130.104 -0.0211366 110.98 3.62355e-05L110.979 0.0019867ZM110.975 10.2046C127.223 10.1765 143.476 18.2323 148.255 34.4462H148.257C148.431 36.0528 149.365 37.4782 150.768 38.2806C150.838 38.3211 150.91 38.3616 150.982 38.3985C151.016 38.4179 151.049 38.4337 151.084 38.4513C152.491 39.1622 154.15 39.1763 155.566 38.4865C159.455 37.3638 163.587 36.7603 167.849 36.7603C192.251 36.7603 211.906 56.3776 211.906 80.73C211.906 105.083 192.25 124.7 167.849 124.7C159.512 124.7 151.768 122.41 145.137 118.407C152.185 111.219 157.715 101.898 161.127 91.3687V91.3705C161.569 90.0912 161.476 88.6869 160.872 87.4745C160.267 86.2638 159.2 85.3452 157.912 84.9282C156.624 84.5112 155.222 84.6291 154.022 85.2555C152.821 85.882 151.922 86.966 151.528 88.2611C147.982 99.2012 142.033 108.242 134.652 114.424C134.103 114.718 133.614 115.111 133.208 115.582C126.626 120.641 119.008 123.489 110.998 123.489C102.96 123.489 95.319 120.624 88.7203 115.533C88.3402 115.104 87.8914 114.743 87.3899 114.465C79.9835 108.28 74.0073 99.2225 70.4421 88.2558C70.0409 86.9677 69.14 85.896 67.9416 85.2766C66.7432 84.6572 65.3478 84.5446 64.0649 84.9616C62.7821 85.3787 61.721 86.2902 61.1156 87.4956C60.5103 88.701 60.4135 90.0982 60.8446 91.3758C64.2655 101.899 69.8017 111.217 76.8491 118.405C70.2256 122.408 62.4601 124.701 54.1207 124.701C29.7471 124.701 10.0892 105.082 10.0892 80.7317C10.0892 56.3788 29.7471 36.7619 54.1207 36.7619C58.4038 36.7619 62.5304 37.3619 66.414 38.4829V38.4811C67.8693 39.1938 69.578 39.1639 71.0067 38.4019C71.0806 38.365 71.1528 38.3245 71.2232 38.284C71.2548 38.2664 71.2865 38.2471 71.3164 38.2277C72.6644 37.42 73.5566 36.0298 73.7343 34.469C78.4784 18.3465 94.7225 10.2305 110.977 10.2044L110.975 10.2046ZM84.8961 125.209C92.5842 130.518 101.459 133.582 110.998 133.582C120.534 133.582 129.404 130.52 137.089 125.215C144.557 130.378 153.388 133.707 162.906 134.57V178.525C159.769 177.246 156.077 176.192 151.85 175.263C140.866 172.847 126.371 171.416 110.998 171.416C95.6128 171.416 81.1125 172.849 70.1251 175.263C65.8983 176.192 62.2029 177.244 59.0652 178.525V134.57C68.589 133.707 77.4329 130.38 84.8961 125.21V125.209ZM110.998 181.507C125.734 181.507 139.718 182.927 149.682 185.118C154.664 186.212 158.66 187.541 160.996 188.73C161.297 188.883 161.568 189.037 161.809 189.181C161.568 189.325 161.299 189.476 161 189.63C158.665 190.817 154.668 192.141 149.685 193.233C139.72 195.419 125.735 196.834 110.998 196.834C96.2479 196.834 82.2562 195.419 72.2874 193.233C67.3041 192.141 63.3056 190.817 60.9707 189.63C60.6698 189.476 60.4006 189.325 60.1595 189.183C60.4005 189.038 60.6715 188.885 60.9725 188.732C63.3076 187.543 67.3059 186.216 72.2891 185.119C82.2562 182.929 96.2478 181.509 110.996 181.509L110.998 181.507Z" fill="black"/>
</svg>
