<svg width="79" height="74" viewBox="0 0 79 74" fill="none" xmlns="http://www.w3.org/2000/svg">
<path fill-rule="evenodd" clip-rule="evenodd" d="M39.4925 0.00071048C32.6893 0.00889141 25.8888 3.3323 23.2596 9.95248C21.9678 9.67999 20.6283 9.53777 19.2595 9.53777C8.64848 9.53777 0 18.2096 0 28.8717C0 38.9122 7.67156 47.1874 17.4287 48.1169V67.6554C17.4287 67.7158 17.4312 67.7762 17.435 67.8354C17.4888 68.6466 17.9009 69.3394 18.3593 69.8195C18.8508 70.3349 19.4226 70.7006 20.0701 71.0316C21.3651 71.6936 23.0013 72.1983 24.9558 72.6287C28.8659 73.4903 34.0251 74 39.5001 74C44.9706 74 50.1274 73.4902 54.0362 72.6287C55.9905 72.1983 57.6263 71.6936 58.9213 71.0316C59.5688 70.7005 60.1399 70.3349 60.6315 69.8195C61.0967 69.3324 61.5138 68.6257 61.5576 67.7988H61.5589C61.5626 67.751 61.5639 67.7032 61.5633 67.6547V48.1162C71.3276 47.1874 79 38.912 79 28.871C79 18.2092 70.3509 9.53707 59.7309 9.53707C58.3677 9.53707 57.0307 9.6793 55.7401 9.95178C53.1049 3.30309 46.2982 -0.00755885 39.4928 1.29585e-05L39.4925 0.00071048ZM39.4912 3.64935C45.2729 3.63929 51.0567 6.5202 52.7574 12.3186H52.758C52.82 12.8931 53.1525 13.4029 53.6516 13.6898C53.6766 13.7043 53.7023 13.7188 53.728 13.732C53.7399 13.7389 53.7518 13.7446 53.7643 13.7509C54.2646 14.0051 54.8552 14.0102 55.3592 13.7635C56.7432 13.362 58.2135 13.1461 59.7302 13.1461C68.4138 13.1461 75.4079 20.1616 75.4079 28.8705C75.4079 37.5795 68.4132 44.5949 59.7302 44.5949C56.7632 44.5949 54.0074 43.7762 51.6478 42.3445C54.1558 39.7738 56.1239 36.4404 57.3381 32.6751V32.6757C57.4953 32.2182 57.4621 31.716 57.2473 31.2825C57.0319 30.8495 56.6524 30.521 56.194 30.3719C55.7356 30.2227 55.2365 30.2649 54.8095 30.4889C54.3824 30.7129 54.0624 31.1006 53.9221 31.5638C52.6603 35.4761 50.5432 38.7095 47.9168 40.9203C47.7214 41.0254 47.5474 41.1657 47.4027 41.3343C45.0608 43.1435 42.3498 44.1618 39.4993 44.1618C36.6388 44.1618 33.9198 43.1373 31.5716 41.3168C31.4364 41.1632 31.2767 41.0342 31.0982 40.9348C28.4626 38.7229 26.3359 35.4837 25.0672 31.5619C24.9245 31.1012 24.6039 30.718 24.1774 30.4965C23.751 30.2749 23.2544 30.2347 22.7979 30.3838C22.3414 30.5329 21.9638 30.8589 21.7484 31.29C21.5329 31.7211 21.4985 32.2207 21.6519 32.6776C22.8693 36.4408 24.8393 39.773 27.3472 42.3438C24.9902 43.7754 22.2268 44.5955 19.2592 44.5955C10.5857 44.5955 3.59029 37.5793 3.59029 28.8711C3.59029 20.1621 10.5857 13.1467 19.2592 13.1467C20.7833 13.1467 22.2518 13.3613 23.6338 13.7622V13.7615C24.1517 14.0164 24.7597 14.0057 25.2682 13.7332C25.2945 13.72 25.3201 13.7055 25.3452 13.6911C25.3565 13.6848 25.3677 13.6778 25.3784 13.6709C25.858 13.3821 26.1755 12.8849 26.2388 12.3267C27.927 6.56103 33.7075 3.65861 39.4918 3.64927L39.4912 3.64935ZM30.2108 44.7771C32.9466 46.6757 36.1047 47.7714 39.4992 47.7714C42.8926 47.7714 46.0493 46.6764 48.784 44.7791C51.4416 46.6255 54.5839 47.8162 57.9711 48.1245V63.8439C56.8546 63.3864 55.5408 63.0095 54.0366 62.6772C50.1278 61.8131 44.9697 61.3015 39.4992 61.3015C34.0244 61.3015 28.8644 61.8138 24.9544 62.6772C23.4503 63.0095 22.1353 63.3858 21.0187 63.8439V48.1245C24.4078 47.8162 27.555 46.6261 30.2108 44.7773V44.7771ZM39.4992 64.9101C44.7431 64.9101 49.7195 65.4179 53.2651 66.2014C55.0379 66.5929 56.46 67.068 57.2915 67.4934C57.3986 67.5481 57.495 67.6029 57.5808 67.6545C57.495 67.7061 57.3992 67.7602 57.2928 67.815C56.4618 68.2397 55.0396 68.713 53.2663 69.1038C49.7201 69.8854 44.7437 70.3913 39.4992 70.3913C34.2504 70.3913 29.2714 69.8854 25.7239 69.1038C23.9506 68.713 22.5277 68.2397 21.6968 67.815C21.5897 67.7602 21.4939 67.7061 21.4081 67.6551C21.4939 67.6035 21.5903 67.5488 21.6974 67.494C22.5284 67.0686 23.9512 66.5941 25.7245 66.202C29.2713 65.4186 34.2504 64.9107 39.4985 64.9107L39.4992 64.9101Z" fill="black"/>
</svg>
