<svg width="12" height="12" viewBox="0 0 17 10" fill="none" xmlns="http://www.w3.org/2000/svg">
<path d="M1.66273 0.000130758C0.747238 0.000130758 0 0.71982 0 1.60427V10.3959C0 11.2803 0.747238 12 1.66273 12L15.3373 11.9999C16.2528 11.9999 17 11.2802 17 10.3957V1.60414C17 0.71969 16.2528 0 15.3373 0L1.66273 0.000130758ZM1.66273 0.585925H15.3373C15.9272 0.585925 16.3936 1.03417 16.3936 1.60427V2.61214H0.606564V1.60413C0.606564 1.03417 1.07297 0.585791 1.66294 0.585791L1.66273 0.585925ZM0.606356 3.19793H16.3934V4.33069H0.606356V3.19793ZM0.606356 4.91698H16.3934V10.3957C16.3934 10.9656 15.927 11.414 15.3371 11.414H1.66252C1.07256 11.414 0.606148 10.9658 0.606148 10.3957L0.606356 4.91698ZM11.0156 6.72705C10.5573 6.72705 10.1174 6.90305 9.79341 7.21621C9.46939 7.52924 9.28722 7.95421 9.28708 8.39693C9.28708 8.83969 9.46926 9.26464 9.79341 9.57766C10.1174 9.89069 10.5573 10.0673 11.0156 10.0673C11.383 10.0671 11.7372 9.95202 12.0305 9.74582C12.3243 9.95241 12.6794 10.0673 13.0473 10.0673C13.5057 10.0673 13.9453 9.89135 14.2695 9.57819C14.5936 9.26503 14.7758 8.83969 14.7758 8.39693C14.7758 7.95407 14.5936 7.52936 14.2695 7.21621C13.9453 6.90304 13.5057 6.72705 13.0473 6.72705C12.6794 6.72705 12.3244 6.84199 12.0305 7.04859C11.7373 6.84238 11.383 6.72731 11.0156 6.72705ZM2.53561 7.17216V7.17202C2.45399 7.17032 2.37509 7.2004 2.31675 7.25558C2.25842 7.31063 2.22566 7.3862 2.22566 7.46492C2.22566 7.54377 2.25842 7.61935 2.31675 7.67439C2.37509 7.72957 2.45399 7.75965 2.53561 7.75782H6.35149H6.35136C6.43297 7.75965 6.51188 7.72957 6.57021 7.67439C6.62855 7.61935 6.66144 7.54377 6.66144 7.46492C6.66144 7.3862 6.62855 7.31063 6.57021 7.25558C6.51188 7.2004 6.43297 7.17032 6.35136 7.17202L2.53561 7.17216ZM11.0156 7.31285C11.2262 7.31298 11.43 7.37038 11.606 7.4759C11.5622 7.53985 11.5241 7.60679 11.49 7.67557C11.4859 7.68381 11.4821 7.69191 11.4781 7.70015C11.4124 7.8381 11.3668 7.98403 11.3419 8.13491C11.34 8.14616 11.3382 8.1574 11.3365 8.16865C11.3257 8.24409 11.3181 8.31993 11.3181 8.39695C11.3181 8.47397 11.3257 8.55033 11.3365 8.62577C11.3381 8.63715 11.3399 8.64826 11.3419 8.65951C11.3668 8.8104 11.4124 8.95633 11.4781 9.09427C11.482 9.10251 11.4859 9.11074 11.49 9.11885C11.5241 9.18737 11.5618 9.25419 11.6054 9.31799C11.4296 9.42325 11.226 9.48092 11.0157 9.48105C10.7181 9.48105 10.4328 9.3669 10.2222 9.16357C10.0117 8.96024 9.89354 8.68459 9.89354 8.39708C9.89354 8.10955 10.0117 7.83442 10.2222 7.6311C10.4326 7.42778 10.718 7.3131 11.0157 7.31297L11.0156 7.31285ZM13.0473 7.31285C13.3451 7.31285 13.6302 7.427 13.8407 7.63033C14.0513 7.83379 14.1693 8.10931 14.1693 8.39695C14.1693 8.68459 14.0511 8.96012 13.8407 9.16344C13.6302 9.36689 13.3449 9.48157 13.0473 9.48157C12.7495 9.48157 12.4644 9.36689 12.2539 9.16344C12.252 9.16161 12.2505 9.15951 12.2485 9.15768C12.2482 9.15729 12.2481 9.1569 12.2478 9.15651C12.0414 8.95383 11.9253 8.68108 11.9251 8.39682C11.9254 8.11255 12.0415 7.84031 12.2478 7.63763V7.63776C12.2511 7.63436 12.2543 7.63096 12.2573 7.62743C12.4675 7.42606 12.751 7.31283 13.0472 7.31283L13.0473 7.31285ZM2.5064 8.75668C2.34182 8.76793 2.21662 8.90404 2.22461 9.06331C2.23246 9.22257 2.37051 9.34653 2.5355 9.34247H4.16684C4.24846 9.34431 4.32723 9.3141 4.38556 9.25905C4.4439 9.20387 4.47678 9.12842 4.47678 9.04958C4.47678 8.97073 4.44389 8.89528 4.38556 8.8401C4.32723 8.78506 4.24846 8.75498 4.16684 8.75668H2.5355C2.52575 8.75629 2.51614 8.75629 2.5064 8.75668Z" fill="black" fill-opacity="0.5"/>
</svg>
