<svg width="54" height="40" viewBox="0 0 655 478" fill="none" xmlns="http://www.w3.org/2000/svg">
<path d="M63.984 0.00520833C28.7547 0.00520833 0 28.6719 0 63.9012V414.088C0 449.317 28.7547 477.984 63.984 477.984L590.197 477.979C625.427 477.979 654.181 449.312 654.181 414.083V63.896C654.181 28.6667 625.427 0 590.197 0L63.984 0.00520833ZM63.984 23.3385H590.197C612.9 23.3385 630.848 41.1932 630.848 63.9012V104.047H23.3413V63.8959C23.3413 41.1932 41.2893 23.3332 63.992 23.3332L63.984 23.3385ZM23.3333 127.38H630.84V172.5H23.3333V127.38ZM23.3333 195.853H630.84V414.08C630.84 436.783 612.892 454.643 590.189 454.643H63.976C41.2733 454.643 23.3253 436.788 23.3253 414.08L23.3333 195.853ZM423.893 267.952C406.257 267.952 389.331 274.962 376.863 287.436C364.394 299.905 357.384 316.832 357.379 334.467C357.379 352.103 364.389 369.029 376.863 381.497C389.331 393.966 406.259 401.003 423.893 401.003C438.033 400.992 451.664 396.409 462.951 388.195C474.253 396.424 487.92 401.003 502.076 401.003C519.716 401.003 536.633 393.992 549.107 381.519C561.581 369.045 568.591 352.103 568.591 334.467C568.591 316.827 561.58 299.909 549.107 287.436C536.633 274.962 519.716 267.952 502.076 267.952C487.92 267.952 474.259 272.53 462.951 280.759C451.664 272.546 438.033 267.962 423.893 267.952ZM97.5733 285.681V285.676C94.4327 285.608 91.3963 286.806 89.1515 289.004C86.9067 291.197 85.6463 294.207 85.6463 297.343C85.6463 300.483 86.9067 303.494 89.1515 305.686C91.3963 307.884 94.4327 309.082 97.5733 309.009H244.413H244.408C247.549 309.082 250.585 307.884 252.83 305.686C255.075 303.494 256.34 300.483 256.34 297.343C256.34 294.207 255.075 291.197 252.83 289.004C250.585 286.806 247.549 285.608 244.408 285.676L97.5733 285.681ZM423.893 291.285C431.997 291.291 439.841 293.577 446.612 297.78C444.93 300.327 443.461 302.994 442.148 305.733C441.992 306.061 441.846 306.384 441.69 306.712C439.164 312.207 437.409 318.02 436.45 324.03C436.378 324.478 436.31 324.926 436.242 325.373C435.825 328.379 435.534 331.399 435.534 334.467C435.534 337.535 435.825 340.577 436.242 343.582C436.305 344.035 436.372 344.478 436.45 344.925C437.409 350.936 439.164 356.748 441.69 362.243C441.841 362.571 441.992 362.899 442.148 363.222C443.461 365.951 444.914 368.613 446.591 371.154C439.825 375.347 431.992 377.644 423.898 377.649C412.445 377.649 401.466 373.102 393.362 365.003C385.263 356.904 380.716 345.924 380.716 334.473C380.716 323.019 385.263 312.06 393.362 303.962C401.461 295.863 412.44 291.295 423.898 291.29L423.893 291.285ZM502.076 291.285C513.534 291.285 524.508 295.832 532.607 303.931C540.711 312.035 545.253 323.01 545.253 334.467C545.253 345.925 540.706 356.899 532.607 364.998C524.508 373.102 513.528 377.67 502.076 377.67C490.618 377.67 479.644 373.102 471.545 364.998C471.472 364.925 471.415 364.842 471.337 364.769C471.327 364.753 471.321 364.737 471.311 364.722C463.368 356.649 458.899 345.785 458.894 334.462C458.905 323.139 463.374 312.295 471.311 304.222V304.227C471.436 304.092 471.561 303.956 471.676 303.816C479.764 295.795 490.676 291.284 502.072 291.284L502.076 291.285ZM96.4493 348.796C90.116 349.244 85.2983 354.666 85.6056 361.01C85.9077 367.353 91.2201 372.291 97.5692 372.129H160.345C163.486 372.202 166.517 370.999 168.762 368.806C171.007 366.609 172.272 363.603 172.272 360.463C172.272 357.322 171.007 354.317 168.762 352.119C166.517 349.926 163.486 348.728 160.345 348.796H97.5692C97.1942 348.78 96.8243 348.78 96.4493 348.796Z" fill="black"/>
</svg>
