<svg width="54" height="40" viewBox="0 0 54 40" fill="none" xmlns="http://www.w3.org/2000/svg">
<path d="M5.28162 0.000435858C2.37358 0.000435858 0 2.3994 0 5.34756V34.6529C0 37.601 2.37358 40 5.28162 40L48.7184 39.9996C51.6264 39.9996 54 37.6006 54 34.6524V5.34713C54 2.39897 51.6264 0 48.7184 0L5.28162 0.000435858ZM5.28162 1.95308H48.7184C50.5924 1.95308 52.0739 3.44725 52.0739 5.34756V8.70712H1.92673V5.34712C1.92673 3.44725 3.40827 1.95264 5.28228 1.95264L5.28162 1.95308ZM1.92607 10.6598H52.0733V14.4356H1.92607V10.6598ZM1.92607 16.3899H52.0733V34.6522C52.0733 36.5521 50.5917 38.0467 48.7177 38.0467H5.28096C3.40695 38.0467 1.92541 36.5525 1.92541 34.6522L1.92607 16.3899ZM34.9907 22.4235C33.5349 22.4235 32.1377 23.0102 31.1085 24.054C30.0792 25.0975 29.5006 26.514 29.5002 27.9898C29.5002 29.4656 30.0788 30.8821 31.1085 31.9255C32.1377 32.969 33.535 33.5578 34.9907 33.5578C36.1579 33.557 37.283 33.1734 38.2147 32.486C39.1476 33.1747 40.2758 33.5578 41.4443 33.5578C42.9004 33.5578 44.2969 32.9712 45.3265 31.9273C46.3562 30.8834 46.9348 29.4656 46.9348 27.9898C46.9348 26.5136 46.3562 25.0979 45.3265 24.054C44.2968 23.0101 42.9004 22.4235 41.4443 22.4235C40.2758 22.4235 39.1481 22.8066 38.2147 23.4953C37.283 22.8079 36.1579 22.4244 34.9907 22.4235ZM8.05428 23.9072V23.9067C7.79503 23.9011 7.54439 24.0013 7.35909 24.1853C7.17379 24.3688 7.06975 24.6207 7.06975 24.8831C7.06975 25.1459 7.17379 25.3978 7.35909 25.5813C7.54439 25.7652 7.79503 25.8655 8.05428 25.8594H20.1753H20.1749C20.4341 25.8655 20.6848 25.7652 20.8701 25.5813C21.0554 25.3978 21.1599 25.1459 21.1599 24.8831C21.1599 24.6207 21.0554 24.3688 20.8701 24.1853C20.6848 24.0013 20.4341 23.9011 20.1749 23.9067L8.05428 23.9072ZM34.9907 24.3762C35.6596 24.3766 36.3071 24.5679 36.866 24.9197C36.7271 25.1328 36.6059 25.356 36.4975 25.5852C36.4846 25.6127 36.4726 25.6397 36.4597 25.6672C36.2512 26.127 36.1063 26.6134 36.0272 27.1164C36.0212 27.1539 36.0156 27.1913 36.01 27.2288C35.9756 27.4803 35.9515 27.7331 35.9515 27.9898C35.9515 28.2466 35.9756 28.5011 36.01 28.7526C36.0152 28.7905 36.0208 28.8275 36.0272 28.865C36.1063 29.368 36.2512 29.8544 36.4597 30.3142C36.4722 30.3417 36.4846 30.3691 36.4975 30.3962C36.6059 30.6246 36.7258 30.8473 36.8643 31.06C36.3058 31.4108 35.6592 31.6031 34.991 31.6035C34.0456 31.6035 33.1394 31.223 32.4704 30.5452C31.8019 29.8675 31.4265 28.9486 31.4265 27.9903C31.4265 27.0318 31.8019 26.1147 32.4704 25.437C33.1389 24.7593 34.0453 24.377 34.991 24.3766L34.9907 24.3762ZM41.4443 24.3762C42.3902 24.3762 43.296 24.7567 43.9645 25.4344C44.6335 26.1126 45.0084 27.031 45.0084 27.9898C45.0084 28.9486 44.633 29.8671 43.9645 30.5448C43.296 31.223 42.3896 31.6052 41.4443 31.6052C40.4985 31.6052 39.5927 31.223 38.9241 30.5448C38.9181 30.5387 38.9134 30.5317 38.9069 30.5256C38.9061 30.5243 38.9057 30.523 38.9048 30.5217C38.2492 29.8461 37.8803 28.9369 37.8799 27.9894C37.8807 27.0418 38.2496 26.1344 38.9048 25.4588V25.4592C38.9151 25.4479 38.9254 25.4365 38.9349 25.4248C39.6026 24.7535 40.5033 24.3761 41.444 24.3761L41.4443 24.3762ZM7.9615 29.1889C7.43871 29.2264 7.04102 29.6801 7.06639 30.211C7.09133 30.7419 7.52985 31.1551 8.05394 31.1416H13.2358C13.4951 31.1477 13.7453 31.047 13.9306 30.8635C14.1159 30.6796 14.2204 30.4281 14.2204 30.1653C14.2204 29.9024 14.1159 29.6509 13.9306 29.467C13.7453 29.2835 13.4951 29.1833 13.2358 29.1889H8.05394C8.02299 29.1876 7.99245 29.1876 7.9615 29.1889Z" fill="black"/>
</svg>
