<svg width="84" height="99" viewBox="0 0 84 99" fill="none" xmlns="http://www.w3.org/2000/svg">
<path d="M47.2465 85.2521C47.4431 85.2521 47.6525 85.2029 47.837 85.1036C53.9641 81.7127 57.766 75.228 57.766 68.1866C57.766 67.5063 57.2125 66.9487 56.5353 66.9487C55.859 66.9487 55.3045 67.5055 55.3045 68.1866C55.3045 74.3372 51.9952 79.9932 46.6551 82.9386C46.0647 83.2726 45.8432 84.015 46.1754 84.6219C46.3977 85.0164 46.8165 85.2521 47.2465 85.2521L47.2465 85.2521Z" fill="black"/>
<path d="M14.1734 58.3465H14.272C14.9115 58.3465 15.441 57.8519 15.4899 57.2079C15.6624 54.9558 17.5566 53.198 19.8705 53.1861C19.9074 53.1982 19.9443 53.1861 19.9813 53.1861C20.0182 53.1861 20.0551 53.2111 20.092 53.2111H20.104C20.1529 53.2111 20.1898 53.1861 20.2396 53.1861C20.3134 53.174 20.3752 53.1611 20.4361 53.149C20.5219 53.1239 20.6086 53.0868 20.6824 53.0497C20.7442 53.0247 20.7811 52.9876 20.8421 52.9504C20.9159 52.9012 20.9777 52.8391 21.0266 52.7769C21.0755 52.7148 21.1124 52.6656 21.1493 52.5913C21.1862 52.5171 21.2231 52.4549 21.248 52.3686C21.26 52.3315 21.2849 52.3065 21.297 52.2693C21.309 52.2201 21.297 52.1701 21.297 52.1209C21.297 52.0717 21.3218 52.0345 21.3218 51.9845C21.3467 49.4475 23.1671 47.2944 25.6526 46.8732C26.3169 46.7618 26.7726 46.1187 26.6619 45.4497C26.5512 44.7816 25.9118 44.3232 25.2466 44.4345C21.974 44.9913 19.5007 47.5905 18.984 50.7957C15.8342 51.192 13.275 53.766 13.0287 57.0206C12.9926 57.7034 13.4973 58.2973 14.1736 58.3465H14.1734Z" fill="black"/>
<path d="M16.6473 90.9934V97.7621C16.6473 98.4423 17.2008 99 17.878 99H49.1167C49.793 99 50.3474 98.4432 50.3474 97.7621V90.9925C60.6335 85.0026 66.995 73.9391 66.995 61.9102C66.995 61.23 66.4415 60.6723 65.7643 60.6723H64.1036C64.719 59.633 65.076 58.4573 65.076 57.2193C65.076 54.6452 63.6487 52.3308 61.4345 51.168C61.4345 51.0316 61.4714 50.896 61.4714 50.7476C61.4714 48.6439 60.6226 46.7258 59.2442 45.3273L83.1752 16.6649C83.7168 15.9717 84 15.1672 84 14.3134C84 13.2119 83.5202 12.1725 82.6834 11.4794C81.9333 10.8363 80.9729 10.5385 80.0014 10.6127C79.005 10.699 78.1193 11.1574 77.491 11.9248L52.7096 41.5883C52.0943 40.6232 51.2703 39.8308 50.273 39.2869L62.6876 4.99369C62.8353 4.59745 62.9091 4.15202 62.9091 3.73163C62.9091 2.17262 61.9367 0.761305 60.4854 0.229382C59.5628 -0.116777 58.5535 -0.0675838 57.6557 0.352826C56.7572 0.773215 56.0809 1.51647 55.7367 2.44445L43.5187 36.2427C42.3249 36.02 41.0333 36.2056 39.9381 36.7744C38.8309 34.2624 36.3335 32.5299 33.4908 32.5299C30.6851 32.5299 28.2245 34.2253 27.0805 36.7744C26.3175 36.354 25.4567 36.1063 24.5461 36.1063C22.7378 36.1063 21.163 37.0101 20.1655 38.4457C17.1385 38.3343 14.4315 40.2404 13.5089 43.0743C13.3982 43.0743 13.2995 43.0372 13.1888 43.0372C8.96875 43.0372 5.52366 46.4902 5.52366 50.7469C5.52366 50.8833 5.54855 51.0188 5.56056 51.1673C3.3463 52.3309 1.91905 54.6574 1.91905 57.2187C1.91905 58.4686 2.27609 59.6445 2.89146 60.6716H1.23074C0.554442 60.6716 8.68227e-08 61.2284 8.68227e-08 61.9095C-0.000858109 73.925 6.36045 85.0008 16.6467 90.9918L16.6473 90.9934ZM47.886 96.525H19.0949V91.501H47.8728V96.525H47.886ZM79.3597 13.5101C79.5692 13.2623 79.8644 13.1017 80.1965 13.0767C80.5287 13.0396 80.8359 13.1509 81.0951 13.3737C81.3783 13.6085 81.538 13.9555 81.538 14.3267C81.538 14.6116 81.4393 14.8835 81.2547 15.1191L57.2248 43.8921C56.4249 43.4837 55.5512 43.2239 54.6287 43.1246L79.3597 13.5101ZM58.0373 3.28749C58.148 2.97845 58.3815 2.7307 58.6767 2.58222C58.984 2.44583 59.3161 2.42166 59.6242 2.5451C60.116 2.71861 60.4361 3.20118 60.4361 3.73292C60.4361 3.86932 60.4113 4.0178 60.3623 4.15331L45.1549 46.1923C44.8108 45.1771 44.2444 44.262 43.4942 43.5187L58.0373 3.28749ZM7.25963 53.0987C7.30855 53.0866 7.34546 53.0495 7.39524 53.0244C7.46905 52.9873 7.54286 52.9502 7.60465 52.901C7.66644 52.8518 7.71536 52.8017 7.77716 52.7404C7.82608 52.6783 7.87586 52.6291 7.91276 52.5548C7.94967 52.4806 7.98657 52.4184 8.01146 52.3321C8.03635 52.2579 8.06038 52.1836 8.07326 52.1094C8.08527 52.0231 8.08527 51.9488 8.07326 51.8616C8.07326 51.8124 8.08527 51.7624 8.07326 51.7132C8.01146 51.3912 7.99945 51.07 7.99945 50.7481C7.99945 47.8648 10.3374 45.5132 13.204 45.5132C13.561 45.5132 13.9052 45.5504 14.2253 45.6125H14.2502C14.2622 45.6125 14.2622 45.6246 14.2751 45.6246C14.3369 45.6367 14.3978 45.6367 14.4476 45.6367C14.4965 45.6367 14.5463 45.6117 14.5952 45.6117C14.669 45.5996 14.7308 45.5996 14.7917 45.5745C14.8776 45.5495 14.9514 45.5124 15.0252 45.4753C15.087 45.4381 15.1479 45.4131 15.1977 45.376C15.2595 45.3268 15.3204 45.2646 15.3702 45.1904C15.4191 45.1412 15.456 45.0911 15.4929 45.0419C15.5419 44.9556 15.5667 44.8684 15.6037 44.77C15.6157 44.7208 15.6526 44.6837 15.6526 44.6336V44.6086C15.6526 44.5965 15.6646 44.5965 15.6646 44.5835C16.0087 42.207 18.2238 40.5368 20.6108 40.9328C20.6477 40.9328 20.6846 40.9207 20.7215 40.9328C20.7464 40.9328 20.7833 40.9578 20.8073 40.9578C20.8442 40.9578 20.8691 40.9328 20.906 40.9328C21.0785 40.9207 21.2381 40.8706 21.3858 40.7964C21.4227 40.7843 21.4596 40.7713 21.4845 40.7472C21.657 40.6358 21.7917 40.4752 21.8904 40.2896C21.9024 40.2776 21.9153 40.2646 21.9273 40.2525C22.7641 38.495 25.4093 38.0996 26.6768 39.5101C26.6768 39.5222 26.6889 39.5222 26.7017 39.5352C26.9232 39.9064 27.2802 40.1783 27.723 40.1783C28.3993 40.1783 28.9409 39.6957 28.9409 39.0146C29.2481 36.7373 31.2169 35.0169 33.5179 35.0169C35.819 35.0169 37.7878 36.7374 38.095 39.0146C38.107 39.0889 38.1439 39.1381 38.1568 39.2123C38.1817 39.2866 38.1937 39.3729 38.2306 39.4471C38.3044 39.5835 38.4031 39.707 38.5258 39.8062C38.5997 39.8684 38.6735 39.8926 38.7593 39.9297C38.8211 39.9547 38.87 39.9918 38.9318 40.016C38.9936 40.0281 39.0545 40.041 39.1163 40.041C39.1781 40.0531 39.2391 40.0782 39.3129 40.0782C39.3378 40.0782 39.3618 40.0661 39.3867 40.0661C39.4236 40.0661 39.4485 40.0782 39.4725 40.0661C39.5463 40.054 39.6081 40.0169 39.669 39.9918C39.7428 39.9668 39.8046 39.9547 39.8656 39.9176C39.9883 39.8554 40.087 39.7691 40.1728 39.6698C40.1977 39.6448 40.2346 39.6327 40.2586 39.6077C40.8242 38.9024 41.7846 38.5804 42.6823 38.6296L41.4275 42.1067C40.6028 41.7476 39.717 41.5499 38.7695 41.5499C38.6339 41.5499 38.4253 41.5499 38.179 41.6121C37.5267 41.7726 37.1208 42.4537 37.2804 43.1098C37.44 43.7779 38.1052 44.1862 38.7695 44.0257C41.0206 44.0257 42.9156 45.7953 43.0881 48.0475C43.0881 48.0725 43.1001 48.0846 43.1001 48.1096C43.1122 48.1839 43.137 48.2581 43.1619 48.3323C43.1868 48.4066 43.2109 48.4808 43.2478 48.5551C43.2847 48.6172 43.3336 48.6664 43.3705 48.7286C43.4194 48.7907 43.4692 48.852 43.543 48.9142C43.5919 48.9634 43.6537 48.9884 43.7155 49.0255C43.7893 49.0747 43.8751 49.1118 43.9618 49.1369C43.9867 49.149 44.0107 49.1619 44.0356 49.174C45.0818 49.4217 45.9058 50.2013 46.201 51.2035C46.3606 51.7482 46.8533 52.0943 47.382 52.0943C47.4927 52.0943 47.6154 52.0823 47.7261 52.0451C48.3784 51.8595 48.7474 51.1663 48.5629 50.5103C48.2926 49.5823 47.7879 48.7778 47.1107 48.1216L49.4606 41.6249C50.457 42.2931 51.1711 43.3695 51.3556 44.6196C51.3556 44.6317 51.3676 44.6317 51.3676 44.6446V44.6696C51.3796 44.7068 51.4045 44.7439 51.4165 44.781C51.4534 44.8924 51.4783 44.9916 51.5393 45.078C51.5641 45.1272 51.6131 45.1643 51.65 45.2144C51.7118 45.2886 51.7727 45.3628 51.8465 45.412C51.8954 45.4492 51.9452 45.4742 51.9941 45.4984C52.0679 45.5476 52.1538 45.5847 52.2404 45.6097C52.3022 45.6218 52.3632 45.6348 52.425 45.6468C52.4739 45.6468 52.5237 45.6719 52.5726 45.6719C52.6344 45.6719 52.6953 45.6719 52.7571 45.6598C52.7691 45.6598 52.7691 45.6477 52.782 45.6477H52.8069C53.127 45.5856 53.4712 45.5484 53.8282 45.5484C54.8984 45.5484 55.8829 45.8704 56.7196 46.4272C56.7316 46.4393 56.7316 46.4523 56.7445 46.4643C56.7694 46.4894 56.7934 46.4894 56.8183 46.5015C58.1598 47.4545 59.0326 49.0013 59.0326 50.771C59.0326 51.093 59.0206 51.4141 58.9588 51.7361C58.9468 51.7853 58.9588 51.8354 58.9588 51.8846C58.9588 51.9709 58.9468 52.0451 58.9588 52.1323C58.9708 52.2066 58.9957 52.2808 59.0206 52.355C59.0454 52.4293 59.0695 52.5035 59.1193 52.5778C59.1562 52.6399 59.2051 52.7012 59.2549 52.7634C59.3038 52.8255 59.3536 52.8747 59.4274 52.9239C59.4892 52.9731 59.563 53.0103 59.6368 53.0474C59.6857 53.0724 59.7106 53.1095 59.7724 53.1216C61.4949 53.7276 62.6638 55.3859 62.6638 57.2426C62.6638 58.616 61.9995 59.879 60.9044 60.6956L6.12793 60.6965C5.0328 59.8798 4.36852 58.6178 4.36852 57.2435C4.36852 55.3625 5.5366 53.7041 7.25906 53.0982L7.25963 53.0987ZM64.5101 63.1347C64.0921 73.9261 58.1366 83.7275 48.7732 89.037L18.2112 89.0378C8.84771 83.7409 2.90516 73.9276 2.4743 63.1356L64.5101 63.1347Z" fill="black"/>
</svg>
