<svg width="290" height="340" viewBox="0 0 290 340" fill="none" xmlns="http://www.w3.org/2000/svg">
<path d="M163.113 292.785C163.792 292.785 164.515 292.616 165.152 292.275C186.305 280.63 199.43 258.359 199.43 234.176C199.43 231.84 197.519 229.925 195.181 229.925C192.847 229.925 190.932 231.837 190.932 234.176C190.932 255.299 179.507 274.724 161.071 284.839C159.033 285.987 158.268 288.536 159.415 290.621C160.182 291.975 161.628 292.785 163.113 292.785L163.113 292.785Z" fill="black"/>
<path d="M48.9318 200.382H49.2725C51.48 200.382 53.3081 198.683 53.477 196.472C54.0726 188.737 60.6119 182.7 68.6006 182.659C68.728 182.701 68.8554 182.659 68.9829 182.659C69.1103 182.659 69.2377 182.745 69.3651 182.745H69.4066C69.5755 182.745 69.7029 182.659 69.8747 182.659C70.1295 182.618 70.3429 182.573 70.5533 182.532C70.8496 182.446 71.1488 182.318 71.4036 182.191C71.617 182.105 71.7444 181.977 71.9548 181.85C72.2096 181.681 72.4229 181.468 72.5918 181.254C72.7607 181.041 72.8881 180.872 73.0155 180.617C73.1429 180.362 73.2703 180.148 73.3563 179.852C73.3977 179.724 73.4837 179.638 73.5252 179.511C73.5666 179.342 73.5252 179.17 73.5252 179.001C73.5252 178.832 73.6111 178.704 73.6111 178.533C73.697 169.82 79.9815 162.425 88.5625 160.979C90.8558 160.596 92.4292 158.387 92.047 156.09C91.6648 153.795 89.4573 152.221 87.161 152.603C75.8627 154.516 67.3239 163.442 65.5399 174.45C54.6656 175.811 45.8302 184.651 44.9799 195.828C44.8555 198.173 46.5977 200.213 48.9325 200.382H48.9318Z" fill="black"/>
<path d="M57.4727 312.503V335.749C57.4727 338.085 59.3839 340 61.7217 340H169.57C171.904 340 173.819 338.088 173.819 335.749V312.5C209.33 291.928 231.292 253.932 231.292 212.621C231.292 210.285 229.381 208.37 227.043 208.37H221.31C223.434 204.8 224.667 200.763 224.667 196.511C224.667 187.671 219.74 179.722 212.095 175.728C212.095 175.26 212.223 174.794 212.223 174.285C212.223 167.06 209.292 160.472 204.533 155.67L287.153 57.2331C289.022 54.8525 290 52.0894 290 49.157C290 45.3741 288.344 41.8046 285.455 39.4242C282.865 37.2155 279.549 36.1927 276.195 36.4476C272.755 36.7441 269.697 38.3183 267.528 40.9539L181.974 142.829C179.849 139.514 177.005 136.793 173.562 134.925L216.422 17.15C216.931 15.7892 217.186 14.2595 217.186 12.8157C217.186 7.46151 213.829 2.61458 208.819 0.787776C205.634 -0.401053 202.149 -0.232106 199.05 1.21172C195.947 2.65549 193.612 5.20808 192.424 8.39509L150.243 124.47C146.122 123.705 141.663 124.342 137.881 126.296C134.059 117.669 125.437 111.719 115.623 111.719C105.937 111.719 97.4419 117.541 93.4922 126.296C90.8581 124.852 87.8862 124.001 84.7426 124.001C78.4995 124.001 73.0627 127.105 69.619 132.036C59.1687 131.653 49.8229 138.199 46.6378 147.932C46.2556 147.932 45.9148 147.805 45.5326 147.805C30.9635 147.805 19.0698 159.663 19.0698 174.282C19.0698 174.751 19.1557 175.216 19.1972 175.726C11.5527 179.722 6.6253 187.712 6.6253 196.509C6.6253 200.801 7.85792 204.84 9.98241 208.367H4.24898C1.91415 208.367 2.99745e-07 210.279 2.99745e-07 212.619C-0.00296252 253.884 21.9587 291.922 57.4708 312.497L57.4727 312.503ZM165.321 331.5H65.9228V314.246H165.275V331.5H165.321ZM273.98 46.3982C274.703 45.5473 275.722 44.9958 276.869 44.9099C278.016 44.7824 279.076 45.1649 279.971 45.9298C280.949 46.7362 281.5 47.928 281.5 49.2028C281.5 50.1812 281.159 51.115 280.522 51.9243L197.562 150.74C194.8 149.338 191.784 148.446 188.599 148.105L273.98 46.3982ZM200.367 11.2904C200.749 10.229 201.555 9.37817 202.574 8.86823C203.635 8.39981 204.782 8.3168 205.846 8.74075C207.543 9.33665 208.649 10.9939 208.649 12.8201C208.649 13.2886 208.563 13.7985 208.394 14.2639L155.892 158.64C154.704 155.154 152.748 152.011 150.159 149.458L200.367 11.2904ZM25.063 182.359C25.2319 182.318 25.3593 182.19 25.5312 182.104C25.786 181.977 26.0408 181.849 26.2541 181.68C26.4675 181.511 26.6364 181.339 26.8497 181.129C27.0186 180.915 27.1905 180.746 27.3179 180.491C27.4453 180.236 27.5727 180.023 27.6586 179.726C27.7446 179.471 27.8275 179.217 27.872 178.962C27.9134 178.665 27.9134 178.41 27.872 178.111C27.872 177.942 27.9134 177.77 27.872 177.601C27.6586 176.495 27.6171 175.392 27.6171 174.286C27.6171 164.384 35.6887 156.308 45.5852 156.308C46.8178 156.308 48.006 156.436 49.1112 156.649H49.1971C49.2386 156.649 49.2386 156.691 49.283 156.691C49.4963 156.732 49.7067 156.732 49.8786 156.732C50.0475 156.732 50.2193 156.646 50.3882 156.646C50.643 156.605 50.8564 156.605 51.0667 156.519C51.363 156.433 51.6179 156.305 51.8727 156.178C52.086 156.05 52.2964 155.964 52.4682 155.837C52.6816 155.668 52.892 155.454 53.0638 155.199C53.2327 155.03 53.3601 154.858 53.4875 154.689C53.6564 154.393 53.7424 154.093 53.8698 153.755C53.9112 153.587 54.0387 153.459 54.0387 153.287V153.201C54.0387 153.16 54.0801 153.16 54.0801 153.115C55.2683 144.953 62.9155 139.217 71.1562 140.577C71.2836 140.577 71.411 140.536 71.5384 140.577C71.6243 140.577 71.7517 140.663 71.8347 140.663C71.9621 140.663 72.048 140.577 72.1754 140.577C72.771 140.536 73.3221 140.364 73.8318 140.109C73.9592 140.067 74.0866 140.023 74.1725 139.94C74.7681 139.557 75.2333 139.006 75.5741 138.368C75.6155 138.327 75.66 138.283 75.7015 138.241C78.5904 132.205 87.7227 130.847 92.0986 135.691C92.0986 135.733 92.1401 135.733 92.1845 135.777C92.949 137.052 94.1816 137.986 95.7105 137.986C98.0453 137.986 99.915 136.329 99.915 133.99C100.976 126.169 107.773 120.26 115.717 120.26C123.661 120.26 130.458 126.169 131.518 133.99C131.56 134.245 131.687 134.414 131.732 134.669C131.818 134.924 131.859 135.22 131.987 135.475C132.241 135.943 132.582 136.367 133.006 136.708C133.261 136.922 133.516 137.005 133.812 137.132C134.025 137.218 134.194 137.346 134.407 137.429C134.621 137.47 134.831 137.515 135.044 137.515C135.258 137.556 135.468 137.642 135.723 137.642C135.809 137.642 135.892 137.601 135.978 137.601C136.105 137.601 136.191 137.642 136.274 137.601C136.529 137.559 136.742 137.432 136.953 137.346C137.207 137.26 137.421 137.218 137.631 137.091C138.055 136.877 138.396 136.581 138.692 136.24C138.778 136.154 138.905 136.112 138.988 136.026C140.941 133.604 144.256 132.498 147.356 132.667L143.024 144.609C140.176 143.376 137.118 142.697 133.847 142.697C133.379 142.697 132.659 142.697 131.808 142.91C129.556 143.462 128.155 145.801 128.706 148.054C129.257 150.348 131.554 151.751 133.847 151.199C141.619 151.199 148.161 157.277 148.757 165.012C148.757 165.097 148.798 165.139 148.798 165.225C148.84 165.48 148.926 165.735 149.011 165.99C149.097 166.245 149.18 166.5 149.308 166.755C149.435 166.968 149.604 167.137 149.731 167.351C149.9 167.564 150.072 167.775 150.327 167.988C150.496 168.157 150.709 168.243 150.923 168.37C151.177 168.539 151.474 168.667 151.773 168.753C151.859 168.794 151.942 168.839 152.028 168.88C155.64 169.731 158.484 172.408 159.503 175.85C160.055 177.721 161.755 178.91 163.581 178.91C163.963 178.91 164.387 178.868 164.769 178.741C167.021 178.103 168.295 175.723 167.658 173.47C166.724 170.283 164.982 167.52 162.644 165.266L170.757 142.954C174.197 145.249 176.662 148.946 177.299 153.239C177.299 153.28 177.341 153.28 177.341 153.325V153.411C177.382 153.538 177.468 153.666 177.509 153.793C177.637 154.176 177.723 154.517 177.933 154.813C178.019 154.982 178.188 155.11 178.315 155.282C178.529 155.537 178.739 155.792 178.994 155.961C179.163 156.088 179.335 156.174 179.504 156.257C179.758 156.426 180.055 156.553 180.354 156.639C180.567 156.681 180.778 156.725 180.991 156.767C181.16 156.767 181.332 156.853 181.501 156.853C181.714 156.853 181.924 156.853 182.138 156.811C182.179 156.811 182.179 156.77 182.224 156.77H182.31C183.415 156.556 184.603 156.429 185.835 156.429C189.53 156.429 192.929 157.535 195.818 159.447C195.859 159.489 195.859 159.533 195.904 159.575C195.99 159.66 196.073 159.66 196.158 159.702C200.79 162.975 203.803 168.287 203.803 174.365C203.803 175.471 203.761 176.574 203.548 177.68C203.507 177.849 203.548 178.02 203.548 178.189C203.548 178.486 203.507 178.741 203.548 179.04C203.59 179.295 203.676 179.55 203.761 179.805C203.847 180.06 203.93 180.315 204.102 180.57C204.23 180.784 204.399 180.994 204.57 181.208C204.739 181.421 204.911 181.59 205.166 181.759C205.379 181.928 205.634 182.055 205.889 182.183C206.058 182.269 206.144 182.396 206.357 182.438C212.304 184.519 216.339 190.214 216.339 196.591C216.339 201.308 214.046 205.645 210.265 208.45L21.156 208.452C17.3751 205.648 15.0818 201.314 15.0818 196.594C15.0818 190.134 19.1145 184.438 25.061 182.357L25.063 182.359ZM222.713 216.826C221.27 253.888 200.71 287.549 168.384 305.784L62.872 305.786C30.5457 287.595 10.0297 253.893 8.54223 216.829L222.713 216.826Z" fill="black"/>
</svg>
