<svg width="70" height="73" viewBox="0 0 70 73" fill="none" xmlns="http://www.w3.org/2000/svg">
<path d="M41.0861 52.0397C37.6023 50.1637 32.9987 52.0397 30.8835 56.1669C29.7637 58.293 29.5149 60.7943 30.137 62.9205C30.6347 64.6714 31.8789 66.0471 33.3719 66.9226C34.2429 67.4229 35.2383 67.673 36.2336 67.673C39.0953 67.673 41.957 65.9221 43.5745 62.9205C44.6943 60.7943 44.9431 58.293 44.321 56.1669C43.8233 54.1658 42.5791 52.7901 41.0861 52.0397ZM41.4593 61.5447C39.9663 64.4213 36.8557 65.797 34.6161 64.5463C33.6208 64.0461 32.9987 63.1706 32.6254 62.045C32.1277 60.5442 32.3766 58.7933 33.1231 57.1674C34.2429 55.0413 36.2336 53.6655 38.2244 53.6655C38.8465 53.6655 39.4686 53.7906 39.9663 54.0407C40.9616 54.541 41.5837 55.4165 41.957 56.5421C42.4547 58.1679 42.2058 60.0439 41.4593 61.5447Z" fill="black"/>
<path d="M51.0397 33.2797C47.5559 31.4037 42.9523 33.2797 40.8371 37.4069C39.7173 39.533 39.4685 42.0343 40.0906 44.1605C40.5883 45.9114 41.8325 47.2871 43.3255 48.1626C44.1965 48.6629 45.1919 48.913 46.1872 48.913C49.0489 48.913 51.9106 47.1621 53.5281 44.1605C54.6479 42.0343 54.8967 39.533 54.2746 37.4069C53.7769 35.4058 52.5327 34.0301 51.0397 33.2797ZM51.4129 42.7847C49.9199 45.6613 46.8093 47.037 44.5698 45.7863C43.5744 45.2861 42.9523 44.4106 42.579 43.285C42.0813 41.7842 42.3302 40.0333 43.0767 38.4074C44.1965 36.2813 46.1872 34.9056 48.178 34.9056C48.8001 34.9056 49.4222 35.0306 49.9199 35.2808C50.9152 35.781 51.5374 36.6565 51.9106 37.7821C52.4083 39.408 52.1595 41.2839 51.4129 42.7847Z" fill="black"/>
<path d="M68.9563 16.1449C67.5877 11.7675 67.5877 7.3902 69.2052 3.63821L69.454 3.01287C69.7029 2.38754 69.454 1.76221 68.8319 1.38701L66.7167 0.26141H66.5923C66.2191 0.0112772 65.7214 -0.113789 65.2237 0.136344L64.6016 0.511543C60.8689 2.63767 56.5142 3.26301 51.9106 2.51261C48.3024 1.88728 44.5698 2.88781 41.4592 5.01394C37.851 7.51527 35.7358 11.3923 35.6114 15.5195C31.7544 14.3939 27.2752 15.1443 23.667 17.6457C20.0588 20.147 17.9436 24.0241 17.8192 28.1512C13.9621 27.0256 9.48295 27.776 5.87474 30.2774C2.7642 32.4035 0.649044 35.7803 0.151359 39.2822C-0.346327 42.4088 0.400201 45.4104 2.1421 47.9118C4.38168 51.0384 8.11432 52.6643 11.847 52.6643C14.7086 52.6643 17.5703 51.7888 20.1832 50.0379C23.7914 47.5366 25.9066 43.6595 26.031 39.5323C28.7683 40.4078 31.8788 40.1576 34.7405 39.1571C34.2428 41.7835 34.6161 44.535 35.7358 46.9112C31.7544 47.6616 28.1461 50.288 26.031 54.1651C24.2891 57.4168 23.9158 61.2939 24.9112 64.6707C25.9066 67.6723 27.8973 70.1736 30.6346 71.5493C32.252 72.4248 34.1184 72.8 35.8603 72.8C40.5883 72.8 45.1919 70.0485 47.6803 65.296C49.671 61.4189 49.9199 57.0416 48.178 53.4147C52.1595 52.6643 55.7677 50.0379 57.8828 46.1608C59.8736 42.2838 60.1224 37.9064 58.3805 34.2795C62.362 33.5291 65.9702 30.9027 68.0854 27.0256C69.7029 23.3987 70.0761 19.6467 68.9563 16.1449ZM25.16 36.53C24.7868 36.2799 24.2891 36.4049 23.9158 36.6551C23.5426 36.9052 23.2937 37.4055 23.4181 37.7807C23.9158 41.5327 22.0495 45.4097 18.6901 47.911C13.7133 51.4129 7.24337 50.7876 4.13213 46.4102C2.76349 44.5342 2.26581 42.158 2.63907 39.7817C3.13676 36.9052 4.87866 34.2788 7.36708 32.4028C9.48224 30.902 11.8462 30.1516 14.2103 30.1516C15.7033 30.1516 17.3208 30.5268 18.6894 31.1521C19.0627 31.4023 19.5604 31.2772 19.9336 31.0271C20.3069 30.7769 20.5557 30.2767 20.4313 29.9015C19.9336 26.1495 21.7999 22.2724 25.1593 19.7711C28.5187 17.3948 32.9979 16.8945 36.4817 18.5204C36.8549 18.7705 37.3526 18.6455 37.7259 18.3953C38.0991 18.1452 38.348 17.6449 38.2236 17.2697C37.7259 13.5177 39.5922 9.64069 42.9516 7.13935C45.44 5.38842 48.6749 4.51296 51.5366 5.01322C56.6379 5.76362 61.3659 5.13829 65.4718 2.88709L65.5962 3.01216C62.2369 6.13882 59.9973 10.3911 59.1263 15.2687C58.6287 18.1452 56.8868 20.7716 54.3983 22.5225C51.039 24.8988 46.5598 25.3991 43.076 23.7732C42.7027 23.5231 42.205 23.6481 41.8318 23.8983C41.4585 24.1484 41.2097 24.6487 41.3341 25.0239C41.8318 28.7759 39.9655 32.6529 36.6061 35.1543C33.1223 37.6556 28.6431 38.1559 25.1593 36.53H25.16ZM61.2422 17.0196C61.4911 17.3948 61.7399 17.8951 61.9887 18.3953C62.4864 19.8961 62.2376 21.7721 61.3666 23.2729C59.8736 26.1495 56.6386 27.6503 54.2746 26.3996C54.0258 26.2745 53.7769 26.1495 53.5281 25.8993C54.2746 25.5241 55.0211 25.1489 55.7677 24.6487C58.5049 22.7727 60.3713 20.0212 61.2422 17.0196ZM45.6888 27.5252C44.9423 27.6503 44.3202 27.9004 43.6981 28.0255C43.6981 27.6503 43.8225 27.15 43.8225 26.7748C44.4446 26.8999 44.9423 27.0249 45.5644 27.15C45.6888 27.2751 45.6888 27.4001 45.6888 27.5252ZM65.7214 25.5241C63.7306 29.2761 60.1224 31.5273 56.2654 31.6524C55.7677 31.6524 55.3944 31.9025 55.1456 32.2777C54.8967 32.6529 55.0211 33.1532 55.27 33.5284C57.5096 36.6551 57.634 40.9073 55.6433 44.6593C53.6525 48.4113 50.0443 50.6625 46.1872 50.7876C45.6895 50.7876 45.3163 51.0377 45.0674 51.4129C44.8186 51.7881 44.943 52.2884 45.1919 52.6636C47.4314 55.7902 47.5559 60.0425 45.5651 63.7945C42.8279 69.0473 36.6068 71.4236 31.8788 68.9222C29.7636 67.7966 28.1461 65.9206 27.3996 63.5444C26.5287 60.7929 26.9019 57.6662 28.2706 55.0398C30.2613 51.2878 33.8695 49.0366 37.7266 48.9116C38.2243 48.9116 38.5975 48.6614 38.8464 48.2862C39.0952 47.911 38.9708 47.4108 38.722 47.0356C36.8556 44.2841 36.4824 40.7823 37.7266 37.4055C37.851 37.2804 37.9754 37.2804 37.9754 37.2804C40.215 35.6545 41.9569 33.5284 42.8279 31.2772C44.3209 30.4017 46.0628 29.9015 47.8047 29.9015C48.3024 29.9015 48.6757 29.6513 48.9245 29.2761C49.1733 28.9009 49.0489 28.4007 48.8001 28.0255C48.6757 27.9004 48.5512 27.6503 48.4268 27.4001C49.2978 27.4001 50.1687 27.15 50.9152 27.0249C51.5373 27.7753 52.2839 28.4007 53.0304 28.7759C54.0258 29.2761 55.0211 29.5263 56.0165 29.5263C58.8782 29.5263 61.8643 27.7753 63.4818 24.6487C64.6016 22.5225 64.8504 20.0212 64.2283 17.77C63.7306 16.2692 62.8597 15.1436 61.7399 14.2681C62.4864 11.2666 63.8551 8.51509 65.7214 6.38896C65.0993 9.76575 65.3481 13.3927 66.4679 17.0196C67.4633 19.7711 67.2144 22.8977 65.7214 25.5241Z" fill="black"/>
</svg>
