<svg width="255" height="265" viewBox="0 0 255 265" fill="none" xmlns="http://www.w3.org/2000/svg">
<path d="M150.531 189.43C137.767 182.601 120.9 189.43 113.15 204.454C109.048 212.193 108.136 221.298 110.415 229.037C112.239 235.411 116.797 240.419 122.268 243.606C125.459 245.427 129.105 246.337 132.752 246.337C143.237 246.337 153.721 239.964 159.648 229.037C163.75 221.298 164.662 212.193 162.383 204.454C160.559 197.169 156.001 192.162 150.531 189.43ZM151.898 224.03C146.428 234.5 135.031 239.508 126.826 234.956C123.179 233.135 120.9 229.948 119.532 225.851C117.709 220.388 118.621 214.014 121.356 208.096C125.459 200.356 132.752 195.348 140.046 195.348C142.325 195.348 144.604 195.804 146.428 196.714C150.075 198.535 152.354 201.722 153.721 205.819C155.545 211.738 154.633 218.566 151.898 224.03Z" fill="black"/>
<path d="M186.999 121.142C174.235 114.313 157.368 121.142 149.619 136.165C145.516 143.905 144.604 153.01 146.884 160.749C148.707 167.123 153.266 172.13 158.736 175.317C161.927 177.138 165.574 178.049 169.22 178.049C179.705 178.049 190.19 171.675 196.116 160.749C200.219 153.01 201.13 143.905 198.851 136.165C197.028 128.881 192.469 123.873 186.999 121.142ZM188.366 155.741C182.896 166.212 171.5 171.22 163.294 166.667C159.648 164.846 157.368 161.659 156.001 157.562C154.177 152.099 155.089 145.726 157.824 139.807C161.927 132.068 169.22 127.06 176.514 127.06C178.793 127.06 181.073 127.515 182.896 128.426C186.543 130.247 188.822 133.434 190.19 137.531C192.013 143.449 191.101 150.278 188.366 155.741Z" fill="black"/>
<path d="M252.642 58.7691C247.627 42.8351 247.627 26.9012 253.553 13.2435L254.465 10.9672C255.377 8.69091 254.465 6.41463 252.186 5.04886L244.436 0.951562H243.981C242.613 0.0410504 240.79 -0.414206 238.966 0.496306L236.687 1.86207C223.011 9.60143 207.056 11.8777 190.19 9.14617C176.97 6.86989 163.294 10.5119 151.898 18.2513C138.678 27.3564 130.929 41.4693 130.473 56.4928C116.341 52.3955 99.9307 55.127 86.7109 64.2321C73.4912 73.3373 65.7417 87.4502 65.2858 102.474C51.1543 98.3763 34.7436 101.108 21.5238 110.213C10.1275 117.952 2.37796 130.244 0.554546 142.991C-1.26887 154.373 1.46625 165.299 7.84821 174.404C16.0536 185.785 29.7292 191.704 43.4048 191.704C53.8895 191.704 64.3741 188.517 73.947 182.143C87.1668 173.038 94.9163 158.925 95.3721 143.902C105.401 147.089 116.797 146.178 127.282 142.536C125.459 152.097 126.826 162.112 130.929 170.762C116.341 173.494 103.122 183.054 95.3721 197.167C88.9902 209.004 87.6226 223.116 91.2695 235.408C94.9163 246.335 102.21 255.44 112.239 260.447C118.165 263.634 125.003 265 131.385 265C148.707 265 165.574 254.984 174.691 237.685C181.984 223.572 182.896 207.638 176.514 194.435C191.101 191.704 204.321 182.143 212.071 168.03C219.364 153.918 220.276 137.984 213.894 124.781C228.481 122.05 241.701 112.489 249.451 98.3763C255.377 85.1739 256.744 71.5162 252.642 58.7691ZM92.1812 132.973C90.8136 132.063 88.9902 132.518 87.6226 133.428C86.2551 134.339 85.3434 136.16 85.7992 137.526C87.6226 151.183 80.7848 165.296 68.4768 174.401C50.2426 187.149 26.5382 184.872 15.1393 168.938C10.1249 162.11 8.30146 153.46 9.66902 144.81C11.4924 134.339 17.8744 124.779 26.9915 117.95C34.741 112.487 43.4022 109.755 52.0634 109.755C57.5337 109.755 63.4598 111.121 68.4742 113.397C69.8417 114.308 71.6651 113.852 73.0327 112.942C74.4003 112.031 75.312 110.21 74.8561 108.845C73.0327 95.1869 79.8705 81.074 92.1786 71.9689C104.487 63.319 120.897 61.498 133.661 67.4163C135.029 68.3268 136.852 67.8716 138.22 66.9611C139.587 66.0506 140.499 64.2295 140.043 62.8638C138.22 49.2061 145.058 35.0932 157.366 25.988C166.483 19.6145 178.335 16.4277 188.82 18.2487C207.51 20.9802 224.832 18.7039 239.875 10.5093L240.331 10.9646C228.023 22.346 219.818 37.8247 216.627 55.5797C214.803 66.0506 208.421 75.6109 199.304 81.9845C186.996 90.6344 170.585 92.4554 157.822 86.5371C156.454 85.6266 154.631 86.0818 153.263 86.9923C151.895 87.9028 150.984 89.7239 151.44 91.0896C153.263 104.747 146.425 118.86 134.117 127.965C121.353 137.07 104.942 138.892 92.1786 132.973H92.1812ZM224.379 61.9533C225.291 63.319 226.202 65.1401 227.114 66.9611C228.937 72.4241 228.026 79.253 224.835 84.7161C219.364 95.1869 207.512 100.65 198.851 96.0975C197.939 95.6422 197.028 95.1869 196.116 94.2764C198.851 92.9107 201.586 91.5449 204.321 89.7239C214.35 82.895 221.188 72.8794 224.379 61.9533ZM167.394 100.195C164.659 100.65 162.38 101.561 160.101 102.016C160.101 100.65 160.557 98.829 160.557 97.4632C162.836 97.9185 164.659 98.3737 166.939 98.829C167.394 99.2842 167.394 99.7395 167.394 100.195ZM240.79 92.9107C233.496 106.568 220.276 114.763 206.145 115.218C204.321 115.218 202.954 116.129 202.042 117.494C201.13 118.86 201.586 120.681 202.498 122.047C210.703 133.428 211.159 148.907 203.865 162.565C196.572 176.222 183.352 184.417 169.22 184.872C167.397 184.872 166.03 185.783 165.118 187.149C164.206 188.514 164.662 190.335 165.574 191.701C173.779 203.083 174.235 218.561 166.941 232.219C156.912 251.34 134.12 259.99 116.797 250.884C109.048 246.787 103.122 239.958 100.387 231.308C97.1956 221.293 98.5631 209.911 103.578 200.351C110.871 186.693 124.091 178.499 138.222 178.044C140.046 178.044 141.413 177.133 142.325 175.767C143.237 174.401 142.781 172.58 141.869 171.215C135.031 161.199 133.664 148.452 138.222 136.16C138.678 135.705 139.134 135.705 139.134 135.705C147.339 129.786 153.721 122.047 156.912 113.852C162.383 110.666 168.765 108.845 175.147 108.845C176.97 108.845 178.338 107.934 179.249 106.568C180.161 105.203 179.705 103.382 178.793 102.016C178.338 101.561 177.882 100.65 177.426 99.7395C180.617 99.7395 183.808 98.829 186.543 98.3737C188.822 101.105 191.557 103.382 194.292 104.747C197.939 106.568 201.586 107.479 205.233 107.479C215.718 107.479 226.658 101.105 232.584 89.7239C236.687 81.9845 237.599 72.8794 235.319 64.6848C233.496 59.2217 230.305 55.1244 226.202 51.9376C228.937 41.0115 233.952 30.9959 240.79 23.2565C238.51 35.5484 239.422 48.7508 243.525 61.9533C247.171 71.9689 246.26 83.3503 240.79 92.9107Z" fill="black"/>
</svg>
