<svg width="34" height="34" viewBox="0 0 34 34" fill="none" xmlns="http://www.w3.org/2000/svg">
<path d="M7.1577 9.8423L9.84191 7.15809C10.0805 6.91949 10.2628 6.86316 10.3887 6.98908L27.0109 23.6113C27.1368 23.7372 27.0805 23.9195 26.8419 24.1581L24.1577 26.8423C23.9191 27.0809 23.7368 27.1372 23.6109 27.0113L6.98869 10.3891C6.86277 10.2632 6.9191 10.0809 7.1577 9.8423Z" fill="black"/>
<path d="M6.99748 23.6021L23.6021 6.99748C23.7339 6.8657 23.9191 6.9191 24.1577 7.1577L26.8419 9.84191C27.0805 10.0805 27.1339 10.2657 27.0021 10.3975L10.3975 27.0021C10.2657 27.1339 10.0805 27.0805 9.84191 26.8419L7.1577 24.1577C6.9191 23.9191 6.8657 23.7339 6.99748 23.6021Z" fill="black"/>
</svg>
