<svg width="34" height="34" viewBox="0 0 34 34" fill="none" xmlns="http://www.w3.org/2000/svg">
<path d="M7.1577 9.84224L9.84191 7.15803C10.0805 6.91943 10.2628 6.8631 10.3887 6.98902L27.0109 23.6112C27.1368 23.7372 27.0805 23.9194 26.8419 24.158L24.1577 26.8422C23.9191 27.0808 23.7368 27.1372 23.6109 27.0112L6.98869 10.389C6.86277 10.2631 6.9191 10.0808 7.1577 9.84224Z" fill="black"/>
<path d="M6.99748 23.6023L23.6021 6.99766C23.7339 6.86588 23.9191 6.91929 24.1577 7.15788L26.8419 9.84209C27.0805 10.0807 27.1339 10.2659 27.0021 10.3977L10.3975 27.0023C10.2657 27.1341 10.0805 27.0807 9.84191 26.8421L7.1577 24.1579C6.9191 23.9193 6.8657 23.7341 6.99748 23.6023Z" fill="black"/>
</svg>
