<svg width="11" height="11" viewBox="0 0 308 308" fill="none" xmlns="http://www.w3.org/2000/svg">
<path d="M25.6667 308C25.6667 308 0 308 0 282.333C0 256.667 25.6667 179.667 154 179.667C282.333 179.667 308 256.667 308 282.333C308 308 282.333 308 282.333 308H25.6667ZM154 154C174.422 154 194.007 145.888 208.447 131.447C222.888 117.007 231 97.4217 231 77C231 56.5783 222.888 36.9931 208.447 22.5528C194.007 8.11248 174.422 0 154 0C133.578 0 113.993 8.11248 99.5528 22.5528C85.1125 36.9931 77 56.5783 77 77C77 97.4217 85.1125 117.007 99.5528 131.447C113.993 145.888 133.578 154 154 154V154Z" fill="#FDFDFD"/>
</svg>
