<svg width="79" height="86" viewBox="0 0 79 86" fill="none" xmlns="http://www.w3.org/2000/svg">
<path d="M12.6935 55.4093C12.3696 54.7838 11.6039 54.5236 10.9604 54.8214C10.6512 54.9695 10.4148 55.2339 10.303 55.5556C10.1913 55.8765 10.2138 56.2282 10.3654 56.5337C12.0509 59.9498 14.3869 63.0132 17.2459 65.5556C17.4953 65.7542 17.8054 65.862 18.1259 65.862C18.6568 65.8551 19.1306 65.5283 19.3185 65.0371C19.5074 64.5467 19.3722 63.9914 18.979 63.6388C16.3573 61.3301 14.2214 58.5335 12.6934 55.4095L12.6935 55.4093Z" fill="black"/>
<path d="M25.0837 67.8565C24.1881 67.4295 23.3237 66.9434 22.4966 66.3992C21.8964 66.0039 21.0856 66.1648 20.6855 66.7569C20.2862 67.3499 20.4482 68.1509 21.0484 68.5462C21.9275 69.1084 22.8335 69.6193 23.6355 70.1053H23.6347C23.885 70.25 24.1743 70.3124 24.4627 70.2842C24.9382 70.291 25.3773 70.0343 25.6008 69.6193C25.7749 69.3189 25.8182 68.9621 25.7203 68.6301C25.6224 68.2972 25.3929 68.0182 25.0837 67.8565L25.0837 67.8565Z" fill="black"/>
<path d="M14.1148 38.3376C14.1148 39.0428 13.5362 39.6152 12.8217 39.6152C12.1071 39.6152 11.5286 39.0427 11.5286 38.3376C11.5286 37.6317 12.1071 37.0592 12.8217 37.0592C13.5362 37.0592 14.1148 37.6317 14.1148 38.3376Z" fill="black"/>
<path d="M19.2902 35.7812C19.2902 36.4872 18.7108 37.0588 17.9963 37.0588C17.2825 37.0588 16.7031 36.4871 16.7031 35.7812C16.7031 35.0752 17.2826 34.5036 17.9963 34.5036C18.7108 34.5036 19.2902 35.0752 19.2902 35.7812Z" fill="black"/>
<path d="M38.6913 24.2803C39.0343 24.2846 39.3625 24.1451 39.5964 23.897L40.8895 22.6194C41.3901 22.1248 41.3901 21.3238 40.8895 20.8301C40.3898 20.3363 39.579 20.3363 39.0793 20.8301L37.7861 22.1077H37.7853C37.5358 22.3396 37.3938 22.6639 37.3938 23.0027C37.3938 23.3416 37.5358 23.665 37.7853 23.8969C38.0191 24.1451 38.3483 24.2846 38.6913 24.2803L38.6913 24.2803Z" fill="black"/>
<path d="M43.8644 26.8368C44.2074 26.8402 44.5365 26.7016 44.7695 26.4534L46.0635 25.175C46.5632 24.6812 46.5632 23.8803 46.0635 23.3865C45.5628 22.8919 44.7521 22.8919 44.2524 23.3865L42.9592 24.6641C42.7089 24.896 42.5669 25.2195 42.5669 25.5583C42.5669 25.8972 42.7089 26.2215 42.9592 26.4534C43.1922 26.7016 43.5214 26.8402 43.8643 26.8368L43.8644 26.8368Z" fill="black"/>
<path d="M78.7867 44.9819C78.8604 44.2613 78.6204 43.5434 78.1267 43.0069C77.6339 42.4712 76.9332 42.1666 76.1996 42.1708C76.1996 38.7813 74.8372 35.5312 72.4111 33.1344C69.9859 30.7383 66.6965 29.3915 63.2657 29.3915C62.3978 29.4018 61.5317 29.4874 60.6785 29.6474H60.4195H60.4204C59.3482 23.1414 55.3406 17.4705 49.5288 14.2334C43.7171 10.9972 36.7308 10.5452 30.5423 13.0063C24.353 15.4681 19.6326 20.5752 17.7115 26.8868H17.0645C16.188 27.0135 15.3227 27.2103 14.4774 27.4747L7.51883 2.8125C7.28843 2.0047 6.79734 1.29274 6.12089 0.786157C5.44357 0.278717 4.61817 0.00317863 3.76856 0.00146993C3.41865 -0.00879869 3.06961 0.0348424 2.73353 0.128972C1.76519 0.430185 0.952775 1.0925 0.470335 1.97476C-0.0129687 2.85785 -0.129024 3.89157 0.146409 4.85677L7.64885 31.9484C5.12934 34.7706 3.74863 38.409 3.76858 42.1717C2.33947 42.1717 1.18144 43.3158 1.18144 44.7268C1.32435 51.8508 3.61692 58.7693 7.76482 64.5975C11.9118 70.4256 17.7271 74.8978 24.4631 77.441V80.5079C24.4631 81.8633 25.0078 83.1631 25.9788 84.1215C26.9488 85.0808 28.2646 85.619 29.6364 85.619H50.3318C51.7037 85.619 53.0194 85.0808 53.9894 84.1215C54.9604 83.1631 55.5052 81.8632 55.5052 80.5079V77.4153C68.8531 71.997 78.7868 59.8063 78.7868 44.9829L78.7867 44.9819ZM63.2657 31.9476C66.0096 31.9476 68.6417 33.0249 70.5827 34.9417C72.5229 36.8594 73.6133 39.459 73.6133 42.1708H68.4391C67.0108 42.1708 65.8528 43.3149 65.8528 44.726V47.282C65.8528 47.9598 65.58 48.6101 65.0949 49.0893C64.6099 49.5685 63.9517 49.8381 63.2657 49.8381C62.8101 49.8329 62.364 49.7097 61.9725 49.4804C61.5802 49.2502 61.1341 49.127 60.6786 49.1218C60.223 49.127 59.7769 49.2502 59.3854 49.4804C58.5895 49.9339 58.0975 50.7699 58.0923 51.6778V54.9493C58.0923 56.3604 56.9334 57.5053 55.5052 57.5053C54.0769 57.5053 52.918 56.3604 52.918 54.9493V42.1709C52.9171 41.5881 52.9691 41.0062 53.0739 40.4329C53.0739 40.1514 53.203 39.8964 53.2809 39.6148H53.2801C53.3424 39.3384 53.4204 39.0655 53.5131 38.7968C53.6482 38.4391 53.8032 38.0891 53.979 37.7494C54.0457 37.5825 54.1237 37.4199 54.212 37.2633C54.4286 36.874 54.6702 36.4983 54.9361 36.1389C55.0045 36.0602 55.0652 35.9746 55.1171 35.883C55.4324 35.4988 55.7693 35.1317 56.1262 34.7843H56.2552C56.632 34.4275 57.0382 34.1023 57.4713 33.8131C57.8931 33.5444 58.334 33.3056 58.7904 33.0977H58.9714C59.395 32.9026 59.8367 32.7485 60.2905 32.6373L60.9886 32.4071L60.9895 32.408C61.7335 32.1906 62.4948 32.0366 63.2658 31.9476L63.2657 31.9476ZM38.6914 14.057C43.371 14.0442 47.8967 15.7069 51.4304 18.7378C54.9643 21.7688 57.2672 25.9625 57.9116 30.5416L57.1355 30.9506L56.4114 31.334H56.4106C55.2742 32.0263 54.2539 32.8889 53.3844 33.89L52.9184 34.5036C52.6283 34.8792 52.3598 35.2712 52.1164 35.6794C51.9873 35.8839 51.8574 36.0884 51.7543 36.2929C51.6513 36.4974 51.3663 37.0853 51.1853 37.4943L50.9263 38.184L50.9272 38.1832C50.7791 38.6273 50.6578 39.08 50.5643 39.5378L50.4092 40.177C50.3365 40.8393 50.3105 41.5051 50.3321 42.1708H34.8111V40.6374V40.1265C34.8111 39.7945 34.8111 39.4616 34.656 39.1553L34.6552 39.1544C34.6162 38.9474 34.5642 38.7428 34.5001 38.5417C34.4464 38.2654 34.3771 37.9924 34.2931 37.7237L33.9051 37.0588L33.6461 36.3434L33.336 35.6785C33.336 35.4483 33.129 35.2438 33 35.0136L32.638 34.5036C32.5089 34.2991 32.405 34.0946 32.2759 33.9157L31.8359 33.3022L31.4219 32.74L30.9048 32.1777C30.7636 31.9955 30.6078 31.8243 30.4388 31.666C30.2838 31.4872 30.0768 31.3083 29.8958 31.1295L29.3787 30.6691L28.8097 30.2087L28.2406 29.774L27.6196 29.365L27.0505 28.8807L26.4035 28.523L25.7305 28.2166L25.0576 27.9351L24.3595 27.6792L23.6614 27.449L22.9113 27.2702C22.6766 27.1923 22.4332 27.141 22.1872 27.117L21.3852 26.9895H20.4281C21.7308 23.2242 24.1915 19.9538 27.4645 17.6357C30.7385 15.3176 34.6629 14.0665 38.6913 14.0571L38.6914 14.057ZM9.79557 30.0564L2.50022 4.16741C2.3192 3.476 2.73408 2.77002 3.43131 2.58261H3.76823C4.35373 2.59117 4.86648 2.97368 5.03537 3.52818L12.0717 28.6263H11.9427C11.488 28.8745 11.0471 29.1483 10.6227 29.4444C10.3386 29.7259 10.0537 29.8534 9.79554 30.058L9.79557 30.0564ZM9.32958 34.0946L9.82067 33.5581C10.2277 33.1003 10.6695 32.6732 11.1407 32.2796H11.2957C12.4165 31.4025 13.6742 30.712 15.021 30.2353H15.15C15.8871 29.976 16.6502 29.7955 17.4263 29.6988C18.0369 29.5431 18.6605 29.4404 19.2893 29.3916C22.7193 29.3916 26.0097 30.7385 28.4348 33.1345C30.8607 35.5313 32.2233 38.7813 32.2233 42.1709V44.727V44.7261C32.2233 45.4038 31.9504 46.0542 31.4654 46.5334C30.9804 47.0126 30.3221 47.2821 29.6361 47.2821C29.1805 47.2779 28.7345 47.1538 28.343 46.9244C27.9515 46.6943 27.5055 46.571 27.0499 46.5668C26.5943 46.571 26.1482 46.6943 25.7559 46.9244C24.9608 47.378 24.4679 48.2149 24.4628 49.1219V49.8381C24.4628 51.2492 23.3047 52.3933 21.8756 52.3933C20.4474 52.3933 19.2894 51.2492 19.2894 49.8381V44.726C19.2894 44.0483 19.0165 43.3988 18.5315 42.9188C18.0464 42.4396 17.3882 42.1708 16.7022 42.1708H6.35454C6.35973 39.2179 7.41294 36.3597 9.32971 34.0946L9.32958 34.0946ZM52.9172 80.5077C52.9172 81.1854 52.6452 81.8349 52.1602 82.3149C51.6743 82.7941 51.0169 83.0629 50.3309 83.0629H29.6356C28.2073 83.0629 27.0493 81.9187 27.0493 80.5077V78.3864C29.0899 79.0649 31.1835 79.5775 33.3087 79.9198H34.0848C34.8868 79.9198 35.6889 80.15 36.5161 80.2261C37.3449 80.3032 38.8192 80.5077 39.9832 80.5077C41.1473 80.5077 42.3114 80.5077 43.4755 80.3545C44.2515 80.3545 45.0016 80.15 45.7777 80.0482H46.6568L46.6577 80.0473C48.7884 79.6588 50.8819 79.0949 52.9171 78.3607L52.9172 80.5077ZM53.6932 75.3965H53.4083L53.4091 75.3956C50.2373 76.6475 46.9009 77.4476 43.5014 77.7729C42.3373 77.7729 41.1732 77.9517 39.9832 77.9517C38.7932 77.9517 37.6291 77.9517 36.465 77.7729C33.0663 77.4417 29.7317 76.6416 26.5572 75.3956H26.2732C21.4279 73.5738 17.0219 70.7705 13.3383 67.1663C7.26761 61.2336 3.8257 53.1633 3.76761 44.7275H16.7015V49.8396C16.7015 51.6657 17.6881 53.3532 19.2887 54.2662C20.8893 55.1793 22.8614 55.1793 24.4621 54.2662C26.0627 53.3532 27.0492 51.6657 27.0492 49.8396V49.1491C27.2718 49.2646 27.5057 49.3587 27.7473 49.4306C27.497 49.3502 27.2545 49.2475 27.0232 49.1234C28.0738 49.7318 29.309 49.9535 30.5095 49.7498C31.71 49.547 32.7995 48.9317 33.586 48.0135C34.3724 47.0945 34.8055 45.9316 34.8098 44.7276H50.3309V54.9509C50.3309 56.777 51.3166 58.4644 52.9172 59.3775C54.5178 60.2905 56.4908 60.2905 58.0914 59.3775C59.6921 58.4644 60.6777 56.777 60.6777 54.9509V51.7052C60.9011 51.8207 61.135 51.9149 61.3766 51.9859C61.1263 51.9054 60.8838 51.8028 60.6517 51.6795C61.7032 52.2871 62.9375 52.5087 64.138 52.3059C65.3384 52.1031 66.428 51.4879 67.2145 50.5688C68.0018 49.6506 68.4348 48.4869 68.4383 47.2837V44.7277H76.0438C76.0638 44.821 76.0638 44.9168 76.0438 45.0092C76.0257 53.326 72.6339 61.2892 66.6281 67.1172C62.9496 70.7403 58.5436 73.5607 53.6933 75.3971L53.6932 75.3965Z" fill="black"/>
</svg>
