<svg width="289" height="315" viewBox="0 0 289 315" fill="none" xmlns="http://www.w3.org/2000/svg">
<path d="M46.5542 203.856C45.3662 201.554 42.5581 200.597 40.1979 201.693C39.0639 202.238 38.1967 203.21 37.787 204.394C37.3772 205.575 37.4598 206.869 38.0157 207.993C44.1973 220.561 52.7646 231.831 63.25 241.185C64.1649 241.915 65.302 242.312 66.4774 242.312C68.4247 242.287 70.1622 241.084 70.8516 239.277C71.544 237.473 71.0485 235.43 69.6064 234.133C59.9911 225.639 52.1576 215.35 46.5539 203.856L46.5542 203.856Z" fill="black"/>
<path d="M91.9956 249.65C88.711 248.079 85.5408 246.291 82.5072 244.289C80.3058 242.834 77.3325 243.426 75.865 245.605C74.4005 247.786 74.9946 250.733 77.1959 252.188C80.4201 254.256 83.7428 256.136 86.6843 257.924H86.6811C87.5992 258.456 88.6602 258.686 89.718 258.582C91.4619 258.607 93.0724 257.663 93.8919 256.136C94.5304 255.031 94.6892 253.718 94.3303 252.496C93.9713 251.272 93.1295 250.245 91.9955 249.65L91.9956 249.65Z" fill="black"/>
<path d="M51.7664 141.048C51.7664 143.642 49.6444 145.748 47.0238 145.748C44.4032 145.748 42.2812 143.642 42.2812 141.048C42.2812 138.45 44.4032 136.344 47.0238 136.344C49.6444 136.344 51.7664 138.45 51.7664 141.048Z" fill="black"/>
<path d="M70.7466 131.642C70.7466 134.239 68.6215 136.342 66.0009 136.342C63.3834 136.342 61.2583 134.239 61.2583 131.642C61.2583 129.045 63.3834 126.942 66.0009 126.942C68.6216 126.942 70.7466 129.045 70.7466 131.642Z" fill="black"/>
<path d="M141.902 89.3295C143.16 89.3452 144.363 88.832 145.221 87.919L149.964 83.2187C151.8 81.399 151.8 78.4522 149.964 76.6357C148.131 74.8191 145.157 74.8191 143.325 76.6357L138.582 81.336H138.579C137.664 82.1892 137.143 83.3824 137.143 84.629C137.143 85.8757 137.664 87.0658 138.579 87.919C139.437 88.8319 140.644 89.3451 141.901 89.3294L141.902 89.3295Z" fill="black"/>
<path d="M160.874 98.7349C162.132 98.7475 163.339 98.2375 164.193 97.3245L168.939 92.621C170.772 90.8045 170.772 87.8577 168.939 86.0411C167.103 84.2215 164.13 84.2215 162.297 86.0411L157.554 90.7415C156.636 91.5947 156.115 92.7847 156.115 94.0314C156.115 95.278 156.636 96.4713 157.554 97.3244C158.409 98.2374 159.616 98.7474 160.874 98.7349L160.874 98.7349Z" fill="black"/>
<path d="M141.902 117.538C143.16 117.554 144.363 117.04 145.221 116.127L149.964 111.427C151.8 109.607 151.8 106.661 149.964 104.844C148.131 103.028 145.157 103.028 143.325 104.844L138.582 109.544H138.579C137.664 110.398 137.143 111.591 137.143 112.837C137.143 114.084 137.664 115.274 138.579 116.127C139.437 117.04 140.644 117.554 141.901 117.538L141.902 117.538Z" fill="black"/>
<path d="M288.952 165.492C289.222 162.841 288.342 160.2 286.532 158.226C284.724 156.255 282.154 155.135 279.464 155.15C279.464 142.68 274.467 130.723 265.569 121.905C256.675 113.089 244.611 108.134 232.028 108.134C228.845 108.172 225.669 108.487 222.54 109.075H221.59H221.593C217.661 85.1393 202.963 64.2755 181.648 52.3659C160.333 40.4595 134.711 38.7969 112.015 47.8513C89.3151 56.9086 72.0029 75.6979 64.9574 98.919H62.5845C59.3698 99.385 56.1964 100.109 53.0961 101.082L27.5755 10.3474C26.7305 7.37547 24.9294 4.75611 22.4485 2.89234C19.9644 1.02543 16.9372 0.0116945 13.8213 0.005408C12.538 -0.0323712 11.2578 0.128188 10.0253 0.474499C6.47388 1.58269 3.49432 4.01942 1.72497 7.26532C-0.0475628 10.5143 -0.473197 14.3174 0.536958 17.8685L28.0523 117.541C18.812 127.924 13.7482 141.31 13.8214 155.153C8.58006 155.153 4.33297 159.363 4.33297 164.554C4.8571 190.764 13.2651 216.217 28.4776 237.66C43.6869 259.102 65.0146 275.556 89.7188 284.912V296.196C89.7188 301.182 91.7168 305.965 95.2777 309.491C98.8355 313.02 103.661 315 108.692 315H184.593C189.625 315 194.45 313.02 198.007 309.491C201.568 305.965 203.566 301.182 203.566 296.196V284.818C252.52 264.883 288.952 220.033 288.952 165.496L288.952 165.492ZM232.028 117.538C242.092 117.538 251.745 121.502 258.864 128.554C265.979 135.609 269.979 145.173 269.979 155.15H251.002C245.764 155.15 241.517 159.359 241.517 164.551V173.955C241.517 176.448 240.516 178.841 238.737 180.604C236.958 182.367 234.544 183.359 232.028 183.359C230.357 183.34 228.721 182.886 227.286 182.043C225.847 181.196 224.211 180.742 222.54 180.724C220.869 180.742 219.233 181.196 217.797 182.043C214.878 183.711 213.074 186.787 213.055 190.127V202.163C213.055 207.355 208.804 211.567 203.566 211.567C198.328 211.567 194.078 207.355 194.078 202.163V155.15C194.075 153.006 194.265 150.866 194.65 148.756C194.65 147.72 195.123 146.782 195.409 145.747H195.406C195.634 144.73 195.92 143.725 196.26 142.737C196.756 141.421 197.324 140.133 197.969 138.883C198.214 138.269 198.5 137.671 198.824 137.095C199.618 135.663 200.504 134.281 201.479 132.958C201.73 132.669 201.953 132.354 202.143 132.017C203.3 130.603 204.535 129.253 205.844 127.975H206.317C207.699 126.662 209.189 125.465 210.777 124.401C212.324 123.413 213.941 122.534 215.615 121.769H216.279C217.832 121.052 219.452 120.485 221.117 120.076L223.677 119.229L223.68 119.232C226.409 118.432 229.201 117.865 232.029 117.538L232.028 117.538ZM141.901 51.7171C159.064 51.6699 175.662 57.7869 188.622 68.938C201.583 80.0892 210.029 95.5184 212.392 112.365L209.546 113.87L206.89 115.281H206.887C202.719 117.828 198.977 121.001 195.788 124.684L194.079 126.942C193.015 128.324 192.031 129.766 191.138 131.268C190.665 132.02 190.188 132.772 189.81 133.525C189.432 134.277 188.387 136.44 187.723 137.945L186.773 140.482L186.777 140.479C186.233 142.113 185.789 143.779 185.446 145.463L184.877 147.815C184.61 150.252 184.515 152.701 184.594 155.15H127.67V149.509V147.629C127.67 146.408 127.67 145.183 127.102 144.056L127.099 144.053C126.956 143.291 126.765 142.538 126.53 141.799C126.333 140.782 126.079 139.777 125.771 138.789L124.348 136.343L123.398 133.711L122.261 131.264C122.261 130.417 121.501 129.665 121.028 128.818L119.7 126.942C119.227 126.189 118.846 125.437 118.373 124.779L116.759 122.522L115.24 120.453L113.344 118.385C112.826 117.714 112.255 117.085 111.635 116.502C111.066 115.844 110.307 115.186 109.643 114.528L107.747 112.834L105.66 111.141L103.573 109.541L101.295 108.036L99.2085 106.255L96.8355 104.939L94.3673 103.812L91.8991 102.776L89.3388 101.834L86.7785 100.987L84.0277 100.329C83.1668 100.043 82.2743 99.8541 81.3721 99.7659L78.4306 99.2968H74.9205C79.698 85.444 88.7229 73.4119 100.727 64.8833C112.734 56.3547 127.127 51.7519 141.901 51.7172L141.901 51.7171ZM35.9255 110.58L9.16962 15.3323C8.50572 12.7885 10.0273 10.1912 12.5844 9.50166H13.8201C15.9674 9.53314 17.8479 10.9405 18.4673 12.9805L44.2733 105.319H43.8C42.1323 106.232 40.5155 107.239 38.959 108.329C37.9171 109.364 36.872 109.833 35.9254 110.586L35.9255 110.58ZM34.2164 125.437L36.0175 123.463C37.5105 121.779 39.1305 120.208 40.8586 118.76H41.4272C45.5377 115.533 50.1504 112.992 55.0897 111.238H55.563C58.2663 110.285 61.0648 109.62 63.9113 109.265C66.1508 108.692 68.4379 108.314 70.744 108.134C83.3234 108.134 95.3913 113.09 104.285 121.905C113.182 130.723 118.18 142.68 118.18 155.151V164.554V164.551C118.18 167.045 117.179 169.437 115.4 171.2C113.621 172.963 111.207 173.955 108.691 173.955C107.02 173.939 105.384 173.483 103.949 172.639C102.513 171.792 100.877 171.339 99.206 171.323C97.5351 171.339 95.8992 171.792 94.4603 172.639C91.5442 174.308 89.7367 177.387 89.7177 180.724V183.359C89.7177 188.55 85.4706 192.759 80.2293 192.759C74.9911 192.759 70.7441 188.55 70.7441 183.359V164.551C70.7441 162.058 69.7435 159.668 67.9646 157.902C66.1857 156.139 63.7716 155.15 61.2557 155.15H23.3054C23.3245 144.286 27.1871 133.771 34.2169 125.437L34.2164 125.437ZM194.075 296.195C194.075 298.688 193.077 301.078 191.299 302.844C189.517 304.607 187.106 305.596 184.59 305.596H108.689C103.451 305.596 99.2039 301.386 99.2039 296.195V288.39C106.688 290.887 114.366 292.773 122.16 294.032H125.007C127.948 294.032 130.89 294.879 133.923 295.159C136.963 295.442 142.37 296.195 146.639 296.195C150.909 296.195 155.178 296.195 159.447 295.631C162.293 295.631 165.044 294.879 167.891 294.504H171.115L171.118 294.501C178.932 293.072 186.61 290.997 194.075 288.296L194.075 296.195ZM196.921 277.39H195.876L195.879 277.387C184.246 281.993 172.01 284.937 159.542 286.133C155.273 286.133 151.004 286.791 146.639 286.791C142.275 286.791 138.006 286.791 133.736 286.133C121.272 284.915 109.042 281.971 97.3993 277.387H96.3574C78.5874 270.685 62.4283 260.371 48.9187 247.111C26.6541 225.284 14.0308 195.592 13.8178 164.557H61.2533V183.364C61.2533 190.083 64.8713 196.291 70.7417 199.65C76.612 203.01 83.8447 203.01 89.7152 199.65C95.5857 196.291 99.2036 190.083 99.2036 183.364V180.824C100.02 181.249 100.878 181.595 101.764 181.86C100.846 181.564 99.9564 181.186 99.1083 180.729C102.961 182.968 107.492 183.783 111.894 183.034C116.297 182.288 120.293 180.024 123.177 176.646C126.062 173.265 127.65 168.986 127.666 164.557H184.59V202.169C184.59 208.887 188.205 215.096 194.075 218.455C199.945 221.814 207.181 221.814 213.052 218.455C218.922 215.096 222.537 208.888 222.537 202.169V190.228C223.356 190.653 224.214 190.999 225.1 191.261C224.182 190.965 223.293 190.587 222.441 190.134C226.298 192.369 230.825 193.184 235.227 192.438C239.63 191.692 243.626 189.428 246.51 186.047C249.398 182.669 250.986 178.387 250.999 173.961V164.557H278.892C278.966 164.9 278.966 165.253 278.892 165.593C278.826 196.191 266.386 225.488 244.36 246.93C230.869 260.26 214.71 270.636 196.921 277.393L196.921 277.39Z" fill="black"/>
</svg>
