<svg width="273" height="278" viewBox="0 0 273 278" fill="none" xmlns="http://www.w3.org/2000/svg">
<path d="M136.5 0C109.503 0 83.112 8.15221 60.6647 23.4257C38.2174 38.6992 20.7219 60.4081 10.3905 85.807C0.0591433 111.206 -2.64401 139.154 2.62287 166.118C7.88975 193.081 20.8901 217.848 39.98 237.288C59.0698 256.727 83.3918 269.966 109.87 275.329C136.349 280.692 163.794 277.94 188.736 267.419C213.678 256.899 234.997 239.083 249.996 216.224C264.994 193.366 273 166.492 273 139C273 120.746 269.469 102.671 262.61 85.807C255.75 68.9427 245.695 53.6195 233.02 40.7121C220.345 27.8048 205.297 17.5661 188.736 10.5807C172.175 3.59534 154.425 0 136.5 0ZM136.5 250.2C114.902 250.2 93.7896 243.678 75.8318 231.459C57.8739 219.241 43.8775 201.873 35.6124 181.554C27.3473 161.235 25.1848 138.877 29.3983 117.306C33.6118 95.7352 44.0121 75.9213 59.284 60.3697C74.5559 44.8181 94.0135 34.2273 115.196 29.9367C136.379 25.646 158.335 27.8481 178.289 36.2646C198.243 44.681 215.297 58.9338 227.296 77.2206C239.296 95.5073 245.7 117.007 245.7 139C245.7 168.492 234.195 196.776 213.716 217.63C193.237 238.484 165.462 250.2 136.5 250.2Z" fill="#DB4F2D"/>
<path d="M136.5 97.3C144.039 97.3 150.15 91.0767 150.15 83.4C150.15 75.7232 144.039 69.5 136.5 69.5C128.961 69.5 122.85 75.7232 122.85 83.4C122.85 91.0767 128.961 97.3 136.5 97.3Z" fill="#DB4F2D"/>
<path d="M136.5 111.2C132.88 111.2 129.408 112.664 126.848 115.271C124.288 117.878 122.85 121.413 122.85 125.1V194.6C122.85 198.286 124.288 201.822 126.848 204.429C129.408 207.035 132.88 208.5 136.5 208.5C140.12 208.5 143.592 207.035 146.152 204.429C148.712 201.822 150.15 198.286 150.15 194.6V125.1C150.15 121.413 148.712 117.878 146.152 115.271C143.592 112.664 140.12 111.2 136.5 111.2Z" fill="#DB4F2D"/>
</svg>
