<svg width="17" height="18" viewBox="0 0 18 20" fill="none" xmlns="http://www.w3.org/2000/svg">
<path d="M8.5 0.5C6.81886 0.5 5.17547 0.998516 3.77766 1.93251C2.37984 2.8665 1.29037 4.19402 0.647028 5.74719C0.00368291 7.30036 -0.164645 9.00943 0.163329 10.6583C0.491303 12.3071 1.30085 13.8217 2.4896 15.0104C3.67834 16.1992 5.1929 17.0087 6.84174 17.3367C8.49057 17.6646 10.1996 17.4963 11.7528 16.853C13.306 16.2096 14.6335 15.1202 15.5675 13.7223C16.5015 12.3245 17 10.6811 17 9C17 7.88376 16.7801 6.77846 16.353 5.74719C15.9258 4.71592 15.2997 3.77889 14.5104 2.98959C13.7211 2.20029 12.7841 1.57419 11.7528 1.14702C10.7215 0.719859 9.61624 0.5 8.5 0.5V0.5ZM8.5 15.8C7.15509 15.8 5.84038 15.4012 4.72213 14.654C3.60387 13.9068 2.7323 12.8448 2.21762 11.6022C1.70295 10.3597 1.56828 8.99245 1.83066 7.67338C2.09304 6.35431 2.74068 5.14267 3.69168 4.19167C4.64267 3.24068 5.85432 2.59304 7.17339 2.33066C8.49246 2.06828 9.85971 2.20294 11.1022 2.71762C12.3448 3.23229 13.4068 4.10387 14.154 5.22212C14.9012 6.34038 15.3 7.65509 15.3 9C15.3 10.8035 14.5836 12.5331 13.3083 13.8083C12.0331 15.0836 10.3035 15.8 8.5 15.8V15.8Z" fill="black" fill-opacity="0.3"/>
<path d="M8.4999 6.45C8.96934 6.45 9.3499 6.06944 9.3499 5.6C9.3499 5.13056 8.96934 4.75 8.4999 4.75C8.03046 4.75 7.6499 5.13056 7.6499 5.6C7.6499 6.06944 8.03046 6.45 8.4999 6.45Z" fill="black" fill-opacity="0.3"/>
<path d="M8.4999 7.2998C8.27447 7.2998 8.05827 7.38936 7.89886 7.54876C7.73946 7.70817 7.6499 7.92437 7.6499 8.1498V12.3998C7.6499 12.6252 7.73946 12.8414 7.89886 13.0008C8.05827 13.1603 8.27447 13.2498 8.4999 13.2498C8.72534 13.2498 8.94154 13.1603 9.10094 13.0008C9.26035 12.8414 9.3499 12.6252 9.3499 12.3998V8.1498C9.3499 7.92437 9.26035 7.70817 9.10094 7.54876C8.94154 7.38936 8.72534 7.2998 8.4999 7.2998Z" fill="black" fill-opacity="0.3"/>
</svg>
