<svg width="21" height="22" viewBox="0 0 21 22" fill="none" xmlns="http://www.w3.org/2000/svg">
<path d="M10.5 0C8.4233 0 6.39323 0.645139 4.66652 1.85383C2.9398 3.06253 1.59399 4.78049 0.799269 6.79048C0.00454948 8.80047 -0.203386 11.0122 0.201759 13.146C0.606904 15.2798 1.60693 17.2398 3.07538 18.7782C4.54383 20.3165 6.41476 21.3642 8.45156 21.7886C10.4884 22.2131 12.5996 21.9952 14.5182 21.1627C16.4368 20.3301 18.0767 18.9202 19.2304 17.1113C20.3842 15.3023 21 13.1756 21 11C21 9.55546 20.7284 8.12506 20.2007 6.79048C19.6731 5.4559 18.8996 4.24327 17.9246 3.22182C16.9496 2.20038 15.7921 1.39013 14.5182 0.837325C13.2443 0.284523 11.8789 0 10.5 0ZM10.5 19.8C8.83864 19.8 7.21459 19.2839 5.83321 18.3169C4.45184 17.35 3.37519 15.9756 2.73942 14.3676C2.10364 12.7596 1.93729 10.9902 2.26141 9.2832C2.58552 7.57617 3.38555 6.00816 4.56031 4.77746C5.73507 3.54676 7.2318 2.70864 8.86125 2.36909C10.4907 2.02954 12.1796 2.20381 13.7145 2.86986C15.2494 3.53591 16.5613 4.66383 17.4843 6.11098C18.4073 7.55813 18.9 9.25952 18.9 11C18.9 13.3339 18.015 15.5722 16.4397 17.2225C14.8644 18.8729 12.7278 19.8 10.5 19.8Z" fill="#DB4F2D"/>
<path d="M10.5 7.7C11.0798 7.7 11.55 7.20751 11.55 6.6C11.55 5.99249 11.0798 5.5 10.5 5.5C9.92005 5.5 9.44995 5.99249 9.44995 6.6C9.44995 7.20751 9.92005 7.7 10.5 7.7Z" fill="#DB4F2D"/>
<path d="M10.5 8.7998C10.2215 8.7998 9.9544 8.9157 9.75749 9.12199C9.56058 9.32828 9.44995 9.60807 9.44995 9.8998V15.3998C9.44995 15.6915 9.56058 15.9713 9.75749 16.1776C9.9544 16.3839 10.2215 16.4998 10.5 16.4998C10.7784 16.4998 11.0455 16.3839 11.2424 16.1776C11.4393 15.9713 11.55 15.6915 11.55 15.3998V9.8998C11.55 9.60807 11.4393 9.32828 11.2424 9.12199C11.0455 8.9157 10.7784 8.7998 10.5 8.7998Z" fill="#DB4F2D"/>
</svg>
