<svg width="90" height="99" viewBox="0 0 90 99" fill="none" xmlns="http://www.w3.org/2000/svg">
<path d="M72.2041 25.1735C73.7132 24.8707 75.0395 23.9818 75.8921 22.7014C76.7449 21.421 77.0541 19.8541 76.7514 18.3463L75.7265 13.2408C75.4579 11.9124 74.7273 10.7222 73.6641 9.88041C72.3295 8.79808 70.5828 8.36388 68.8962 8.69526L66.855 9.10473L65.8847 4.27127C65.6895 3.299 64.9904 2.50493 64.0508 2.188C63.1113 1.87108 62.0737 2.07923 61.3292 2.73396C60.5847 3.38871 60.2462 4.39096 60.4414 5.3632L61.4116 10.1966L59.3886 10.6025C57.8812 10.9074 56.5565 11.7973 55.7041 13.0769C54.8519 14.3566 54.5418 15.9223 54.8421 17.4302L55.867 22.5357C56.2503 24.4671 57.5891 26.071 59.4212 26.7945C60.4587 27.2061 61.5942 27.3062 62.6875 27.0825L64.7106 26.6767L65.3405 29.8146L63.3266 30.2186C61.8182 30.5212 60.4914 31.4109 59.6387 32.6913C58.786 33.9717 58.4772 35.5378 58.7799 37.0456L59.8031 42.1426C60.1058 43.6505 60.9952 44.9769 62.2761 45.8293C63.557 46.6817 65.1243 46.9902 66.6327 46.6876L68.6557 46.2818L69.2857 49.4197L67.2626 49.8255C65.7553 50.1304 64.4305 51.0204 63.5781 52.3C62.7258 53.5796 62.4157 55.1447 62.716 56.6526L63.7446 61.7769C64.0473 63.2848 64.9367 64.6113 66.2175 65.463C67.4984 66.3154 69.0658 66.6245 70.5742 66.3219L72.5972 65.9161L76.2802 84.2627C76.4754 85.235 77.1745 86.0291 78.1141 86.346C79.0536 86.6629 80.0912 86.4548 80.8357 85.8C81.5802 85.1453 81.9187 84.143 81.7235 83.1708L78.0371 64.8071L80.0783 64.3976C81.5798 64.0914 82.8994 63.2038 83.7482 61.9292C84.5975 60.6539 84.9077 59.0951 84.6111 57.5923L83.5824 52.4679C83.278 50.9642 82.3908 49.6424 81.1143 48.7897C79.8386 47.9375 78.2767 47.6247 76.7704 47.9193L74.7291 48.3287L74.0992 45.1908L76.1405 44.7813C77.6495 44.4786 78.9758 43.5896 79.8285 42.3093C80.6812 41.0289 80.9904 39.462 80.6877 37.9541L79.6646 32.8572C79.3619 31.3493 78.472 30.0236 77.1911 29.1713C75.9102 28.3188 74.3434 28.0096 72.8344 28.3123L70.7931 28.7218L70.1632 25.5838L72.2041 25.1735ZM71.84 23.3595L63.0129 25.1308L74.8458 18.2572L74.9369 18.7109L74.9368 18.7103C75.1404 19.7371 74.929 20.803 74.3487 21.6743C73.7684 22.5457 72.8663 23.1518 71.8401 23.3602L71.84 23.3595ZM62.2561 4.9998C62.1556 4.49878 62.4806 4.01159 62.9811 3.91117C63.4823 3.81063 63.9702 4.13478 64.0708 4.63579L65.0411 9.46924L63.2264 9.83325L62.2561 4.9998ZM59.7529 12.4171L69.2605 10.5099C69.8988 10.39 70.5565 10.4337 71.1735 10.6359L57.019 18.871L56.6549 17.057L56.655 17.0576C56.4541 16.0315 56.6667 14.9687 57.2473 14.099C57.8274 13.2296 58.7285 12.6251 59.7529 12.4171ZM57.4032 20.7846L72.9335 11.7447C73.4176 12.2673 73.7492 12.9115 73.8931 13.6092L74.4392 16.3299L59.7554 24.8885C58.6839 24.3485 57.9199 23.3475 57.6814 22.1723L57.4032 20.7846ZM61.3774 40.5817L76.994 31.496L76.9935 31.4967C77.4096 31.9926 77.6962 32.5826 77.8297 33.216L78.4141 36.1274L63.881 44.5902L63.8809 44.5896C62.7134 44.072 61.8699 43.0213 61.6162 41.7702L61.3774 40.5817ZM65.2442 59.844L80.705 50.8282C81.2445 51.3719 81.6131 52.0624 81.7639 52.8136L82.2791 55.3801L67.4583 64.0136L67.4584 64.0142C66.4818 63.4589 65.79 62.5124 65.5588 61.414L65.2442 59.844ZM79.9095 83.5353C80.0101 84.0364 79.6851 84.5235 79.1839 84.6241C78.6833 84.7245 78.1954 84.4004 78.0949 83.8994L74.4084 65.5356L76.2231 65.1716L79.9095 83.5353ZM79.7141 62.584L70.4064 64.4511L82.6597 57.2758L82.7964 57.9566C82.9938 58.9777 82.7815 60.0362 82.2045 60.9018C81.6276 61.7681 80.7333 62.3726 79.7141 62.584ZM78.8458 49.7961L64.8603 57.9316L64.5307 56.29C64.3271 55.2632 64.5386 54.198 65.1189 53.3266C65.6992 52.4553 66.6007 51.8493 67.627 51.6409L77.1346 49.7336C77.7026 49.626 78.2875 49.6471 78.8458 49.7961ZM72.96 48.6841L71.1454 49.0481L70.5161 45.9101L72.3307 45.546L72.96 48.6841ZM75.7764 42.9685L67.5209 44.6245L78.8203 38.0556L78.873 38.3186C79.0792 39.3455 78.8687 40.4123 78.2879 41.2844C77.7071 42.1565 76.8036 42.7624 75.7764 42.9685ZM75.3691 30.3142L61.002 38.6677L60.6039 36.6812C60.4004 35.655 60.6118 34.5892 61.1921 33.7178C61.7724 32.8465 62.6738 32.2405 63.7001 32.0321L73.1985 30.1267C73.9198 29.989 74.6656 30.0554 75.3508 30.3178L75.3691 30.3142ZM68.9969 29.0831L67.1823 29.4471L66.5528 26.3084L68.3675 25.9444L68.9969 29.0831ZM2.72173 24.2175C2.64809 23.8507 2.80279 23.4753 3.11362 23.267C3.42445 23.0588 3.83008 23.0583 4.14155 23.2655C4.45302 23.4728 4.60905 23.8471 4.53673 24.2141C4.46442 24.5811 4.17771 24.8686 3.81077 24.9422C3.30956 25.0428 2.82218 24.7179 2.72173 24.2175ZM47.5286 15.0877C46.1951 14.0235 44.4598 13.6022 42.7861 13.9347L40.7722 14.3387L39.8019 9.50522C39.6067 8.53295 38.9076 7.73888 37.9681 7.42195C37.0285 7.10503 35.9909 7.31318 35.2464 7.96791C34.502 8.62265 34.1634 9.62491 34.3586 10.5971L35.3289 15.4306L33.3059 15.8364C31.7985 16.1413 30.4737 17.0312 29.6208 18.311C28.7685 19.5907 28.4591 21.1562 28.7592 22.6641L29.7841 27.7697C30.1674 29.7011 31.5056 31.3051 33.3383 32.0285C34.3758 32.4401 35.5107 32.5403 36.6046 32.3165L38.6367 31.9088L39.2666 35.0468L37.2436 35.4526C35.7351 35.7552 34.4083 36.6449 33.5557 37.9253C32.703 39.2057 32.3942 40.7718 32.6969 42.2797L33.7201 47.3766C34.0228 48.8845 34.9122 50.2109 36.1931 51.0633C37.4739 51.9156 39.0412 52.2242 40.5496 51.9216L42.5727 51.5158L43.2026 54.6537L41.1796 55.0596C39.6722 55.3645 38.3474 56.2544 37.4945 57.5341C36.6422 58.8138 36.3326 60.3787 36.6327 61.8866L37.6614 67.011C37.9641 68.5189 38.8535 69.8453 40.1343 70.697C41.4151 71.5494 42.9826 71.8586 44.491 71.556L46.514 71.1502L50.197 89.4968C50.3922 90.469 51.0913 91.2631 52.0309 91.58C52.9704 91.897 54.008 91.6888 54.7525 91.0341C55.497 90.3793 55.8355 89.3771 55.6403 88.4048L51.9539 70.0411L53.9769 69.6353C55.4824 69.3333 56.8067 68.4473 57.6595 67.1706C58.5125 65.8946 58.8245 64.3323 58.5273 62.8264L57.4986 57.7021C57.1936 56.1953 56.3039 54.8709 55.0237 54.0189C53.743 53.1671 52.1773 52.857 50.6689 53.1571L48.6458 53.563L48.0159 50.425L50.0389 50.0192C51.5474 49.7166 52.8743 48.8275 53.727 47.5471C54.5796 46.2667 54.8883 44.7 54.5856 43.1921L53.5624 38.0952C53.2597 36.5873 52.3704 35.2615 51.0896 34.4091C49.8087 33.5568 48.2413 33.2476 46.7329 33.5502L44.7098 33.956L44.0799 30.8181L46.1029 30.4122C47.6114 30.1097 48.9383 29.2206 49.791 27.9402C50.6436 26.6598 50.9523 25.0931 50.6496 23.5852L49.6247 18.4797C49.3561 17.1513 48.6261 15.961 47.5629 15.1192L47.5286 15.0877ZM36.1733 10.2331C36.0727 9.73211 36.3971 9.24504 36.8983 9.1445C37.3994 9.04397 37.8867 9.36823 37.9873 9.86924L38.9576 14.7027L37.1436 15.0666L36.1733 10.2331ZM33.67 17.6504L43.1594 15.7468C43.7977 15.627 44.4555 15.6707 45.0724 15.8729L30.9355 24.1044L30.5714 22.2905L30.5715 22.2911C30.3706 21.265 30.5838 20.202 31.1644 19.3324C31.7445 18.463 32.645 17.8586 33.67 17.6504ZM31.3197 26.018L46.85 16.9781L46.8506 16.978C47.3348 17.5006 47.6663 18.1448 47.8102 18.8425L48.3563 21.5632L33.6725 30.1218C32.601 29.5818 31.8364 28.5809 31.5979 27.4058L31.3197 26.018ZM35.2886 45.7887L50.9293 36.7266C51.3449 37.2226 51.632 37.8125 51.7655 38.4459L52.35 41.3574L37.7999 49.8322C36.633 49.3145 35.7889 48.264 35.5351 47.0128L35.2886 45.7887ZM39.1554 65.051L54.6215 56.062C55.1617 56.6056 55.5297 57.2962 55.6811 58.0473L56.1963 60.6137L41.4132 69.2497C40.4217 68.7025 39.7156 67.7538 39.4753 66.6478L39.1554 65.051ZM53.826 88.7688C53.9266 89.2698 53.6022 89.7569 53.101 89.8574C52.5998 89.958 52.1125 89.6337 52.012 89.1327L48.3255 70.769L50.1402 70.405L53.826 88.7688ZM53.613 67.821L44.332 69.6827L56.5854 62.5075L56.7226 63.1881C56.921 64.2141 56.7053 65.2771 56.123 66.1449C55.5402 67.013 54.6386 67.6152 53.613 67.821ZM52.7629 55.0294L38.7768 63.165L38.4472 61.5235C38.2436 60.4967 38.4551 59.4314 39.0354 58.5601C39.6157 57.6887 40.5178 57.0826 41.5441 56.8742L51.0335 54.9706C51.607 54.8587 52.1981 54.8793 52.7629 55.0294ZM46.8772 53.9174L45.0176 54.2905L44.3876 51.1525L46.2023 50.7885L46.8772 53.9174ZM49.7208 48.1957L41.4653 49.8517L52.7192 43.2926L52.772 43.5555C52.9781 44.5825 52.7676 45.6493 52.1868 46.5214C51.606 47.3935 50.7025 47.9993 49.6753 48.2053L49.7208 48.1957ZM49.3135 35.5414L34.9464 43.8949L34.5478 41.9092C34.3443 40.883 34.5556 39.8171 35.1359 38.9458C35.7162 38.0744 36.6183 37.4683 37.6446 37.2599L47.0975 35.3637C47.8242 35.2217 48.5765 35.2862 49.2681 35.5511L49.3135 35.5414ZM42.8957 34.3194L41.0817 34.6833L40.4518 31.5454L42.2664 31.1814L42.8957 34.3194ZM45.7394 28.5983L36.9305 30.3654L48.7634 23.4918L48.8544 23.9455L48.8543 23.9448C49.0585 24.9747 48.8446 26.0436 48.2608 26.9163C47.677 27.789 46.7697 28.3942 45.7394 28.5983ZM21.4284 20.3241C20.0943 19.26 18.3596 18.8385 16.6858 19.171L14.6902 19.5714L13.7199 14.7379C13.5247 13.7656 12.8256 12.9716 11.886 12.6546C10.9465 12.3377 9.90887 12.5459 9.16439 13.2006C8.41991 13.8553 8.0814 14.8576 8.27657 15.8298L9.24687 20.6633L7.20562 21.0727C6.70442 21.1733 6.37957 21.6611 6.48014 22.1621C6.58072 22.6631 7.06858 22.9873 7.56977 22.8867L17.0774 20.9795C17.715 20.8598 18.3734 20.9033 18.9898 21.1057L4.8535 29.3371L4.68599 28.5027L4.68611 28.5033C4.58554 28.0023 4.09755 27.6775 3.59697 27.778C3.09576 27.8785 2.77091 28.3663 2.87148 28.8673L3.70171 33.003L3.70159 33.0024C4.08489 34.9339 5.42372 36.5378 7.25577 37.2613C8.29052 37.6715 9.42243 37.7724 10.5136 37.5509L12.5366 37.1451L13.1665 40.2831L11.1435 40.6889C9.63443 40.9916 8.30825 41.8812 7.4556 43.1616C6.60288 44.442 6.29351 46.0082 6.59621 47.5161L7.6194 52.613C7.9221 54.1209 8.81212 55.4472 10.093 56.2996C11.3739 57.152 12.9405 57.4606 14.4496 57.1579L16.4726 56.7521L17.1025 59.89L15.0795 60.2958C13.5721 60.6007 12.2467 61.4908 11.3944 62.7704C10.5422 64.0501 10.2319 65.6152 10.5322 67.123L11.5609 72.2474C11.8679 73.7513 12.7587 75.0723 14.0381 75.9206C15.3183 76.7693 16.8821 77.076 18.3874 76.774L20.4105 76.3682L24.0969 94.7319C24.2921 95.7042 24.9912 96.4983 25.9307 96.8152C26.8703 97.1321 27.9079 96.924 28.6524 96.2693C29.3969 95.6145 29.7354 94.6123 29.5402 93.64L25.8538 75.2763L27.8768 74.8705C29.3862 74.5727 30.7159 73.6875 31.5724 72.4102C32.4293 71.1321 32.7434 69.5668 32.4455 68.0579L31.4168 62.9336C31.1118 61.4268 30.2215 60.1025 28.9415 59.2505C27.6614 58.3985 26.0957 58.0884 24.5872 58.3886L22.5642 58.7944L21.9343 55.6565L23.9573 55.2507C25.4658 54.9481 26.7927 54.059 27.6453 52.7786C28.4981 51.4982 28.8067 49.9315 28.504 48.4236L27.4808 43.3266C27.1781 41.8187 26.2888 40.4929 25.0079 39.6406C23.7271 38.7882 22.1597 38.479 20.6512 38.7816L18.6282 39.1875L17.9983 36.0495L20.0213 35.6437C21.5298 35.3411 22.8567 34.452 23.7093 33.1716C24.562 31.8912 24.8707 30.3245 24.568 28.8166L23.5431 23.7111C23.2745 22.3827 22.5439 21.1926 21.4813 20.3507L21.4284 20.3241ZM10.0724 15.4696C9.97182 14.9686 10.2968 14.4814 10.798 14.3808C11.2992 14.2803 11.7865 14.6046 11.887 15.1056L12.8573 19.939L11.0427 20.303L10.0724 15.4696ZM5.23764 31.2507L20.768 22.2108C21.2521 22.7334 21.5837 23.3776 21.7275 24.0753L22.2737 26.796L7.5899 35.3546C6.51898 34.8145 5.75434 33.8136 5.51591 32.6385L5.23764 31.2507ZM9.20652 51.0214L24.8231 41.9357C25.2387 42.4316 25.526 43.0222 25.6587 43.6551L26.2432 46.5665L11.71 55.0293L11.7099 55.0287C10.543 54.511 9.69893 53.4604 9.44517 52.2093L9.20652 51.0214ZM13.0733 70.2837L28.5395 61.2946C29.0796 61.8383 29.4476 62.5288 29.5985 63.2801L30.1137 65.8465L15.2928 74.48L15.293 74.4806C14.3169 73.9253 13.6251 72.9788 13.3933 71.8804L13.0733 70.2837ZM27.744 94.0015C27.8445 94.5025 27.5195 94.9897 27.019 95.0901C26.5178 95.1906 26.0299 94.8665 25.9293 94.3655L22.2429 76.0018L24.0575 75.6378L27.744 94.0015ZM27.531 73.0536L18.241 74.9172L30.4943 67.7419L30.631 68.4227C30.8296 69.4467 30.6148 70.5082 30.0344 71.3758C29.4539 72.2428 28.5542 72.8459 27.531 73.0536ZM26.6808 60.2621L12.6947 68.3977L12.3652 66.7561C12.1623 65.733 12.3717 64.67 12.9479 63.8001C13.5247 62.9301 14.4215 62.3232 15.4437 62.1105L24.9513 60.2033C25.5248 60.0914 26.1161 60.1119 26.6808 60.2621ZM20.7495 59.1593L18.9349 59.5233L18.305 56.3853L20.1196 56.0213L20.7495 59.1593ZM23.5932 53.4375L15.3377 55.0935L26.637 48.5246L26.6898 48.7876L26.6893 48.7883C26.8955 49.8153 26.6856 50.882 26.1048 51.7541C25.524 52.6262 24.6205 53.2319 23.5933 53.438L23.5932 53.4375ZM23.1859 40.7832L8.8188 49.1368L8.42017 47.151C8.21693 46.126 8.42745 45.0623 9.00593 44.1913C9.58451 43.3209 10.4834 42.7142 11.5079 42.5036L21.0155 40.5964C21.7422 40.4544 22.494 40.519 23.1862 40.7839L23.1859 40.7832ZM16.8137 39.5521L14.999 39.9161L14.3691 36.7782L16.1837 36.4142L16.8137 39.5521ZM19.6574 33.831L10.8484 35.598L22.6813 28.7245L22.7724 29.1781L22.7717 29.1776C22.9759 30.2075 22.7626 31.2763 22.1787 32.149C21.5943 33.0218 20.6876 33.6268 19.6574 33.831Z" fill="black"/>
</svg>
