<svg width="382" height="420" viewBox="0 0 382 420" fill="none" xmlns="http://www.w3.org/2000/svg">
<path d="M306.466 106.796C312.872 105.512 318.501 101.741 322.12 96.3089C325.739 90.8769 327.052 84.2297 325.767 77.8327L321.417 56.1729C320.277 50.5373 317.176 45.4882 312.663 41.9169C306.999 37.3252 299.585 35.4831 292.426 36.889L283.762 38.6261L279.644 18.1206C278.815 13.9958 275.848 10.627 271.86 9.28245C267.872 7.93792 263.468 8.82097 260.308 11.5986C257.148 14.3763 255.712 18.6283 256.54 22.753L260.658 43.2585L252.072 44.9802C245.674 46.2737 240.051 50.0491 236.433 55.4778C232.816 60.9067 231.5 67.5491 232.774 73.9461L237.124 95.6059C238.751 103.8 244.434 110.604 252.21 113.674C256.614 115.42 261.433 115.845 266.074 114.895L274.66 113.174L277.334 126.486L268.786 128.2C262.384 129.484 256.752 133.258 253.133 138.69C249.514 144.122 248.203 150.766 249.488 157.163L253.831 178.787C255.116 185.184 258.891 190.811 264.327 194.427C269.764 198.043 276.416 199.352 282.819 198.069L291.405 196.347L294.079 209.659L285.492 211.381C279.095 212.675 273.472 216.45 269.854 221.879C266.236 227.307 264.92 233.947 266.194 240.344L270.561 262.084C271.845 268.481 275.62 274.108 281.056 277.722C286.493 281.338 293.146 282.649 299.548 281.366L308.135 279.644L323.767 357.478C324.596 361.603 327.563 364.972 331.551 366.316C335.539 367.661 339.943 366.778 343.103 364C346.263 361.222 347.699 356.97 346.871 352.846L331.224 274.939L339.888 273.202C346.261 271.903 351.862 268.137 355.464 262.73C359.069 257.32 360.386 250.706 359.127 244.331L354.761 222.591C353.469 216.212 349.703 210.604 344.285 206.986C338.87 203.371 332.241 202.044 325.848 203.294L317.184 205.031L314.51 191.719L323.174 189.981C329.579 188.697 335.209 184.926 338.828 179.494C342.447 174.062 343.759 167.415 342.475 161.018L338.132 139.394C336.847 132.997 333.07 127.373 327.633 123.757C322.197 120.141 315.547 118.829 309.141 120.113L300.478 121.85L297.804 108.537L306.466 106.796ZM304.921 99.1008L267.455 106.616L317.679 77.455L318.065 79.3796L318.065 79.377C318.929 83.7332 318.032 88.255 315.569 91.9517C313.106 95.6483 309.277 98.2197 304.921 99.1038L304.921 99.1008ZM264.243 21.2113C263.816 19.0857 265.195 17.0189 267.32 16.5929C269.447 16.1663 271.518 17.5415 271.945 19.667L276.063 40.1725L268.361 41.7168L264.243 21.2113ZM253.618 52.6785L293.972 44.5873C296.681 44.0789 299.473 44.2642 302.092 45.1221L242.014 80.0587L240.469 72.3631L240.469 72.3656C239.616 68.0125 240.519 63.5035 242.983 59.8141C245.445 56.1258 249.27 53.5605 253.618 52.678L253.618 52.6785ZM243.645 88.177L309.562 49.8258C311.617 52.043 313.024 54.7761 313.635 57.736L315.953 69.2782L253.629 105.587C249.081 103.297 245.838 99.0499 244.826 94.0645L243.645 88.177ZM260.513 172.165L326.797 133.619L326.795 133.622C328.561 135.726 329.777 138.229 330.344 140.916L332.825 153.268L271.139 189.17L271.139 189.168C266.183 186.972 262.603 182.515 261.526 177.207L260.513 172.165ZM276.925 253.884L342.548 215.635C344.838 217.942 346.402 220.871 347.042 224.058L349.229 234.946L286.323 271.573L286.324 271.575C282.178 269.22 279.242 265.204 278.261 260.544L276.925 253.884ZM339.171 354.392C339.598 356.518 338.219 358.585 336.092 359.011C333.967 359.437 331.896 358.062 331.469 355.937L315.823 278.03L323.525 276.486L339.171 354.392ZM338.342 265.508L298.836 273.429L350.845 242.988L351.425 245.877C352.262 250.209 351.362 254.699 348.913 258.371C346.464 262.046 342.668 264.611 338.342 265.508ZM334.656 211.256L275.296 245.77L273.897 238.806C273.033 234.45 273.931 229.931 276.394 226.234C278.857 222.537 282.683 219.967 287.039 219.082L327.393 210.991C329.804 210.535 332.287 210.624 334.657 211.256L334.656 211.256ZM309.675 206.539L301.973 208.083L299.302 194.77L307.004 193.226L309.675 206.539ZM321.629 182.29L286.589 189.316L334.548 161.448L334.772 162.564C335.647 166.92 334.754 171.446 332.289 175.146C329.824 178.846 325.989 181.416 321.629 182.29ZM319.9 128.606L258.92 164.045L257.23 155.617C256.366 151.264 257.263 146.742 259.726 143.045C262.189 139.349 266.016 136.778 270.372 135.894L310.687 127.81C313.748 127.226 316.914 127.508 319.822 128.621L319.9 128.606ZM292.854 123.383L285.151 124.927L282.48 111.611L290.182 110.067L292.854 123.383ZM11.5522 102.741C11.2397 101.185 11.8963 99.5923 13.2156 98.7087C14.5349 97.8251 16.2566 97.8229 17.5786 98.7023C18.9006 99.5816 19.5628 101.169 19.2559 102.727C18.949 104.284 17.7321 105.503 16.1746 105.815C14.0473 106.242 11.9786 104.864 11.5522 102.741ZM201.733 64.0086C196.073 59.4937 188.707 57.7062 181.603 59.1169L173.055 60.8307L168.937 40.3252C168.109 36.2004 165.141 32.8316 161.153 31.4871C157.166 30.1426 152.761 31.0256 149.602 33.8033C146.442 36.581 145.005 40.8329 145.833 44.9576L149.952 65.4632L141.365 67.1848C134.967 68.4783 129.344 72.2537 125.724 77.6829C122.106 83.1119 120.793 89.7537 122.067 96.1509L126.417 117.811C128.044 126.005 133.724 132.81 141.502 135.878C145.906 137.625 150.723 138.05 155.366 137.1L163.991 135.371L166.665 148.683L158.078 150.405C151.676 151.689 146.044 155.463 142.425 160.895C138.806 166.327 137.495 172.971 138.78 179.368L143.123 200.992C144.408 207.389 148.183 213.016 153.619 216.632C159.056 220.248 165.708 221.557 172.111 220.274L180.697 218.552L183.371 231.864L174.784 233.586C168.386 234.88 162.764 238.655 159.143 244.084C155.526 249.513 154.212 256.152 155.486 262.549L159.852 284.289C161.137 290.686 164.912 296.313 170.348 299.927C175.784 303.543 182.437 304.855 188.839 303.571L197.426 301.849L213.058 379.683C213.887 383.808 216.854 387.177 220.842 388.521C224.83 389.866 229.234 388.983 232.394 386.205C235.554 383.427 236.991 379.175 236.162 375.051L220.515 297.144L229.102 295.423C235.492 294.141 241.113 290.382 244.733 284.966C248.353 279.553 249.678 272.925 248.416 266.536L244.05 244.797C242.755 238.404 238.979 232.786 233.545 229.171C228.109 225.557 221.464 224.242 215.061 225.515L206.475 227.237L203.801 213.924L212.388 212.203C218.79 210.919 224.422 207.147 228.041 201.715C231.66 196.283 232.97 189.636 231.686 183.239L227.343 161.616C226.058 155.219 222.283 149.594 216.847 145.978C211.41 142.362 204.757 141.05 198.355 142.334L189.768 144.056L187.095 130.743L195.681 129.022C202.084 127.738 207.716 123.966 211.335 118.534C214.954 113.102 216.264 106.455 214.979 100.058L210.629 78.3986C209.489 72.763 206.391 67.7134 201.878 64.142L201.733 64.0086ZM153.535 43.4133C153.108 41.2877 154.485 39.2214 156.613 38.7949C158.74 38.3683 160.808 39.744 161.235 41.8695L165.353 62.3751L157.654 63.9188L153.535 43.4133ZM142.91 74.8805L183.188 66.8048C185.897 66.2964 188.689 66.4817 191.307 67.3396L131.304 102.261L129.759 94.5656L129.759 94.5682C128.906 90.2151 129.811 85.7055 132.276 82.0161C134.738 78.3278 138.56 75.7631 142.91 74.88L142.91 74.8805ZM132.935 110.38L198.852 72.0284L198.855 72.0279C200.91 74.2451 202.317 76.9781 202.928 79.938L205.246 91.4802L142.921 127.789C138.373 125.499 135.128 121.252 134.116 116.267L132.935 110.38ZM149.78 194.255L216.167 155.81C217.93 157.914 219.149 160.417 219.716 163.104L222.197 175.455L160.439 211.409C155.487 209.213 151.904 204.756 150.827 199.448L149.78 194.255ZM166.193 275.974L231.838 237.839C234.131 240.145 235.693 243.075 236.335 246.261L238.522 257.149L175.776 293.787C171.568 291.465 168.571 287.44 167.551 282.748L166.193 275.974ZM228.461 376.595C228.888 378.72 227.512 380.787 225.384 381.213C223.257 381.64 221.189 380.264 220.762 378.139L205.115 300.232L212.817 298.688L228.461 376.595ZM227.558 287.725L188.165 295.624L240.173 265.183L240.756 268.071C241.598 272.423 240.682 276.933 238.211 280.615C235.737 284.297 231.91 286.853 227.558 287.725ZM223.949 233.458L164.586 267.973L163.187 261.009C162.323 256.652 163.221 252.133 165.684 248.437C168.147 244.74 171.976 242.169 176.332 241.284L216.609 233.209C219.043 232.734 221.552 232.821 223.949 233.458L223.949 233.458ZM198.967 228.741L191.075 230.323L188.401 217.011L196.103 215.466L198.967 228.741ZM211.037 204.467L175.997 211.492L223.764 183.666L223.988 184.781C224.863 189.138 223.969 193.664 221.504 197.364C219.039 201.063 215.204 203.633 210.844 204.507L211.037 204.467ZM209.308 150.782L148.328 186.221L146.636 177.797C145.772 173.443 146.67 168.921 149.133 165.224C151.596 161.528 155.425 158.956 159.781 158.072L199.903 150.028C202.987 149.425 206.18 149.699 209.116 150.823L209.308 150.782ZM182.068 145.598L174.369 147.141L171.695 133.829L179.397 132.285L182.068 145.598ZM194.139 121.326L156.749 128.823L206.973 99.6622L207.36 101.587L207.359 101.584C208.226 105.953 207.318 110.488 204.84 114.19C202.362 117.893 198.511 120.46 194.139 121.326ZM90.9516 86.2233C85.2891 81.7089 77.9263 79.9209 70.8222 81.3316L62.3516 83.03L58.2333 62.5244C57.4049 58.3996 54.4375 55.0309 50.4497 53.6863C46.4618 52.3418 42.0576 53.2248 38.8978 56.0025C35.7378 58.7802 34.3011 63.0322 35.1295 67.1568L39.2478 87.6624L30.5839 89.3995C28.4565 89.8261 27.0777 91.8956 27.5046 94.021C27.9315 96.1466 30.0022 97.5217 32.1295 97.0952L72.4839 89.0039C75.1904 88.4961 77.985 88.6809 80.601 89.5393L20.6004 124.46L19.8894 120.92L19.8899 120.923C19.4631 118.798 17.3918 117.42 15.2671 117.846C13.1398 118.272 11.761 120.342 12.1879 122.467L15.7117 140.013L15.7112 140.01C17.3381 148.204 23.0207 155.009 30.7967 158.078C35.1886 159.819 39.993 160.246 44.6242 159.307L53.2109 157.585L55.8846 170.898L47.2979 172.62C40.8928 173.904 35.2639 177.678 31.6449 183.11C28.0256 188.542 26.7124 195.186 27.9972 201.583L32.3401 223.207C33.6249 229.604 37.4025 235.231 42.8392 238.847C48.2757 242.463 54.9254 243.772 61.3304 242.488L69.9171 240.766L72.5908 254.079L64.0041 255.801C57.6062 257.094 51.9806 260.87 48.3629 266.299C44.7457 271.728 43.4289 278.367 44.7034 284.764L49.0696 306.504C50.3725 312.884 54.1536 318.489 59.584 322.087C65.0175 325.688 71.6552 326.989 78.0444 325.708L86.6311 323.986L102.278 401.893C103.106 406.018 106.074 409.387 110.062 410.731C114.049 412.076 118.454 411.193 121.613 408.415C124.773 405.637 126.21 401.385 125.382 397.261L109.735 319.354L118.322 317.632C124.728 316.369 130.372 312.614 134.007 307.195C137.645 301.772 138.977 295.132 137.713 288.731L133.347 266.991C132.052 260.599 128.274 254.98 122.84 251.366C117.407 247.751 110.762 246.436 104.359 247.709L95.7725 249.431L93.0988 236.118L101.686 234.397C108.088 233.113 113.72 229.341 117.339 223.909C120.958 218.477 122.268 211.831 120.984 205.433L116.641 183.81C115.356 177.413 111.581 171.788 106.145 168.172C100.708 164.556 94.0554 163.244 87.653 164.528L79.0663 166.25L76.3927 152.937L84.9794 151.216C91.3819 149.932 97.0139 146.16 100.633 140.728C104.252 135.296 105.562 128.649 104.277 122.252L99.9272 100.593C98.7873 94.9571 95.6864 89.908 91.1761 86.3361L90.9516 86.2233ZM42.7517 65.6285C42.3248 63.503 43.7043 61.4361 45.8315 61.0096C47.9589 60.5831 50.027 61.9588 50.4538 64.0842L54.5722 84.5898L46.87 86.1341L42.7517 65.6285ZM22.2309 132.579L88.1486 94.2276C90.2034 96.4448 91.6106 99.1779 92.2212 102.138L94.5393 113.68L32.2149 149.989C27.6694 147.698 24.424 143.452 23.412 138.466L22.2309 132.579ZM39.0765 216.454L105.36 177.909C107.124 180.013 108.344 182.518 108.907 185.204L111.388 197.555L49.7025 233.457L49.702 233.455C44.7492 231.259 41.1666 226.802 40.0895 221.494L39.0765 216.454ZM55.489 298.173L121.134 260.038C123.427 262.344 124.989 265.274 125.629 268.461L127.816 279.349L64.9096 315.976L64.9102 315.978C60.7674 313.622 57.8312 309.607 56.8471 304.947L55.489 298.173ZM117.758 398.794C118.185 400.92 116.805 402.987 114.68 403.413C112.553 403.839 110.482 402.464 110.056 400.338L94.4088 322.432L102.111 320.887L117.758 398.794ZM116.854 309.925L77.4229 317.831L129.431 287.39L130.011 290.278C130.854 294.622 129.943 299.126 127.479 302.807C125.015 306.485 121.197 309.043 116.854 309.925ZM113.245 255.657L53.8821 290.172L52.4834 283.208C51.6223 278.867 52.5111 274.358 54.9566 270.667C57.4047 266.976 61.2113 264.401 65.5499 263.499L105.904 255.408C108.339 254.933 110.848 255.02 113.245 255.657L113.245 255.657ZM88.0703 250.979L80.3681 252.523L77.6944 239.211L85.3966 237.666L88.0703 250.979ZM100.14 226.705L65.0999 233.73L113.059 205.862L113.283 206.978L113.281 206.981C114.156 211.337 113.265 215.863 110.8 219.563C108.335 223.262 104.5 225.832 100.14 226.707L100.14 226.705ZM98.4111 173.02L37.4309 208.459L35.7389 200.035C34.8763 195.686 35.7698 191.173 38.2252 187.478C40.6809 183.786 44.4962 181.212 48.8448 180.318L89.1993 172.227C92.2838 171.625 95.4745 171.899 98.4123 173.023L98.4111 173.02ZM71.3647 167.797L63.6625 169.341L60.9888 156.029L68.691 154.484L71.3647 167.797ZM83.4348 143.525L46.0455 151.022L96.2696 121.861L96.6561 123.786L96.653 123.784C97.5198 128.153 96.6144 132.687 94.1365 136.39C91.6559 140.092 87.8074 142.659 83.4348 143.525Z" fill="black"/>
</svg>
