<svg width="275" height="263" viewBox="0 0 275 263" fill="none" xmlns="http://www.w3.org/2000/svg">
<path d="M113.064 61.5593C101.827 61.5593 93.9827 58.6743 89.6752 52.9495C85.0224 46.7375 84.921 37.9058 89.4119 26.6784C94.2869 14.4962 105.85 0 133.242 0C146.633 0 165.367 8.42657 174.146 32.1596C177.316 40.7672 177.072 47.8133 173.395 53.1328C168.049 60.8671 157.952 61.1928 156.814 61.2121H120.46C117.859 61.4364 115.401 61.5593 113.064 61.5593L113.064 61.5593ZM133.262 10.1515C115.585 10.1515 104.326 16.7902 98.8599 30.454C96.7471 35.7539 94.8373 42.8802 97.8046 46.8584C100.668 50.677 108.431 52.1583 119.728 51.0823C119.892 51.0608 120.054 51.0629 120.216 51.0629H156.774C158.338 51.0219 163.073 50.291 165.063 47.3456C167.137 44.3011 165.956 39.327 164.616 35.6723C157.667 16.8315 143.383 10.1519 133.262 10.1519V10.1515Z" fill="black"/>
<path d="M153.808 263C152.021 263 150.211 262.696 148.424 262.086C136.617 258.067 129.181 242.596 126.539 236.14C118.859 217.382 117.944 96.2955 117.944 95.0977C117.944 77.4343 104.49 59.5682 104.35 59.385C102.663 57.1533 103.09 53.9643 105.304 52.2804C107.54 50.5749 110.71 51.0018 112.417 53.2334C113.047 54.0657 128.084 73.9632 128.084 95.098C128.084 123.562 130.441 218.924 135.927 232.304C140.215 242.76 146.412 250.699 151.695 252.506C153.523 253.135 155.129 252.974 156.776 252.019C167.443 245.867 175.611 236.731 163.338 211.78C149.276 183.194 128.104 89.1296 148.547 53.6205C149.948 51.184 153.057 50.3517 155.477 51.7532C157.915 53.1548 158.746 56.2403 157.346 58.6768C140.541 87.8717 157.182 176.271 172.443 207.309C184.675 232.159 181.201 249.661 161.856 260.828C159.316 262.268 156.592 262.999 153.809 262.999L153.808 263Z" fill="black"/>
<path d="M245.589 80.5255C239.981 80.5255 234.454 80.1589 229.944 79.732C223.319 79.5293 192.594 77.703 190.501 61.5425C189.262 52.0186 192.026 42.5984 198.08 35.7158C205.762 26.9878 218.035 22.5609 234.536 22.5609C253.473 22.5609 263.411 31.9617 268.408 39.8385C275.947 51.7365 276.13 66.2106 273.365 72.0776C270.217 78.7793 257.741 80.5257 245.589 80.5257L245.589 80.5255ZM234.555 32.6906C221.104 32.6906 211.412 35.9594 205.743 42.3956C199.89 49.0558 200.192 57.075 200.6 60.2208C201.25 65.236 216.836 69.1756 230.429 69.5808C230.533 69.5808 230.653 69.5808 230.755 69.6023C245.935 71.0642 261.926 70.0486 264.345 67.5108C265.362 65.277 265.787 54.6192 259.854 45.2593C254.55 36.9149 246.036 32.6906 234.555 32.6906L234.555 32.6906Z" fill="black"/>
<path d="M169.106 217.136C168.131 217.136 167.155 216.851 166.301 216.282C163.966 214.738 163.336 211.573 164.9 209.257C165.185 208.83 193.693 165.829 205.215 128.049C216.107 92.3578 204.119 74.6944 203.59 73.9635C201.984 71.6909 202.513 68.5235 204.788 66.8998C207.064 65.2741 210.194 65.7829 211.84 68.0146C212.49 68.8878 227.426 90.085 214.929 130.996C202.96 170.219 174.551 213.059 173.354 214.864C172.357 216.345 170.753 217.139 169.107 217.139L169.106 217.136Z" fill="black"/>
<path d="M186.807 262.327C176.261 262.327 170.488 249.659 169.86 248.156C168.74 245.577 169.94 242.593 172.521 241.498C175.102 240.381 178.069 241.58 179.187 244.137C180.486 247.08 184.103 252.46 187.111 252.156C189.202 251.953 200.28 248.035 213.427 190.152C223.242 146.948 227.122 127.032 229.437 115.154C232.607 98.8509 232.81 97.8761 241.162 73.6556C242.077 70.9949 244.982 69.5955 247.625 70.5076C250.267 71.4218 251.687 74.3046 250.774 76.9652C242.644 100.515 242.523 101.126 239.416 117.083C237.078 129.042 233.196 149.04 223.34 192.385C209.503 253.373 196.558 261.471 188.045 262.244C187.618 262.304 187.212 262.324 186.806 262.324L186.807 262.327Z" fill="black"/>
<path d="M129.323 260.455C128.389 260.455 127.534 260.395 126.783 260.294C92.4617 252.559 87.9707 236.884 79.8435 208.42C78.4213 203.446 76.8761 198.025 75.0073 192.076C63.3431 154.904 41.7021 138.864 41.4993 138.702C39.2442 137.057 38.7154 133.89 40.362 131.617C42.0065 129.342 45.1572 128.836 47.4341 130.459C48.429 131.171 71.9607 148.407 84.6993 189.03C86.5898 195.061 88.176 200.583 89.6175 205.618C97.6023 233.534 100.591 243.969 128.611 250.302C128.592 250.283 128.814 250.302 129.201 250.302C130.644 250.302 134.343 250.059 135.847 247.318C137.187 244.862 140.297 243.97 142.736 245.328C145.194 246.669 146.087 249.755 144.747 252.213C141.13 258.729 134.201 260.454 129.324 260.454L129.323 260.455Z" fill="black"/>
<path d="M127.042 211.406C124.664 211.406 122.551 209.742 122.063 207.325C120.093 197.356 105.91 178.883 90.9139 159.33L86.177 153.159C67.564 128.794 69.4539 115.984 69.739 114.604C70.2871 111.861 72.9696 110.076 75.7122 110.624C78.4141 111.171 80.1815 113.75 79.7348 116.431C79.696 116.918 78.9644 126.968 94.2651 146.986L98.9805 153.138C115.399 174.557 129.601 193.053 132.04 205.336C132.59 208.077 130.801 210.757 128.056 211.304C127.691 211.365 127.366 211.406 127.042 211.406L127.042 211.406Z" fill="black"/>
<path d="M29.3664 142.016C24.7137 142.016 19.858 141.266 15.8957 138.991C9.06786 135.054 1.30522 122.77 0.14615 109.025C-0.58542 100.376 1.08274 87.9521 13.1937 77.9628C37.1307 58.1671 58.1199 65.9832 73.749 74.9787C79.8046 78.4696 83.5641 84.5197 84.6193 92.4396C85.9616 102.61 82.3231 115.176 78.3002 119.198C74.1546 123.34 51.4776 136.413 46.9673 139.013C46.6415 139.196 46.3177 139.337 45.9509 139.459C44.7316 139.804 37.3551 142.017 29.3682 142.017L29.3664 142.016ZM44.4448 134.586H44.4858H44.4448ZM44.2419 75.7502C36.6218 75.7502 28.4945 78.4692 19.696 85.7593C12.7063 91.5441 9.53349 99.0781 10.3064 108.151C11.2408 119.238 17.663 128.251 20.9954 130.181C26.6455 133.428 38.1455 131.134 42.4337 129.877C54.9912 122.668 69.0337 114.081 71.1275 111.989C72.4677 110.447 75.8191 101.189 74.438 92.965C73.7064 88.5599 71.8159 85.5348 68.6868 83.7281C61.0474 79.3641 52.9803 75.7503 44.2426 75.7503L44.2419 75.7502Z" fill="black"/>
</svg>
