<svg width="73" height="70" viewBox="0 0 73 70" fill="none" xmlns="http://www.w3.org/2000/svg">
<path d="M30.0134 16.3846C27.0304 16.3846 24.9481 15.6167 23.8047 14.093C22.5696 12.4396 22.5426 10.089 23.7348 7.10072C25.0289 3.8583 28.0983 0 35.3697 0C38.9243 0 43.8973 2.24281 46.2278 8.5596C47.0693 10.8506 47.0046 12.726 46.0284 14.1418C44.6094 16.2004 41.929 16.2871 41.627 16.2922H31.9765C31.2862 16.3519 30.6337 16.3846 30.0132 16.3846L30.0134 16.3846ZM35.3749 2.70192C30.6826 2.70192 27.6939 4.46888 26.2428 8.10563C25.6819 9.51625 25.175 11.413 25.9626 12.4718C26.7228 13.4882 28.7834 13.8824 31.7824 13.5961C31.826 13.5903 31.8689 13.5909 31.9119 13.5909H41.6163C42.0316 13.58 43.2884 13.3854 43.8167 12.6015C44.3672 11.7912 44.0538 10.4673 43.6981 9.49453C41.8535 4.47986 38.0616 2.70203 35.3749 2.70203V2.70192Z" fill="black"/>
<path d="M40.8291 70C40.3547 70 39.8741 69.9191 39.3998 69.7567C36.2656 68.6869 34.2915 64.5692 33.5904 62.851C31.5516 57.8583 31.3086 25.63 31.3086 25.3112C31.3086 20.6099 27.7373 15.8547 27.7002 15.8059C27.2522 15.2119 27.3656 14.3631 27.9534 13.9149C28.5469 13.461 29.3884 13.5746 29.8416 14.1686C30.0088 14.3901 34.0005 19.686 34.0005 25.3113C34.0005 32.8871 34.6261 58.2688 36.0822 61.8301C37.2205 64.6128 38.8657 66.7259 40.2682 67.2069C40.7534 67.3745 41.1796 67.3314 41.6167 67.0772C44.4484 65.4398 46.6167 63.0084 43.3588 56.3673C39.626 48.7587 34.0057 23.7227 39.4324 14.2716C39.8042 13.6231 40.6297 13.4016 41.2719 13.7746C41.9193 14.1477 42.1398 14.9689 41.768 15.6174C37.3071 23.3879 41.7245 46.9163 45.7758 55.1773C49.0228 61.7915 48.1005 66.4497 42.9653 69.4218C42.291 69.8052 41.5681 69.9998 40.8291 69.9998L40.8291 70Z" fill="black"/>
<path d="M65.1928 21.4326C63.704 21.4326 62.2368 21.3351 61.0396 21.2214C59.2809 21.1675 51.125 20.6814 50.5692 16.3801C50.2404 13.8453 50.9742 11.338 52.5812 9.5061C54.6205 7.18307 57.8784 6.00481 62.2585 6.00481C67.2854 6.00481 69.9235 8.50693 71.2502 10.6034C73.2513 13.7702 73.2999 17.6226 72.566 19.1842C71.7302 20.9679 68.4185 21.4327 65.1927 21.4327L65.1928 21.4326ZM62.2637 8.70093C58.693 8.70093 56.1202 9.57095 54.6154 11.284C53.0617 13.0567 53.142 15.1911 53.2503 16.0283C53.4227 17.3632 57.56 18.4118 61.1684 18.5196C61.1959 18.5196 61.228 18.5196 61.2549 18.5253C65.2845 18.9144 69.5294 18.6441 70.1716 17.9687C70.4414 17.3741 70.5542 14.5374 68.9794 12.0462C67.5713 9.82527 65.3113 8.70092 62.2637 8.70092L62.2637 8.70093Z" fill="black"/>
<path d="M44.89 57.7928C44.6311 57.7928 44.3721 57.717 44.1453 57.5655C43.5254 57.1546 43.3582 56.3121 43.7735 55.6957C43.8491 55.5821 51.4166 44.137 54.4752 34.0815C57.3665 24.5819 54.1842 19.8806 54.0439 19.6861C53.6177 19.0812 53.758 18.2382 54.3618 17.806C54.9662 17.3733 55.7969 17.5088 56.234 18.1027C56.4064 18.3352 60.3713 23.977 57.0538 34.8658C53.8767 45.3055 46.3354 56.7077 46.0175 57.1882C45.7528 57.5824 45.3272 57.7936 44.8901 57.7936L44.89 57.7928Z" fill="black"/>
<path d="M49.5887 69.8208C46.7891 69.8208 45.2567 66.4492 45.09 66.0491C44.7926 65.3628 45.1112 64.5685 45.7963 64.277C46.4815 63.9798 47.2691 64.2988 47.5658 64.9795C47.9107 65.7628 48.8708 67.1947 49.6694 67.1137C50.2245 67.0598 53.1651 66.017 56.655 50.6107C59.2604 39.1116 60.2904 33.8109 60.905 30.6493C61.7465 26.3101 61.8004 26.0507 64.0174 19.6041C64.2603 18.896 65.0314 18.5235 65.7331 18.7663C66.4343 19.0096 66.8113 19.7769 66.5689 20.485C64.4109 26.753 64.3788 26.9155 63.5539 31.1629C62.9335 34.3456 61.9029 39.6685 59.2866 51.2051C55.6133 67.4378 52.1772 69.593 49.9173 69.7987C49.8039 69.8148 49.6962 69.82 49.5885 69.82L49.5887 69.8208Z" fill="black"/>
<path d="M34.3295 69.3227C34.0814 69.3227 33.8546 69.3066 33.6552 69.2797C24.5443 67.2211 23.3522 63.049 21.1948 55.473C20.8173 54.149 20.4071 52.7063 19.911 51.123C16.8147 41.2291 11.07 36.96 11.0161 36.917C10.4175 36.4791 10.2771 35.636 10.7142 35.0311C11.1508 34.4257 11.9872 34.2908 12.5916 34.723C12.8556 34.9124 19.1022 39.5001 22.4838 50.3122C22.9856 51.9174 23.4067 53.3871 23.7893 54.7271C25.9089 62.1572 26.7023 64.9348 34.1404 66.6204C34.1353 66.6152 34.1943 66.6204 34.2968 66.6204C34.6801 66.6204 35.662 66.5555 36.0612 65.8261C36.417 65.1725 37.2425 64.9349 37.8898 65.2964C38.5423 65.6534 38.7795 66.4746 38.4238 67.1289C37.4636 68.8633 35.6241 69.3224 34.3295 69.3224L34.3295 69.3227Z" fill="black"/>
<path d="M33.7239 56.2678C33.0926 56.2678 32.5318 55.8248 32.4023 55.1814C31.8793 52.5283 28.1145 47.6113 24.1336 42.4073L22.8761 40.7647C17.9352 34.2797 18.4369 30.8703 18.5126 30.503C18.6581 29.773 19.3702 29.2978 20.0982 29.4436C20.8154 29.5894 21.2846 30.2757 21.166 30.9891C21.1557 31.1188 20.9615 33.7938 25.0232 39.1217L26.2749 40.759C30.6333 46.4601 34.4033 51.3828 35.0506 54.6522C35.1967 55.3817 34.7218 56.095 33.9931 56.2407C33.8963 56.2568 33.8098 56.2677 33.7239 56.2677L33.7239 56.2678Z" fill="black"/>
<path d="M7.79545 37.799C6.56035 37.799 5.2714 37.5993 4.2196 36.9939C2.4071 35.9459 0.346476 32.6765 0.0387963 29.018C-0.155402 26.7161 0.287419 23.4093 3.50232 20.7506C9.85652 15.4817 15.4282 17.5621 19.577 19.9563C21.1845 20.8854 22.1825 22.4958 22.4626 24.6037C22.8189 27.3108 21.8531 30.6553 20.7851 31.7257C19.6847 32.8282 13.665 36.3077 12.4677 36.9997C12.3812 37.0485 12.2953 37.0858 12.1979 37.1185C11.8742 37.2103 9.91609 37.7991 7.79592 37.7991L7.79545 37.799ZM11.7981 35.8214H11.809H11.7981ZM11.7442 20.1617C9.72143 20.1617 7.564 20.8853 5.2284 22.8257C3.37294 24.3654 2.53071 26.3706 2.73588 28.7855C2.98393 31.7364 4.68871 34.1353 5.57333 34.6489C7.07316 35.5131 10.1259 34.9025 11.2642 34.568C14.5977 32.6494 18.3253 30.3637 18.8811 29.807C19.2369 29.3967 20.1265 26.9325 19.7599 24.7436C19.5657 23.5711 19.0639 22.7659 18.2332 22.2851C16.2053 21.1235 14.0639 20.1617 11.7444 20.1617L11.7442 20.1617Z" fill="black"/>
</svg>
