<svg width="849" height="139" viewBox="0 0 849 139" fill="none" xmlns="http://www.w3.org/2000/svg">
<rect x="34.5" y="1.5" width="77" height="77" fill="#FDFDFD" stroke="#DB4F2D" stroke-width="3"/>
<path d="M83.0607 28L70.6893 44.5696L63.375 37.1446L60 40.5732L71.2482 52L87 31.4286L83.0607 28Z" fill="#DB4F2D"/>
<rect x="370.5" y="1.5" width="77" height="77" fill="#FDFDFD" stroke="#C0C0C0" stroke-width="3"/>
<rect x="706.5" y="1.5" width="77" height="77" fill="#FDFDFD" stroke="#C0C0C0" stroke-width="3"/>
<path d="M113 40H369" stroke="#C0C0C0" stroke-width="6"/>
<path d="M449 40H705" stroke="#C0C0C0" stroke-width="6"/>
<path d="M9.49219 134.1C8.46552 134.1 7.53885 133.9 6.71219 133.5C5.88552 133.1 5.17219 132.56 4.57219 131.88C3.97219 131.187 3.50552 130.413 3.17219 129.56C2.85219 128.693 2.69219 127.807 2.69219 126.9C2.69219 125.953 2.86552 125.053 3.21219 124.2C3.55885 123.333 4.03885 122.567 4.65219 121.9C5.26552 121.22 5.98552 120.687 6.81219 120.3C7.65219 119.9 8.55885 119.7 9.53219 119.7C10.5455 119.7 11.4655 119.907 12.2922 120.32C13.1322 120.733 13.8455 121.287 14.4322 121.98C15.0322 122.673 15.4922 123.447 15.8122 124.3C16.1455 125.153 16.3122 126.027 16.3122 126.92C16.3122 127.867 16.1389 128.773 15.7922 129.64C15.4589 130.493 14.9855 131.26 14.3722 131.94C13.7589 132.607 13.0322 133.133 12.1922 133.52C11.3655 133.907 10.4655 134.1 9.49219 134.1ZM4.97219 126.9C4.97219 127.567 5.07885 128.213 5.29219 128.84C5.50552 129.467 5.80552 130.027 6.19219 130.52C6.59219 131 7.07219 131.38 7.63219 131.66C8.19219 131.94 8.81885 132.08 9.51219 132.08C10.2322 132.08 10.8722 131.933 11.4322 131.64C11.9922 131.347 12.4589 130.953 12.8322 130.46C13.2189 129.953 13.5122 129.393 13.7122 128.78C13.9122 128.153 14.0122 127.527 14.0122 126.9C14.0122 126.233 13.9055 125.593 13.6922 124.98C13.4922 124.353 13.1922 123.8 12.7922 123.32C12.3922 122.827 11.9122 122.44 11.3522 122.16C10.8055 121.88 10.1922 121.74 9.51219 121.74C8.79219 121.74 8.15219 121.887 7.59219 122.18C7.03219 122.473 6.55885 122.867 6.17219 123.36C5.78552 123.853 5.48552 124.407 5.27219 125.02C5.07219 125.633 4.97219 126.26 4.97219 126.9ZM24.1336 125.44C23.2803 125.453 22.5203 125.647 21.8536 126.02C21.2003 126.393 20.7336 126.92 20.4536 127.6V134H18.2536V123.54H20.2936V125.88C20.6536 125.16 21.1269 124.587 21.7136 124.16C22.3003 123.72 22.9203 123.48 23.5736 123.44C23.7069 123.44 23.8136 123.44 23.8936 123.44C23.9869 123.44 24.0669 123.447 24.1336 123.46V125.44ZM24.9178 128.78C24.9178 127.78 25.1178 126.873 25.5178 126.06C25.9311 125.233 26.4911 124.58 27.1978 124.1C27.9045 123.607 28.7178 123.36 29.6378 123.36C30.4378 123.36 31.1578 123.567 31.7978 123.98C32.4511 124.393 32.9578 124.907 33.3178 125.52V119.4H35.5178V131.52C35.5178 131.773 35.5645 131.953 35.6578 132.06C35.7511 132.167 35.9045 132.227 36.1178 132.24V134C35.7045 134.067 35.3845 134.1 35.1578 134.1C34.7445 134.1 34.3911 133.98 34.0978 133.74C33.8178 133.5 33.6711 133.213 33.6578 132.88L33.6378 132.1C33.2378 132.767 32.6978 133.287 32.0178 133.66C31.3378 134.02 30.6311 134.2 29.8978 134.2C29.1778 134.2 28.5111 134.06 27.8978 133.78C27.2978 133.5 26.7711 133.107 26.3178 132.6C25.8778 132.093 25.5311 131.513 25.2778 130.86C25.0378 130.207 24.9178 129.513 24.9178 128.78ZM33.3178 130.24V127.5C33.1711 127.073 32.9311 126.693 32.5978 126.36C32.2778 126.013 31.9111 125.74 31.4978 125.54C31.0978 125.34 30.6978 125.24 30.2978 125.24C29.8311 125.24 29.4045 125.34 29.0178 125.54C28.6445 125.74 28.3178 126.007 28.0378 126.34C27.7711 126.673 27.5645 127.053 27.4178 127.48C27.2711 127.907 27.1978 128.353 27.1978 128.82C27.1978 129.3 27.2778 129.753 27.4378 130.18C27.5978 130.593 27.8245 130.967 28.1178 131.3C28.4245 131.62 28.7711 131.873 29.1578 132.06C29.5578 132.233 29.9911 132.32 30.4578 132.32C30.7511 132.32 31.0445 132.267 31.3378 132.16C31.6445 132.053 31.9311 131.907 32.1978 131.72C32.4778 131.533 32.7111 131.313 32.8978 131.06C33.0978 130.807 33.2378 130.533 33.3178 130.24ZM43.0522 134.2C42.2389 134.2 41.4989 134.06 40.8322 133.78C40.1789 133.487 39.6122 133.093 39.1322 132.6C38.6522 132.093 38.2789 131.52 38.0122 130.88C37.7589 130.227 37.6322 129.533 37.6322 128.8C37.6322 127.813 37.8589 126.913 38.3122 126.1C38.7655 125.273 39.3989 124.613 40.2122 124.12C41.0255 123.613 41.9789 123.36 43.0722 123.36C44.1655 123.36 45.1055 123.613 45.8922 124.12C46.6922 124.613 47.3122 125.267 47.7522 126.08C48.1922 126.893 48.4122 127.767 48.4122 128.7C48.4122 128.86 48.4055 129.013 48.3922 129.16C48.3789 129.293 48.3655 129.407 48.3522 129.5H39.9722C40.0122 130.113 40.1789 130.653 40.4722 131.12C40.7789 131.573 41.1655 131.933 41.6322 132.2C42.0989 132.453 42.5989 132.58 43.1322 132.58C43.7189 132.58 44.2722 132.433 44.7922 132.14C45.3255 131.847 45.6855 131.46 45.8722 130.98L47.7522 131.52C47.5255 132.027 47.1789 132.487 46.7122 132.9C46.2589 133.3 45.7189 133.62 45.0922 133.86C44.4655 134.087 43.7855 134.2 43.0522 134.2ZM39.9122 128.04H46.2322C46.1922 127.44 46.0189 126.913 45.7122 126.46C45.4189 125.993 45.0389 125.633 44.5722 125.38C44.1189 125.113 43.6122 124.98 43.0522 124.98C42.5055 124.98 41.9989 125.113 41.5322 125.38C41.0789 125.633 40.7055 125.993 40.4122 126.46C40.1189 126.913 39.9522 127.44 39.9122 128.04ZM56.0867 125.44C55.2334 125.453 54.4734 125.647 53.8067 126.02C53.1534 126.393 52.6867 126.92 52.4067 127.6V134H50.2067V123.54H52.2467V125.88C52.6067 125.16 53.0801 124.587 53.6667 124.16C54.2534 123.72 54.8734 123.48 55.5267 123.44C55.6601 123.44 55.7667 123.44 55.8467 123.44C55.9401 123.44 56.0201 123.447 56.0867 123.46V125.44ZM68.0594 125.44C67.206 125.453 66.446 125.647 65.7794 126.02C65.126 126.393 64.6594 126.92 64.3794 127.6V134H62.1794V123.54H64.2194V125.88C64.5794 125.16 65.0527 124.587 65.6394 124.16C66.226 123.72 66.846 123.48 67.4994 123.44C67.6327 123.44 67.7394 123.44 67.8194 123.44C67.9127 123.44 67.9927 123.447 68.0594 123.46V125.44ZM74.2045 134.2C73.3912 134.2 72.6512 134.06 71.9845 133.78C71.3312 133.487 70.7645 133.093 70.2845 132.6C69.8045 132.093 69.4312 131.52 69.1645 130.88C68.9112 130.227 68.7845 129.533 68.7845 128.8C68.7845 127.813 69.0112 126.913 69.4645 126.1C69.9179 125.273 70.5512 124.613 71.3645 124.12C72.1779 123.613 73.1312 123.36 74.2245 123.36C75.3179 123.36 76.2579 123.613 77.0445 124.12C77.8445 124.613 78.4645 125.267 78.9045 126.08C79.3445 126.893 79.5645 127.767 79.5645 128.7C79.5645 128.86 79.5579 129.013 79.5445 129.16C79.5312 129.293 79.5179 129.407 79.5045 129.5H71.1245C71.1645 130.113 71.3312 130.653 71.6245 131.12C71.9312 131.573 72.3179 131.933 72.7845 132.2C73.2512 132.453 73.7512 132.58 74.2845 132.58C74.8712 132.58 75.4245 132.433 75.9445 132.14C76.4779 131.847 76.8379 131.46 77.0245 130.98L78.9045 131.52C78.6779 132.027 78.3312 132.487 77.8645 132.9C77.4112 133.3 76.8712 133.62 76.2445 133.86C75.6179 134.087 74.9379 134.2 74.2045 134.2ZM71.0645 128.04H77.3845C77.3445 127.44 77.1712 126.913 76.8645 126.46C76.5712 125.993 76.1912 125.633 75.7245 125.38C75.2712 125.113 74.7645 124.98 74.2045 124.98C73.6579 124.98 73.1512 125.113 72.6845 125.38C72.2312 125.633 71.8579 125.993 71.5645 126.46C71.2712 126.913 71.1045 127.44 71.0645 128.04ZM86.0991 134.2C85.2857 134.2 84.5457 134.06 83.8791 133.78C83.2257 133.487 82.6591 133.087 82.1791 132.58C81.6991 132.073 81.3257 131.493 81.0591 130.84C80.8057 130.187 80.6791 129.493 80.6791 128.76C80.6791 127.773 80.8991 126.873 81.3391 126.06C81.7924 125.247 82.4191 124.593 83.2191 124.1C84.0324 123.607 84.9924 123.36 86.0991 123.36C87.1657 123.36 88.0924 123.6 88.8791 124.08C89.6791 124.547 90.2657 125.173 90.6391 125.96L88.4991 126.64C88.2591 126.2 87.9191 125.86 87.4791 125.62C87.0524 125.367 86.5791 125.24 86.0591 125.24C85.4724 125.24 84.9391 125.393 84.4591 125.7C83.9924 125.993 83.6191 126.407 83.3391 126.94C83.0724 127.46 82.9391 128.067 82.9391 128.76C82.9391 129.427 83.0791 130.033 83.3591 130.58C83.6391 131.113 84.0124 131.54 84.4791 131.86C84.9591 132.167 85.4924 132.32 86.0791 132.32C86.4391 132.32 86.7857 132.26 87.1191 132.14C87.4657 132.007 87.7657 131.833 88.0191 131.62C88.2724 131.393 88.4524 131.147 88.5591 130.88L90.7191 131.52C90.4924 132.04 90.1524 132.5 89.6991 132.9C89.2591 133.3 88.7324 133.62 88.1191 133.86C87.5191 134.087 86.8457 134.2 86.0991 134.2ZM97.1733 134.2C96.3599 134.2 95.6199 134.06 94.9533 133.78C94.2999 133.487 93.7333 133.093 93.2533 132.6C92.7733 132.093 92.3999 131.52 92.1333 130.88C91.8799 130.227 91.7533 129.533 91.7533 128.8C91.7533 127.813 91.9799 126.913 92.4333 126.1C92.8866 125.273 93.5199 124.613 94.3333 124.12C95.1466 123.613 96.0999 123.36 97.1933 123.36C98.2866 123.36 99.2266 123.613 100.013 124.12C100.813 124.613 101.433 125.267 101.873 126.08C102.313 126.893 102.533 127.767 102.533 128.7C102.533 128.86 102.527 129.013 102.513 129.16C102.5 129.293 102.487 129.407 102.473 129.5H94.0933C94.1333 130.113 94.2999 130.653 94.5933 131.12C94.8999 131.573 95.2866 131.933 95.7533 132.2C96.2199 132.453 96.7199 132.58 97.2533 132.58C97.8399 132.58 98.3933 132.433 98.9133 132.14C99.4466 131.847 99.8066 131.46 99.9933 130.98L101.873 131.52C101.647 132.027 101.3 132.487 100.833 132.9C100.38 133.3 99.8399 133.62 99.2133 133.86C98.5866 134.087 97.9066 134.2 97.1733 134.2ZM94.0333 128.04H100.353C100.313 127.44 100.14 126.913 99.8333 126.46C99.5399 125.993 99.1599 125.633 98.6933 125.38C98.2399 125.113 97.7333 124.98 97.1733 124.98C96.6266 124.98 96.1199 125.113 95.6533 125.38C95.1999 125.633 94.8266 125.993 94.5333 126.46C94.2399 126.913 94.0733 127.44 94.0333 128.04ZM104.328 134V123.54H106.528V134H104.328ZM104.328 121.82V119.4H106.528V121.82H104.328ZM112.092 134L108.112 123.54H110.392L113.372 131.96L116.352 123.54H118.472L114.492 134H112.092ZM124.439 134.2C123.626 134.2 122.886 134.06 122.219 133.78C121.566 133.487 120.999 133.093 120.519 132.6C120.039 132.093 119.666 131.52 119.399 130.88C119.146 130.227 119.019 129.533 119.019 128.8C119.019 127.813 119.246 126.913 119.699 126.1C120.152 125.273 120.786 124.613 121.599 124.12C122.412 123.613 123.366 123.36 124.459 123.36C125.552 123.36 126.492 123.613 127.279 124.12C128.079 124.613 128.699 125.267 129.139 126.08C129.579 126.893 129.799 127.767 129.799 128.7C129.799 128.86 129.792 129.013 129.779 129.16C129.766 129.293 129.752 129.407 129.739 129.5H121.359C121.399 130.113 121.566 130.653 121.859 131.12C122.166 131.573 122.552 131.933 123.019 132.2C123.486 132.453 123.986 132.58 124.519 132.58C125.106 132.58 125.659 132.433 126.179 132.14C126.712 131.847 127.072 131.46 127.259 130.98L129.139 131.52C128.912 132.027 128.566 132.487 128.099 132.9C127.646 133.3 127.106 133.62 126.479 133.86C125.852 134.087 125.172 134.2 124.439 134.2ZM121.299 128.04H127.619C127.579 127.44 127.406 126.913 127.099 126.46C126.806 125.993 126.426 125.633 125.959 125.38C125.506 125.113 124.999 124.98 124.439 124.98C123.892 124.98 123.386 125.113 122.919 125.38C122.466 125.633 122.092 125.993 121.799 126.46C121.506 126.913 121.339 127.44 121.299 128.04ZM130.933 128.78C130.933 127.78 131.133 126.873 131.533 126.06C131.947 125.233 132.507 124.58 133.213 124.1C133.92 123.607 134.733 123.36 135.653 123.36C136.453 123.36 137.173 123.567 137.813 123.98C138.467 124.393 138.973 124.907 139.333 125.52V119.4H141.533V131.52C141.533 131.773 141.58 131.953 141.673 132.06C141.767 132.167 141.92 132.227 142.133 132.24V134C141.72 134.067 141.4 134.1 141.173 134.1C140.76 134.1 140.407 133.98 140.113 133.74C139.833 133.5 139.687 133.213 139.673 132.88L139.653 132.1C139.253 132.767 138.713 133.287 138.033 133.66C137.353 134.02 136.647 134.2 135.913 134.2C135.193 134.2 134.527 134.06 133.913 133.78C133.313 133.5 132.787 133.107 132.333 132.6C131.893 132.093 131.547 131.513 131.293 130.86C131.053 130.207 130.933 129.513 130.933 128.78ZM139.333 130.24V127.5C139.187 127.073 138.947 126.693 138.613 126.36C138.293 126.013 137.927 125.74 137.513 125.54C137.113 125.34 136.713 125.24 136.313 125.24C135.847 125.24 135.42 125.34 135.033 125.54C134.66 125.74 134.333 126.007 134.053 126.34C133.787 126.673 133.58 127.053 133.433 127.48C133.287 127.907 133.213 128.353 133.213 128.82C133.213 129.3 133.293 129.753 133.453 130.18C133.613 130.593 133.84 130.967 134.133 131.3C134.44 131.62 134.787 131.873 135.173 132.06C135.573 132.233 136.007 132.32 136.473 132.32C136.767 132.32 137.06 132.267 137.353 132.16C137.66 132.053 137.947 131.907 138.213 131.72C138.493 131.533 138.727 131.313 138.913 131.06C139.113 130.807 139.253 130.533 139.333 130.24Z" fill="black"/>
<path d="M310.627 134V119.8H320.087V121.78H312.867V126.02H318.907V127.88H312.867V134H310.627ZM326.004 134.2C325.178 134.2 324.438 134.06 323.784 133.78C323.131 133.487 322.564 133.087 322.084 132.58C321.618 132.073 321.258 131.5 321.004 130.86C320.751 130.207 320.624 129.513 320.624 128.78C320.624 128.047 320.751 127.353 321.004 126.7C321.258 126.047 321.618 125.473 322.084 124.98C322.564 124.473 323.131 124.08 323.784 123.8C324.451 123.507 325.191 123.36 326.004 123.36C326.818 123.36 327.551 123.507 328.204 123.8C328.871 124.08 329.438 124.473 329.904 124.98C330.384 125.473 330.751 126.047 331.004 126.7C331.258 127.353 331.384 128.047 331.384 128.78C331.384 129.513 331.258 130.207 331.004 130.86C330.751 131.5 330.384 132.073 329.904 132.58C329.438 133.087 328.871 133.487 328.204 133.78C327.551 134.06 326.818 134.2 326.004 134.2ZM322.884 128.8C322.884 129.467 323.024 130.067 323.304 130.6C323.584 131.133 323.958 131.553 324.424 131.86C324.891 132.167 325.418 132.32 326.004 132.32C326.578 132.32 327.098 132.167 327.564 131.86C328.044 131.54 328.424 131.113 328.704 130.58C328.984 130.033 329.124 129.433 329.124 128.78C329.124 128.113 328.984 127.513 328.704 126.98C328.424 126.447 328.044 126.027 327.564 125.72C327.098 125.4 326.578 125.24 326.004 125.24C325.418 125.24 324.891 125.4 324.424 125.72C323.958 126.04 323.584 126.467 323.304 127C323.024 127.52 322.884 128.12 322.884 128.8ZM338.036 134.2C337.209 134.2 336.469 134.06 335.816 133.78C335.162 133.487 334.596 133.087 334.116 132.58C333.649 132.073 333.289 131.5 333.036 130.86C332.782 130.207 332.656 129.513 332.656 128.78C332.656 128.047 332.782 127.353 333.036 126.7C333.289 126.047 333.649 125.473 334.116 124.98C334.596 124.473 335.162 124.08 335.816 123.8C336.482 123.507 337.222 123.36 338.036 123.36C338.849 123.36 339.582 123.507 340.236 123.8C340.902 124.08 341.469 124.473 341.936 124.98C342.416 125.473 342.782 126.047 343.036 126.7C343.289 127.353 343.416 128.047 343.416 128.78C343.416 129.513 343.289 130.207 343.036 130.86C342.782 131.5 342.416 132.073 341.936 132.58C341.469 133.087 340.902 133.487 340.236 133.78C339.582 134.06 338.849 134.2 338.036 134.2ZM334.916 128.8C334.916 129.467 335.056 130.067 335.336 130.6C335.616 131.133 335.989 131.553 336.456 131.86C336.922 132.167 337.449 132.32 338.036 132.32C338.609 132.32 339.129 132.167 339.596 131.86C340.076 131.54 340.456 131.113 340.736 130.58C341.016 130.033 341.156 129.433 341.156 128.78C341.156 128.113 341.016 127.513 340.736 126.98C340.456 126.447 340.076 126.027 339.596 125.72C339.129 125.4 338.609 125.24 338.036 125.24C337.449 125.24 336.922 125.4 336.456 125.72C335.989 126.04 335.616 126.467 335.336 127C335.056 127.52 334.916 128.12 334.916 128.8ZM344.707 128.78C344.707 127.78 344.907 126.873 345.307 126.06C345.72 125.233 346.28 124.58 346.987 124.1C347.694 123.607 348.507 123.36 349.427 123.36C350.227 123.36 350.947 123.567 351.587 123.98C352.24 124.393 352.747 124.907 353.107 125.52V119.4H355.307V131.52C355.307 131.773 355.354 131.953 355.447 132.06C355.54 132.167 355.694 132.227 355.907 132.24V134C355.494 134.067 355.174 134.1 354.947 134.1C354.534 134.1 354.18 133.98 353.887 133.74C353.607 133.5 353.46 133.213 353.447 132.88L353.427 132.1C353.027 132.767 352.487 133.287 351.807 133.66C351.127 134.02 350.42 134.2 349.687 134.2C348.967 134.2 348.3 134.06 347.687 133.78C347.087 133.5 346.56 133.107 346.107 132.6C345.667 132.093 345.32 131.513 345.067 130.86C344.827 130.207 344.707 129.513 344.707 128.78ZM353.107 130.24V127.5C352.96 127.073 352.72 126.693 352.387 126.36C352.067 126.013 351.7 125.74 351.287 125.54C350.887 125.34 350.487 125.24 350.087 125.24C349.62 125.24 349.194 125.34 348.807 125.54C348.434 125.74 348.107 126.007 347.827 126.34C347.56 126.673 347.354 127.053 347.207 127.48C347.06 127.907 346.987 128.353 346.987 128.82C346.987 129.3 347.067 129.753 347.227 130.18C347.387 130.593 347.614 130.967 347.907 131.3C348.214 131.62 348.56 131.873 348.947 132.06C349.347 132.233 349.78 132.32 350.247 132.32C350.54 132.32 350.834 132.267 351.127 132.16C351.434 132.053 351.72 131.907 351.987 131.72C352.267 131.533 352.5 131.313 352.687 131.06C352.887 130.807 353.027 130.533 353.107 130.24ZM368.683 134.2C367.883 134.2 367.156 134.013 366.503 133.64C365.863 133.253 365.356 132.74 364.983 132.1V134H363.043V119.4H365.243V125.52C365.656 124.853 366.169 124.327 366.783 123.94C367.409 123.553 368.143 123.36 368.983 123.36C369.676 123.36 370.309 123.507 370.883 123.8C371.456 124.093 371.943 124.493 372.343 125C372.756 125.507 373.069 126.087 373.283 126.74C373.509 127.393 373.623 128.087 373.623 128.82C373.623 129.553 373.496 130.247 373.243 130.9C373.003 131.553 372.656 132.127 372.203 132.62C371.749 133.113 371.223 133.5 370.623 133.78C370.036 134.06 369.389 134.2 368.683 134.2ZM368.103 132.32C368.583 132.32 369.023 132.227 369.423 132.04C369.823 131.84 370.169 131.58 370.463 131.26C370.756 130.94 370.976 130.567 371.123 130.14C371.283 129.713 371.363 129.273 371.363 128.82C371.363 128.193 371.229 127.607 370.963 127.06C370.709 126.513 370.349 126.073 369.883 125.74C369.416 125.407 368.876 125.24 368.263 125.24C367.823 125.24 367.409 125.347 367.023 125.56C366.636 125.76 366.289 126.033 365.983 126.38C365.689 126.713 365.443 127.087 365.243 127.5V130.26C365.323 130.567 365.463 130.847 365.663 131.1C365.863 131.34 366.096 131.553 366.363 131.74C366.629 131.913 366.916 132.053 367.223 132.16C367.529 132.267 367.823 132.32 368.103 132.32ZM380.341 134.2C379.528 134.2 378.788 134.06 378.121 133.78C377.468 133.487 376.901 133.093 376.421 132.6C375.941 132.093 375.568 131.52 375.301 130.88C375.048 130.227 374.921 129.533 374.921 128.8C374.921 127.813 375.148 126.913 375.601 126.1C376.055 125.273 376.688 124.613 377.501 124.12C378.315 123.613 379.268 123.36 380.361 123.36C381.455 123.36 382.395 123.613 383.181 124.12C383.981 124.613 384.601 125.267 385.041 126.08C385.481 126.893 385.701 127.767 385.701 128.7C385.701 128.86 385.695 129.013 385.681 129.16C385.668 129.293 385.655 129.407 385.641 129.5H377.261C377.301 130.113 377.468 130.653 377.761 131.12C378.068 131.573 378.455 131.933 378.921 132.2C379.388 132.453 379.888 132.58 380.421 132.58C381.008 132.58 381.561 132.433 382.081 132.14C382.615 131.847 382.975 131.46 383.161 130.98L385.041 131.52C384.815 132.027 384.468 132.487 384.001 132.9C383.548 133.3 383.008 133.62 382.381 133.86C381.755 134.087 381.075 134.2 380.341 134.2ZM377.201 128.04H383.521C383.481 127.44 383.308 126.913 383.001 126.46C382.708 125.993 382.328 125.633 381.861 125.38C381.408 125.113 380.901 124.98 380.341 124.98C379.795 124.98 379.288 125.113 378.821 125.38C378.368 125.633 377.995 125.993 377.701 126.46C377.408 126.913 377.241 127.44 377.201 128.04ZM387.496 134V123.54H389.696V134H387.496ZM387.496 121.82V119.4H389.696V121.82H387.496ZM401.72 134H399.52V128.14C399.52 127.167 399.36 126.453 399.04 126C398.733 125.547 398.273 125.32 397.66 125.32C397.233 125.32 396.806 125.427 396.38 125.64C395.966 125.853 395.593 126.147 395.26 126.52C394.926 126.88 394.686 127.3 394.54 127.78V134H392.34V123.54H394.34V125.64C394.606 125.173 394.953 124.773 395.38 124.44C395.82 124.093 396.313 123.827 396.86 123.64C397.406 123.453 397.986 123.36 398.6 123.36C399.226 123.36 399.74 123.473 400.14 123.7C400.553 123.927 400.873 124.24 401.1 124.64C401.34 125.027 401.5 125.48 401.58 126C401.673 126.507 401.72 127.047 401.72 127.62V134ZM408.413 134.1C407.706 134.1 407.06 133.96 406.473 133.68C405.886 133.387 405.38 132.993 404.953 132.5C404.54 132.007 404.213 131.44 403.973 130.8C403.746 130.16 403.633 129.487 403.633 128.78C403.633 128.033 403.753 127.333 403.993 126.68C404.233 126.027 404.566 125.453 404.993 124.96C405.433 124.453 405.946 124.06 406.533 123.78C407.12 123.5 407.773 123.36 408.493 123.36C409.333 123.36 410.066 123.56 410.693 123.96C411.333 124.36 411.86 124.88 412.273 125.52V123.54H414.213V133.7C414.213 134.713 413.966 135.573 413.473 136.28C412.993 136.987 412.333 137.527 411.493 137.9C410.653 138.273 409.706 138.46 408.653 138.46C407.493 138.46 406.533 138.26 405.773 137.86C405.013 137.46 404.366 136.913 403.833 136.22L405.073 135.06C405.473 135.62 405.986 136.047 406.613 136.34C407.253 136.633 407.933 136.78 408.653 136.78C409.253 136.78 409.806 136.667 410.313 136.44C410.833 136.227 411.246 135.887 411.553 135.42C411.86 134.967 412.013 134.393 412.013 133.7V132.1C411.64 132.727 411.126 133.22 410.473 133.58C409.82 133.927 409.133 134.1 408.413 134.1ZM409.133 132.32C409.466 132.32 409.786 132.267 410.093 132.16C410.4 132.04 410.68 131.887 410.933 131.7C411.2 131.5 411.426 131.28 411.613 131.04C411.8 130.787 411.933 130.52 412.013 130.24V127.5C411.84 127.047 411.593 126.653 411.273 126.32C410.953 125.973 410.593 125.707 410.193 125.52C409.793 125.333 409.386 125.24 408.973 125.24C408.493 125.24 408.06 125.347 407.673 125.56C407.3 125.76 406.98 126.033 406.713 126.38C406.446 126.713 406.24 127.093 406.093 127.52C405.946 127.947 405.873 128.387 405.873 128.84C405.873 129.32 405.953 129.767 406.113 130.18C406.286 130.593 406.52 130.967 406.813 131.3C407.106 131.62 407.453 131.873 407.853 132.06C408.253 132.233 408.68 132.32 409.133 132.32ZM427.733 134.2C426.893 134.2 426.153 134 425.513 133.6C424.873 133.2 424.366 132.68 423.993 132.04V138.26H421.793V123.54H423.733V125.42C424.133 124.793 424.653 124.293 425.293 123.92C425.933 123.547 426.646 123.36 427.433 123.36C428.153 123.36 428.813 123.507 429.413 123.8C430.013 124.08 430.533 124.473 430.973 124.98C431.413 125.487 431.753 126.067 431.993 126.72C432.246 127.36 432.373 128.04 432.373 128.76C432.373 129.76 432.173 130.673 431.773 131.5C431.386 132.327 430.839 132.987 430.133 133.48C429.439 133.96 428.639 134.2 427.733 134.2ZM427.013 132.32C427.479 132.32 427.899 132.22 428.273 132.02C428.659 131.82 428.986 131.553 429.253 131.22C429.533 130.887 429.746 130.507 429.893 130.08C430.039 129.653 430.113 129.213 430.113 128.76C430.113 128.28 430.033 127.827 429.873 127.4C429.713 126.973 429.479 126.6 429.173 126.28C428.879 125.96 428.533 125.707 428.133 125.52C427.746 125.333 427.319 125.24 426.853 125.24C426.573 125.24 426.279 125.293 425.973 125.4C425.666 125.507 425.379 125.653 425.113 125.84C424.846 126.027 424.613 126.247 424.413 126.5C424.213 126.753 424.073 127.02 423.993 127.3V130.04C424.179 130.467 424.426 130.853 424.733 131.2C425.039 131.533 425.393 131.807 425.793 132.02C426.193 132.22 426.599 132.32 427.013 132.32ZM440.231 125.44C439.378 125.453 438.618 125.647 437.951 126.02C437.298 126.393 436.831 126.92 436.551 127.6V134H434.351V123.54H436.391V125.88C436.751 125.16 437.225 124.587 437.811 124.16C438.398 123.72 439.018 123.48 439.671 123.44C439.805 123.44 439.911 123.44 439.991 123.44C440.085 123.44 440.165 123.447 440.231 123.46V125.44ZM446.376 134.2C445.563 134.2 444.823 134.06 444.156 133.78C443.503 133.487 442.936 133.093 442.456 132.6C441.976 132.093 441.603 131.52 441.336 130.88C441.083 130.227 440.956 129.533 440.956 128.8C440.956 127.813 441.183 126.913 441.636 126.1C442.09 125.273 442.723 124.613 443.536 124.12C444.35 123.613 445.303 123.36 446.396 123.36C447.49 123.36 448.43 123.613 449.216 124.12C450.016 124.613 450.636 125.267 451.076 126.08C451.516 126.893 451.736 127.767 451.736 128.7C451.736 128.86 451.73 129.013 451.716 129.16C451.703 129.293 451.69 129.407 451.676 129.5H443.296C443.336 130.113 443.503 130.653 443.796 131.12C444.103 131.573 444.49 131.933 444.956 132.2C445.423 132.453 445.923 132.58 446.456 132.58C447.043 132.58 447.596 132.433 448.116 132.14C448.65 131.847 449.01 131.46 449.196 130.98L451.076 131.52C450.85 132.027 450.503 132.487 450.036 132.9C449.583 133.3 449.043 133.62 448.416 133.86C447.79 134.087 447.11 134.2 446.376 134.2ZM443.236 128.04H449.556C449.516 127.44 449.343 126.913 449.036 126.46C448.743 125.993 448.363 125.633 447.896 125.38C447.443 125.113 446.936 124.98 446.376 124.98C445.83 124.98 445.323 125.113 444.856 125.38C444.403 125.633 444.03 125.993 443.736 126.46C443.443 126.913 443.276 127.44 443.236 128.04ZM459.471 134.2C458.631 134.2 457.891 134 457.251 133.6C456.611 133.2 456.104 132.68 455.731 132.04V138.26H453.531V123.54H455.471V125.42C455.871 124.793 456.391 124.293 457.031 123.92C457.671 123.547 458.384 123.36 459.171 123.36C459.891 123.36 460.551 123.507 461.151 123.8C461.751 124.08 462.271 124.473 462.711 124.98C463.151 125.487 463.491 126.067 463.731 126.72C463.984 127.36 464.111 128.04 464.111 128.76C464.111 129.76 463.911 130.673 463.511 131.5C463.124 132.327 462.578 132.987 461.871 133.48C461.178 133.96 460.378 134.2 459.471 134.2ZM458.751 132.32C459.218 132.32 459.638 132.22 460.011 132.02C460.398 131.82 460.724 131.553 460.991 131.22C461.271 130.887 461.484 130.507 461.631 130.08C461.778 129.653 461.851 129.213 461.851 128.76C461.851 128.28 461.771 127.827 461.611 127.4C461.451 126.973 461.218 126.6 460.911 126.28C460.618 125.96 460.271 125.707 459.871 125.52C459.484 125.333 459.058 125.24 458.591 125.24C458.311 125.24 458.018 125.293 457.711 125.4C457.404 125.507 457.118 125.653 456.851 125.84C456.584 126.027 456.351 126.247 456.151 126.5C455.951 126.753 455.811 127.02 455.731 127.3V130.04C455.918 130.467 456.164 130.853 456.471 131.2C456.778 131.533 457.131 131.807 457.531 132.02C457.931 132.22 458.338 132.32 458.751 132.32ZM465.33 130.94C465.33 130.273 465.516 129.693 465.89 129.2C466.276 128.693 466.803 128.307 467.47 128.04C468.136 127.76 468.91 127.62 469.79 127.62C470.256 127.62 470.73 127.653 471.21 127.72C471.703 127.787 472.136 127.893 472.51 128.04V127.38C472.51 126.647 472.29 126.073 471.85 125.66C471.41 125.247 470.776 125.04 469.95 125.04C469.363 125.04 468.81 125.147 468.29 125.36C467.77 125.56 467.216 125.847 466.63 126.22L465.89 124.74C466.583 124.273 467.276 123.927 467.97 123.7C468.676 123.473 469.416 123.36 470.19 123.36C471.59 123.36 472.69 123.733 473.49 124.48C474.303 125.213 474.71 126.26 474.71 127.62V131.52C474.71 131.773 474.75 131.953 474.83 132.06C474.923 132.167 475.076 132.227 475.29 132.24V134C475.09 134.04 474.91 134.067 474.75 134.08C474.59 134.093 474.456 134.1 474.35 134.1C473.883 134.1 473.53 133.987 473.29 133.76C473.05 133.533 472.91 133.267 472.87 132.96L472.81 132.36C472.356 132.947 471.776 133.4 471.07 133.72C470.363 134.04 469.65 134.2 468.93 134.2C468.236 134.2 467.616 134.06 467.07 133.78C466.523 133.487 466.096 133.093 465.79 132.6C465.483 132.107 465.33 131.553 465.33 130.94ZM471.99 131.58C472.15 131.407 472.276 131.233 472.37 131.06C472.463 130.887 472.51 130.733 472.51 130.6V129.4C472.136 129.253 471.743 129.147 471.33 129.08C470.916 129 470.51 128.96 470.11 128.96C469.31 128.96 468.656 129.12 468.15 129.44C467.656 129.76 467.41 130.2 467.41 130.76C467.41 131.067 467.49 131.36 467.65 131.64C467.823 131.92 468.063 132.147 468.37 132.32C468.69 132.493 469.083 132.58 469.55 132.58C470.03 132.58 470.49 132.487 470.93 132.3C471.37 132.113 471.723 131.873 471.99 131.58ZM483.259 125.44C482.405 125.453 481.645 125.647 480.979 126.02C480.325 126.393 479.859 126.92 479.579 127.6V134H477.379V123.54H479.419V125.88C479.779 125.16 480.252 124.587 480.839 124.16C481.425 123.72 482.045 123.48 482.699 123.44C482.832 123.44 482.939 123.44 483.019 123.44C483.112 123.44 483.192 123.447 483.259 123.46V125.44ZM489.404 134.2C488.59 134.2 487.85 134.06 487.184 133.78C486.53 133.487 485.964 133.093 485.484 132.6C485.004 132.093 484.63 131.52 484.364 130.88C484.11 130.227 483.984 129.533 483.984 128.8C483.984 127.813 484.21 126.913 484.664 126.1C485.117 125.273 485.75 124.613 486.564 124.12C487.377 123.613 488.33 123.36 489.424 123.36C490.517 123.36 491.457 123.613 492.244 124.12C493.044 124.613 493.664 125.267 494.104 126.08C494.544 126.893 494.764 127.767 494.764 128.7C494.764 128.86 494.757 129.013 494.744 129.16C494.73 129.293 494.717 129.407 494.704 129.5H486.324C486.364 130.113 486.53 130.653 486.824 131.12C487.13 131.573 487.517 131.933 487.984 132.2C488.45 132.453 488.95 132.58 489.484 132.58C490.07 132.58 490.624 132.433 491.144 132.14C491.677 131.847 492.037 131.46 492.224 130.98L494.104 131.52C493.877 132.027 493.53 132.487 493.064 132.9C492.61 133.3 492.07 133.62 491.444 133.86C490.817 134.087 490.137 134.2 489.404 134.2ZM486.264 128.04H492.584C492.544 127.44 492.37 126.913 492.064 126.46C491.77 125.993 491.39 125.633 490.924 125.38C490.47 125.113 489.964 124.98 489.404 124.98C488.857 124.98 488.35 125.113 487.884 125.38C487.43 125.633 487.057 125.993 486.764 126.46C486.47 126.913 486.304 127.44 486.264 128.04ZM495.898 128.78C495.898 127.78 496.098 126.873 496.498 126.06C496.912 125.233 497.472 124.58 498.178 124.1C498.885 123.607 499.698 123.36 500.618 123.36C501.418 123.36 502.138 123.567 502.778 123.98C503.432 124.393 503.938 124.907 504.298 125.52V119.4H506.498V131.52C506.498 131.773 506.545 131.953 506.638 132.06C506.732 132.167 506.885 132.227 507.098 132.24V134C506.685 134.067 506.365 134.1 506.138 134.1C505.725 134.1 505.372 133.98 505.078 133.74C504.798 133.5 504.652 133.213 504.638 132.88L504.618 132.1C504.218 132.767 503.678 133.287 502.998 133.66C502.318 134.02 501.612 134.2 500.878 134.2C500.158 134.2 499.492 134.06 498.878 133.78C498.278 133.5 497.752 133.107 497.298 132.6C496.858 132.093 496.512 131.513 496.258 130.86C496.018 130.207 495.898 129.513 495.898 128.78ZM504.298 130.24V127.5C504.152 127.073 503.912 126.693 503.578 126.36C503.258 126.013 502.892 125.74 502.478 125.54C502.078 125.34 501.678 125.24 501.278 125.24C500.812 125.24 500.385 125.34 499.998 125.54C499.625 125.74 499.298 126.007 499.018 126.34C498.752 126.673 498.545 127.053 498.398 127.48C498.252 127.907 498.178 128.353 498.178 128.82C498.178 129.3 498.258 129.753 498.418 130.18C498.578 130.593 498.805 130.967 499.098 131.3C499.405 131.62 499.752 131.873 500.138 132.06C500.538 132.233 500.972 132.32 501.438 132.32C501.732 132.32 502.025 132.267 502.318 132.16C502.625 132.053 502.912 131.907 503.178 131.72C503.458 131.533 503.692 131.313 503.878 131.06C504.078 130.807 504.218 130.533 504.298 130.24Z" fill="black"/>
<path d="M661.286 134V119.8H666.326C667.859 119.8 669.139 120.12 670.166 120.76C671.192 121.387 671.959 122.24 672.466 123.32C672.986 124.387 673.246 125.573 673.246 126.88C673.246 128.32 672.959 129.573 672.386 130.64C671.826 131.707 671.026 132.533 669.986 133.12C668.946 133.707 667.726 134 666.326 134H661.286ZM670.966 126.88C670.966 125.88 670.779 125 670.406 124.24C670.046 123.467 669.519 122.867 668.826 122.44C668.146 122 667.312 121.78 666.326 121.78H663.526V132.02H666.326C667.326 132.02 668.166 131.793 668.846 131.34C669.539 130.887 670.066 130.273 670.426 129.5C670.786 128.727 670.966 127.853 670.966 126.88ZM680.062 134.2C679.249 134.2 678.509 134.06 677.842 133.78C677.189 133.487 676.622 133.093 676.142 132.6C675.662 132.093 675.289 131.52 675.022 130.88C674.769 130.227 674.642 129.533 674.642 128.8C674.642 127.813 674.869 126.913 675.322 126.1C675.775 125.273 676.409 124.613 677.222 124.12C678.035 123.613 678.989 123.36 680.082 123.36C681.175 123.36 682.115 123.613 682.902 124.12C683.702 124.613 684.322 125.267 684.762 126.08C685.202 126.893 685.422 127.767 685.422 128.7C685.422 128.86 685.415 129.013 685.402 129.16C685.389 129.293 685.375 129.407 685.362 129.5H676.982C677.022 130.113 677.189 130.653 677.482 131.12C677.789 131.573 678.175 131.933 678.642 132.2C679.109 132.453 679.609 132.58 680.142 132.58C680.729 132.58 681.282 132.433 681.802 132.14C682.335 131.847 682.695 131.46 682.882 130.98L684.762 131.52C684.535 132.027 684.189 132.487 683.722 132.9C683.269 133.3 682.729 133.62 682.102 133.86C681.475 134.087 680.795 134.2 680.062 134.2ZM676.922 128.04H683.242C683.202 127.44 683.029 126.913 682.722 126.46C682.429 125.993 682.049 125.633 681.582 125.38C681.129 125.113 680.622 124.98 680.062 124.98C679.515 124.98 679.009 125.113 678.542 125.38C678.089 125.633 677.715 125.993 677.422 126.46C677.129 126.913 676.962 127.44 676.922 128.04ZM687.236 119.4H689.436V130.98C689.436 131.513 689.516 131.853 689.676 132C689.836 132.147 690.036 132.22 690.276 132.22C690.543 132.22 690.79 132.193 691.016 132.14C691.256 132.087 691.463 132.02 691.636 131.94L691.956 133.68C691.636 133.813 691.256 133.927 690.816 134.02C690.376 134.113 689.983 134.16 689.636 134.16C688.89 134.16 688.303 133.953 687.876 133.54C687.45 133.113 687.236 132.527 687.236 131.78V119.4ZM693.232 134V123.54H695.432V134H693.232ZM693.232 121.82V119.4H695.432V121.82H693.232ZM700.996 134L697.016 123.54H699.296L702.276 131.96L705.256 123.54H707.376L703.396 134H700.996ZM713.343 134.2C712.53 134.2 711.79 134.06 711.123 133.78C710.47 133.487 709.903 133.093 709.423 132.6C708.943 132.093 708.57 131.52 708.303 130.88C708.05 130.227 707.923 129.533 707.923 128.8C707.923 127.813 708.15 126.913 708.603 126.1C709.057 125.273 709.69 124.613 710.503 124.12C711.317 123.613 712.27 123.36 713.363 123.36C714.457 123.36 715.397 123.613 716.183 124.12C716.983 124.613 717.603 125.267 718.043 126.08C718.483 126.893 718.703 127.767 718.703 128.7C718.703 128.86 718.697 129.013 718.683 129.16C718.67 129.293 718.657 129.407 718.643 129.5H710.263C710.303 130.113 710.47 130.653 710.763 131.12C711.07 131.573 711.457 131.933 711.923 132.2C712.39 132.453 712.89 132.58 713.423 132.58C714.01 132.58 714.563 132.433 715.083 132.14C715.617 131.847 715.977 131.46 716.163 130.98L718.043 131.52C717.817 132.027 717.47 132.487 717.003 132.9C716.55 133.3 716.01 133.62 715.383 133.86C714.757 134.087 714.077 134.2 713.343 134.2ZM710.203 128.04H716.523C716.483 127.44 716.31 126.913 716.003 126.46C715.71 125.993 715.33 125.633 714.863 125.38C714.41 125.113 713.903 124.98 713.343 124.98C712.797 124.98 712.29 125.113 711.823 125.38C711.37 125.633 710.997 125.993 710.703 126.46C710.41 126.913 710.243 127.44 710.203 128.04ZM726.378 125.44C725.524 125.453 724.764 125.647 724.098 126.02C723.444 126.393 722.978 126.92 722.698 127.6V134H720.498V123.54H722.538V125.88C722.898 125.16 723.371 124.587 723.958 124.16C724.544 123.72 725.164 123.48 725.818 123.44C725.951 123.44 726.058 123.44 726.138 123.44C726.231 123.44 726.311 123.447 726.378 123.46V125.44ZM732.523 134.2C731.71 134.2 730.97 134.06 730.303 133.78C729.65 133.487 729.083 133.093 728.603 132.6C728.123 132.093 727.75 131.52 727.483 130.88C727.23 130.227 727.103 129.533 727.103 128.8C727.103 127.813 727.33 126.913 727.783 126.1C728.236 125.273 728.87 124.613 729.683 124.12C730.496 123.613 731.45 123.36 732.543 123.36C733.636 123.36 734.576 123.613 735.363 124.12C736.163 124.613 736.783 125.267 737.223 126.08C737.663 126.893 737.883 127.767 737.883 128.7C737.883 128.86 737.876 129.013 737.863 129.16C737.85 129.293 737.836 129.407 737.823 129.5H729.443C729.483 130.113 729.65 130.653 729.943 131.12C730.25 131.573 730.636 131.933 731.103 132.2C731.57 132.453 732.07 132.58 732.603 132.58C733.19 132.58 733.743 132.433 734.263 132.14C734.796 131.847 735.156 131.46 735.343 130.98L737.223 131.52C736.996 132.027 736.65 132.487 736.183 132.9C735.73 133.3 735.19 133.62 734.563 133.86C733.936 134.087 733.256 134.2 732.523 134.2ZM729.383 128.04H735.703C735.663 127.44 735.49 126.913 735.183 126.46C734.89 125.993 734.51 125.633 734.043 125.38C733.59 125.113 733.083 124.98 732.523 124.98C731.976 124.98 731.47 125.113 731.003 125.38C730.55 125.633 730.176 125.993 729.883 126.46C729.59 126.913 729.423 127.44 729.383 128.04ZM739.017 128.78C739.017 127.78 739.217 126.873 739.617 126.06C740.031 125.233 740.591 124.58 741.297 124.1C742.004 123.607 742.817 123.36 743.737 123.36C744.537 123.36 745.257 123.567 745.897 123.98C746.551 124.393 747.057 124.907 747.417 125.52V119.4H749.617V131.52C749.617 131.773 749.664 131.953 749.757 132.06C749.851 132.167 750.004 132.227 750.217 132.24V134C749.804 134.067 749.484 134.1 749.257 134.1C748.844 134.1 748.491 133.98 748.197 133.74C747.917 133.5 747.771 133.213 747.757 132.88L747.737 132.1C747.337 132.767 746.797 133.287 746.117 133.66C745.437 134.02 744.731 134.2 743.997 134.2C743.277 134.2 742.611 134.06 741.997 133.78C741.397 133.5 740.871 133.107 740.417 132.6C739.977 132.093 739.631 131.513 739.377 130.86C739.137 130.207 739.017 129.513 739.017 128.78ZM747.417 130.24V127.5C747.271 127.073 747.031 126.693 746.697 126.36C746.377 126.013 746.011 125.74 745.597 125.54C745.197 125.34 744.797 125.24 744.397 125.24C743.931 125.24 743.504 125.34 743.117 125.54C742.744 125.74 742.417 126.007 742.137 126.34C741.871 126.673 741.664 127.053 741.517 127.48C741.371 127.907 741.297 128.353 741.297 128.82C741.297 129.3 741.377 129.753 741.537 130.18C741.697 130.593 741.924 130.967 742.217 131.3C742.524 131.62 742.871 131.873 743.257 132.06C743.657 132.233 744.091 132.32 744.557 132.32C744.851 132.32 745.144 132.267 745.437 132.16C745.744 132.053 746.031 131.907 746.297 131.72C746.577 131.533 746.811 131.313 746.997 131.06C747.197 130.807 747.337 130.533 747.417 130.24ZM763.173 133.46C762.987 133.553 762.753 133.653 762.473 133.76C762.193 133.867 761.873 133.96 761.513 134.04C761.167 134.12 760.807 134.16 760.433 134.16C759.98 134.16 759.56 134.08 759.173 133.92C758.787 133.76 758.473 133.507 758.233 133.16C758.007 132.8 757.893 132.34 757.893 131.78V125.24H756.513V123.54H757.893V120.1H760.093V123.54H762.373V125.24H760.093V131.08C760.12 131.44 760.233 131.707 760.433 131.88C760.647 132.053 760.907 132.14 761.213 132.14C761.52 132.14 761.813 132.087 762.093 131.98C762.373 131.873 762.58 131.787 762.713 131.72L763.173 133.46ZM769.26 134.2C768.434 134.2 767.694 134.06 767.04 133.78C766.387 133.487 765.82 133.087 765.34 132.58C764.874 132.073 764.514 131.5 764.26 130.86C764.007 130.207 763.88 129.513 763.88 128.78C763.88 128.047 764.007 127.353 764.26 126.7C764.514 126.047 764.874 125.473 765.34 124.98C765.82 124.473 766.387 124.08 767.04 123.8C767.707 123.507 768.447 123.36 769.26 123.36C770.074 123.36 770.807 123.507 771.46 123.8C772.127 124.08 772.694 124.473 773.16 124.98C773.64 125.473 774.007 126.047 774.26 126.7C774.514 127.353 774.64 128.047 774.64 128.78C774.64 129.513 774.514 130.207 774.26 130.86C774.007 131.5 773.64 132.073 773.16 132.58C772.694 133.087 772.127 133.487 771.46 133.78C770.807 134.06 770.074 134.2 769.26 134.2ZM766.14 128.8C766.14 129.467 766.28 130.067 766.56 130.6C766.84 131.133 767.214 131.553 767.68 131.86C768.147 132.167 768.674 132.32 769.26 132.32C769.834 132.32 770.354 132.167 770.82 131.86C771.3 131.54 771.68 131.113 771.96 130.58C772.24 130.033 772.38 129.433 772.38 128.78C772.38 128.113 772.24 127.513 771.96 126.98C771.68 126.447 771.3 126.027 770.82 125.72C770.354 125.4 769.834 125.24 769.26 125.24C768.674 125.24 768.147 125.4 767.68 125.72C767.214 126.04 766.84 126.467 766.56 127C766.28 127.52 766.14 128.12 766.14 128.8ZM787.353 133.46C787.166 133.553 786.933 133.653 786.653 133.76C786.373 133.867 786.053 133.96 785.693 134.04C785.346 134.12 784.986 134.16 784.613 134.16C784.16 134.16 783.74 134.08 783.353 133.92C782.966 133.76 782.653 133.507 782.413 133.16C782.186 132.8 782.073 132.34 782.073 131.78V125.24H780.693V123.54H782.073V120.1H784.273V123.54H786.553V125.24H784.273V131.08C784.3 131.44 784.413 131.707 784.613 131.88C784.826 132.053 785.086 132.14 785.393 132.14C785.7 132.14 785.993 132.087 786.273 131.98C786.553 131.873 786.76 131.787 786.893 131.72L787.353 133.46ZM788.117 130.94C788.117 130.273 788.303 129.693 788.677 129.2C789.063 128.693 789.59 128.307 790.257 128.04C790.923 127.76 791.697 127.62 792.577 127.62C793.043 127.62 793.517 127.653 793.997 127.72C794.49 127.787 794.923 127.893 795.297 128.04V127.38C795.297 126.647 795.077 126.073 794.637 125.66C794.197 125.247 793.563 125.04 792.737 125.04C792.15 125.04 791.597 125.147 791.077 125.36C790.557 125.56 790.003 125.847 789.417 126.22L788.677 124.74C789.37 124.273 790.063 123.927 790.757 123.7C791.463 123.473 792.203 123.36 792.977 123.36C794.377 123.36 795.477 123.733 796.277 124.48C797.09 125.213 797.497 126.26 797.497 127.62V131.52C797.497 131.773 797.537 131.953 797.617 132.06C797.71 132.167 797.863 132.227 798.077 132.24V134C797.877 134.04 797.697 134.067 797.537 134.08C797.377 134.093 797.243 134.1 797.137 134.1C796.67 134.1 796.317 133.987 796.077 133.76C795.837 133.533 795.697 133.267 795.657 132.96L795.597 132.36C795.143 132.947 794.563 133.4 793.857 133.72C793.15 134.04 792.437 134.2 791.717 134.2C791.023 134.2 790.403 134.06 789.857 133.78C789.31 133.487 788.883 133.093 788.577 132.6C788.27 132.107 788.117 131.553 788.117 130.94ZM794.777 131.58C794.937 131.407 795.063 131.233 795.157 131.06C795.25 130.887 795.297 130.733 795.297 130.6V129.4C794.923 129.253 794.53 129.147 794.117 129.08C793.703 129 793.297 128.96 792.897 128.96C792.097 128.96 791.443 129.12 790.937 129.44C790.443 129.76 790.197 130.2 790.197 130.76C790.197 131.067 790.277 131.36 790.437 131.64C790.61 131.92 790.85 132.147 791.157 132.32C791.477 132.493 791.87 132.58 792.337 132.58C792.817 132.58 793.277 132.487 793.717 132.3C794.157 132.113 794.51 131.873 794.777 131.58ZM805.806 134.2C805.006 134.2 804.279 134.013 803.626 133.64C802.986 133.253 802.479 132.74 802.106 132.1V134H800.166V119.4H802.366V125.52C802.779 124.853 803.292 124.327 803.906 123.94C804.532 123.553 805.266 123.36 806.106 123.36C806.799 123.36 807.432 123.507 808.006 123.8C808.579 124.093 809.066 124.493 809.466 125C809.879 125.507 810.192 126.087 810.406 126.74C810.632 127.393 810.746 128.087 810.746 128.82C810.746 129.553 810.619 130.247 810.366 130.9C810.126 131.553 809.779 132.127 809.326 132.62C808.872 133.113 808.346 133.5 807.746 133.78C807.159 134.06 806.512 134.2 805.806 134.2ZM805.226 132.32C805.706 132.32 806.146 132.227 806.546 132.04C806.946 131.84 807.292 131.58 807.586 131.26C807.879 130.94 808.099 130.567 808.246 130.14C808.406 129.713 808.486 129.273 808.486 128.82C808.486 128.193 808.352 127.607 808.086 127.06C807.832 126.513 807.472 126.073 807.006 125.74C806.539 125.407 805.999 125.24 805.386 125.24C804.946 125.24 804.532 125.347 804.146 125.56C803.759 125.76 803.412 126.033 803.106 126.38C802.812 126.713 802.566 127.087 802.366 127.5V130.26C802.446 130.567 802.586 130.847 802.786 131.1C802.986 131.34 803.219 131.553 803.486 131.74C803.752 131.913 804.039 132.053 804.346 132.16C804.652 132.267 804.946 132.32 805.226 132.32ZM812.744 119.4H814.944V130.98C814.944 131.513 815.024 131.853 815.184 132C815.344 132.147 815.544 132.22 815.784 132.22C816.051 132.22 816.298 132.193 816.524 132.14C816.764 132.087 816.971 132.02 817.144 131.94L817.464 133.68C817.144 133.813 816.764 133.927 816.324 134.02C815.884 134.113 815.491 134.16 815.144 134.16C814.398 134.16 813.811 133.953 813.384 133.54C812.958 133.113 812.744 132.527 812.744 131.78V119.4ZM823.48 134.2C822.667 134.2 821.927 134.06 821.26 133.78C820.607 133.487 820.04 133.093 819.56 132.6C819.08 132.093 818.707 131.52 818.44 130.88C818.187 130.227 818.06 129.533 818.06 128.8C818.06 127.813 818.287 126.913 818.74 126.1C819.193 125.273 819.827 124.613 820.64 124.12C821.453 123.613 822.407 123.36 823.5 123.36C824.593 123.36 825.533 123.613 826.32 124.12C827.12 124.613 827.74 125.267 828.18 126.08C828.62 126.893 828.84 127.767 828.84 128.7C828.84 128.86 828.833 129.013 828.82 129.16C828.807 129.293 828.793 129.407 828.78 129.5H820.4C820.44 130.113 820.607 130.653 820.9 131.12C821.207 131.573 821.593 131.933 822.06 132.2C822.527 132.453 823.027 132.58 823.56 132.58C824.147 132.58 824.7 132.433 825.22 132.14C825.753 131.847 826.113 131.46 826.3 130.98L828.18 131.52C827.953 132.027 827.607 132.487 827.14 132.9C826.687 133.3 826.147 133.62 825.52 133.86C824.893 134.087 824.213 134.2 823.48 134.2ZM820.34 128.04H826.66C826.62 127.44 826.447 126.913 826.14 126.46C825.847 125.993 825.467 125.633 825 125.38C824.547 125.113 824.04 124.98 823.48 124.98C822.933 124.98 822.427 125.113 821.96 125.38C821.507 125.633 821.133 125.993 820.84 126.46C820.547 126.913 820.38 127.44 820.34 128.04Z" fill="black"/>
<rect x="733" y="28" width="24" height="24" fill="#DEDCDC"/>
<rect x="397" y="28" width="24" height="24" fill="#DEDCDC"/>
</svg>
