<svg width="11" height="11" viewBox="0 0 195 199" fill="none" xmlns="http://www.w3.org/2000/svg">
<path d="M194.735 19.6961C194.729 18.9181 194.509 18.1567 194.099 17.4949C193.689 16.833 193.105 16.2959 192.41 15.9421C191.715 15.5883 190.937 15.4312 190.159 15.4879C189.381 15.5447 188.634 15.8132 187.998 16.2641L171.264 28.2312L169.946 29.1776C151.914 11.2256 127.164 0 99.7396 0C44.7416 0 0 44.6385 0 99.5C0 154.361 44.7444 199 99.7396 199C116.071 199.003 132.153 195.005 146.572 187.356C160.992 179.708 173.308 168.644 182.438 155.137C182.806 154.595 183.064 153.987 183.196 153.346C183.328 152.705 183.332 152.045 183.208 151.402C183.084 150.76 182.834 150.148 182.472 149.603C182.11 149.057 181.644 148.588 181.101 148.222L156.148 130.947C154.974 130.164 153.538 129.876 152.152 130.145C150.766 130.414 149.543 131.22 148.749 132.385C137.719 148.652 119.441 158.364 99.8325 158.364C67.2926 158.364 40.817 131.958 40.817 99.5056C40.817 67.0532 67.2926 40.6476 99.8325 40.6476C113.566 40.6476 126.162 45.4109 136.19 53.2859L133.372 55.308L116.626 67.2723C115.995 67.729 115.501 68.35 115.199 69.0674C114.897 69.7848 114.798 70.5712 114.914 71.3407C115.029 72.1102 115.354 72.8334 115.853 73.4314C116.352 74.0294 117.006 74.4792 117.744 74.7317L189.383 99.0787C190.681 99.5309 192.103 99.3118 193.235 98.5086C194.358 97.6941 195.006 96.4106 195 95.0513L194.735 19.6961Z" fill="black"/>
</svg>
