<svg width="59" height="89" viewBox="0 0 59 89" fill="none" xmlns="http://www.w3.org/2000/svg">
<path d="M32.4461 20.8609C32.0721 20.8616 31.7132 20.7151 31.4487 20.4543C31.1836 20.193 31.0356 19.8391 31.0356 19.4703C31.0356 16.6605 29.3456 14.6031 27.3898 12.2198C25.0933 9.42366 22.4914 6.25574 22.5714 1.36933C22.5833 0.610079 23.2111 0.00104897 23.9819 0.000429153H24.0039C24.7828 0.0122247 25.4043 0.644836 25.3924 1.41278C25.3288 5.29158 27.3954 7.80647 29.581 10.4692C31.6828 13.0287 33.8564 15.676 33.8564 19.4704C33.8564 19.8391 33.7078 20.193 33.4434 20.4544C33.1789 20.7151 32.82 20.8616 32.446 20.861L32.4461 20.8609Z" fill="black"/>
<path d="M49.3704 2.78125H23.9815C23.2026 2.78125 22.571 2.15857 22.571 1.39062C22.571 0.622682 23.2026 0 23.9815 0H49.3704C50.1493 0 50.7809 0.622682 50.7809 1.39062C50.7809 2.15857 50.1493 2.78125 49.3704 2.78125Z" fill="black"/>
<path d="M49.3705 9.73436C48.9958 9.73436 48.6375 9.58785 48.3724 9.32711C48.1079 9.06637 47.9593 8.7125 47.96 8.34374V1.39062C47.96 0.622681 48.5915 0 49.3705 0C50.1494 0 50.7809 0.622681 50.7809 1.39062V8.34374C50.7809 8.7125 50.6323 9.06637 50.3679 9.32711C50.1034 9.58785 49.7445 9.73436 49.3705 9.73436Z" fill="black"/>
<path d="M43.7284 20.8609C43.3537 20.8616 42.9954 20.715 42.7303 20.4543C42.4659 20.1929 42.3172 19.8391 42.3179 19.4703C42.3179 16.9783 43.8108 15.2792 45.2548 13.6359C46.6457 12.0528 47.9598 10.5579 47.9598 8.34406C47.9598 7.57612 48.5914 6.95344 49.3703 6.95344C50.1492 6.95344 50.7808 7.57612 50.7808 8.34406C50.7808 11.594 48.8993 13.7371 47.3868 15.4574C46.1803 16.8306 45.1389 18.0158 45.1389 19.4703C45.1389 19.8391 44.9903 20.1929 44.7258 20.4543C44.4613 20.715 44.1024 20.8616 43.7284 20.8609Z" fill="black"/>
<path d="M18.6121 66.7499C18.5926 66.7499 18.5749 66.7499 18.5554 66.7487C18.1814 66.7344 17.8287 66.5742 17.575 66.3029C17.3212 66.0323 17.1865 65.6734 17.2016 65.3047C17.6808 53.2454 20.5087 35.3753 31.2567 18.7228C31.6748 18.0746 32.5469 17.8841 33.2043 18.2963C33.8617 18.7091 34.055 19.5683 33.6369 20.2164C23.2263 36.3445 20.4853 53.6963 20.0193 65.4125V65.4131C19.9909 66.1587 19.3688 66.7491 18.6119 66.7491L18.6121 66.7499Z" fill="black"/>
<path d="M56.4133 86.2171C56.3207 86.2171 56.2275 86.2084 56.1368 86.1897C55.7697 86.1177 55.4467 85.9048 55.2395 85.5987C55.0317 85.292 54.9562 84.9164 55.0292 84.5545C55.0979 84.2112 61.7246 49.959 42.5263 20.2171C42.3254 19.9061 42.258 19.5293 42.3393 19.1686C42.4205 18.8085 42.6434 18.495 42.9589 18.2969C43.6163 17.8847 44.4884 18.0753 44.9065 18.7234C64.7275 49.4332 57.8666 84.7471 57.7948 85.0999C57.6632 85.7499 57.0852 86.2173 56.4133 86.218L56.4133 86.2171Z" fill="black"/>
<path d="M43.7285 20.8609H32.4459C31.667 20.8609 31.0354 20.2383 31.0354 19.4703C31.0354 18.7024 31.667 18.0797 32.4459 18.0797H43.7285C44.5075 18.0797 45.139 18.7024 45.139 19.4703C45.139 20.2383 44.5075 20.8609 43.7285 20.8609Z" fill="black"/>
<path d="M49.3703 9.73436H26.1834C25.4045 9.73436 24.7729 9.11168 24.7729 8.34374C24.7729 7.5758 25.4045 6.95312 26.1834 6.95312H49.3703C50.1492 6.95312 50.7808 7.5758 50.7808 8.34374C50.7808 9.11168 50.1492 9.73436 49.3703 9.73436Z" fill="black"/>
<path d="M47.9615 13.9062H29.4349C28.656 13.9062 28.0244 13.2836 28.0244 12.5156C28.0244 11.7477 28.656 11.125 29.4349 11.125H47.9615C48.7404 11.125 49.372 11.7477 49.372 12.5156C49.372 13.2836 48.7404 13.9062 47.9615 13.9062Z" fill="black"/>
<path d="M53.6036 88.9999C52.8247 88.9999 52.1931 88.3772 52.1931 87.6093C52.1931 86.8413 52.8247 86.2186 53.6036 86.2186C54.71 86.2186 54.9675 85.1254 55.0267 84.6554H55.0261C55.1243 83.8956 55.8277 83.3567 56.599 83.4511C57.3704 83.5454 57.9188 84.237 57.825 84.9975C57.7683 86.0684 57.3005 87.0779 56.5165 87.8217C55.7326 88.5648 54.6911 88.9857 53.6037 89L53.6036 88.9999Z" fill="black"/>
<path d="M53.6036 88.9999H22.576C21.7971 88.9999 21.1655 88.3772 21.1655 87.6093C21.1655 86.8413 21.7971 86.2187 22.576 86.2187H53.6036C54.3825 86.2187 55.0141 86.8413 55.0141 87.6093C55.0141 88.3772 54.3825 88.9999 53.6036 88.9999Z" fill="black"/>
<path d="M50.9019 34.7656H25.2584C24.4795 34.7656 23.8479 34.1429 23.8479 33.375C23.8479 32.607 24.4795 31.9843 25.2584 31.9843H50.9019C51.6809 31.9843 52.3124 32.607 52.3124 33.375C52.3124 34.1429 51.6809 34.7656 50.9019 34.7656Z" fill="black"/>
<path d="M52.4574 38.9375H23.7027C22.9238 38.9375 22.2922 38.3148 22.2922 37.5468C22.2922 36.7789 22.9238 36.1562 23.7027 36.1562H52.4574C53.2363 36.1562 53.8679 36.7789 53.8679 37.5468C53.8679 38.3148 53.2363 38.9375 52.4574 38.9375Z" fill="black"/>
<path d="M38.2124 65.3577C37.0903 65.3577 36.0134 64.9182 35.2202 64.136C34.4268 63.3531 33.981 62.2921 33.981 61.1859C33.981 60.0796 34.4268 59.018 35.2202 58.2359C36.0136 57.4537 37.0904 57.0141 38.2124 57.0141C39.3344 57.0141 40.4106 57.4537 41.2045 58.2359C41.9979 59.0181 42.4437 60.0798 42.4437 61.1859C42.4425 62.2916 41.996 63.3526 41.2026 64.1342C40.4099 64.9164 39.3337 65.3566 38.2122 65.3578L38.2124 65.3577ZM38.2124 59.7952C37.6419 59.7952 37.1274 60.1342 36.9089 60.6538C36.691 61.1734 36.8113 61.7713 37.2149 62.1692C37.6179 62.5665 38.2249 62.6857 38.752 62.4703C39.279 62.2555 39.6228 61.7483 39.6228 61.1858C39.6222 60.4179 38.9913 59.7958 38.2124 59.7952Z" fill="black"/>
<path d="M40.7091 61.286C40.1525 61.286 39.6487 60.9638 39.4214 60.4634C39.1941 59.963 39.286 59.3782 39.6563 58.9691C40.4774 58.0342 40.9616 56.8577 41.034 55.6229C41.034 54.6289 40.4963 53.7108 39.6235 53.2141C38.7508 52.7175 37.6753 52.7175 36.8026 53.2141C35.9298 53.7108 35.3921 54.629 35.3921 55.6229C35.4525 56.772 35.8757 57.8739 36.6029 58.7747C36.8384 59.0628 36.9486 59.4315 36.9077 59.7991C36.8668 60.1672 36.6791 60.5043 36.3857 60.7352C36.0923 60.9662 35.7176 61.0724 35.3448 61.0301C34.9721 60.9879 34.6314 60.8011 34.399 60.5105C33.2713 59.118 32.6296 57.4033 32.571 55.6228C32.571 53.6356 33.6465 51.7992 35.392 50.8054C37.1375 49.8121 39.2885 49.8121 41.034 50.8054C42.7795 51.7993 43.855 53.6358 43.855 55.6228C43.7882 57.5424 43.0484 59.3794 41.7613 60.8216C41.4937 61.1171 41.1109 61.2859 40.7091 61.2859L40.7091 61.286Z" fill="black"/>
<path d="M38.2124 72.3124C37.0235 72.3143 35.8643 71.9455 34.9008 71.2583C33.9374 70.571 33.2195 69.6007 32.8499 68.4869C32.6062 67.7568 33.0092 66.9709 33.7491 66.7306C34.4896 66.4909 35.2868 66.8876 35.5305 67.6177C35.7792 68.3645 36.3378 68.9729 37.0663 69.292C37.7955 69.6105 38.6273 69.6105 39.3565 69.292C40.0856 68.9729 40.6435 68.3645 40.8929 67.6177C41.1359 66.8876 41.9337 66.4909 42.6736 66.7306C43.4142 66.9708 43.8165 67.7568 43.5734 68.4869C43.2032 69.6006 42.4854 70.5703 41.5225 71.2576C40.5597 71.945 39.4011 72.3143 38.2123 72.3124L38.2124 72.3124Z" fill="black"/>
<path d="M30.1717 62.5781C29.7706 62.5787 29.3877 62.4104 29.1207 62.1149C28.0572 60.9428 27.5465 59.3821 27.7153 57.8183C27.8834 56.2551 28.7146 54.8347 30.0041 53.9083C31.2931 52.9827 32.9189 52.6375 34.4806 52.9591C34.8477 53.033 35.1701 53.2478 35.3767 53.5569C35.5826 53.8655 35.6556 54.2429 35.5788 54.6049C35.5026 54.9668 35.2829 55.2841 34.9686 55.4858C34.6544 55.6876 34.2716 55.7577 33.9045 55.6808C33.1236 55.52 32.3107 55.6926 31.6659 56.1551C31.0211 56.6182 30.6049 57.3284 30.5205 58.1107C30.4361 58.8929 30.6911 59.6733 31.2226 60.2599C31.5941 60.6684 31.6867 61.2538 31.4594 61.7548C31.2327 62.2558 30.7283 62.578 30.1717 62.578L30.1717 62.5781Z" fill="black"/>
<path d="M43.0884 69.5328C42.1005 69.5322 41.1307 69.2745 40.277 68.7859C38.6227 67.7697 37.3791 66.2183 36.7577 64.3968C36.524 63.6698 36.9277 62.8926 37.6625 62.6554C38.398 62.4177 39.1895 62.8081 39.4383 63.5308C39.8476 64.6985 40.6391 65.6998 41.6875 66.3765C42.3354 66.7453 43.1055 66.8453 43.8277 66.6547C44.5506 66.4635 45.1664 65.9972 45.5405 65.3584C45.9145 64.7196 46.0159 63.9603 45.8226 63.2477C45.6311 62.5344 45.1576 61.9266 44.5084 61.5597C43.4682 61.0351 42.2876 60.8458 41.1321 61.0184C40.3614 61.132 39.6429 60.6086 39.5277 59.8488C39.4118 59.0889 39.9426 58.3805 40.7134 58.2669C42.4998 58.0012 44.3252 58.3116 45.919 59.151C47.2149 59.8885 48.1606 61.1034 48.548 62.5288C48.9352 63.9536 48.7325 65.4722 47.9838 66.7498C47.2357 68.0274 46.0035 68.9599 44.5583 69.3418C44.0785 69.4684 43.5848 69.5324 43.0886 69.533L43.0884 69.5328Z" fill="black"/>
<path d="M29.3349 66.7499C28.7386 66.7493 28.2065 66.3793 28.0057 65.8249C27.5655 64.6001 27.5743 63.2616 28.0309 62.0423C28.4874 60.823 29.3626 59.7999 30.5043 59.1506C32.2233 58.246 34.2082 57.9592 36.1179 58.3398C36.485 58.4136 36.8074 58.6284 37.0139 58.9376C37.2198 59.2468 37.2929 59.6236 37.2161 59.9855C37.1399 60.3475 36.9201 60.6647 36.6059 60.8665C36.2917 61.0682 35.9088 61.1384 35.5417 61.0614C34.3101 60.8317 33.0362 61.0068 31.9147 61.5593C31.3442 61.8834 30.9066 62.3943 30.678 63.0033C30.4495 63.6123 30.4444 64.2816 30.6642 64.8938C30.8178 65.3197 30.7523 65.7921 30.4879 66.1615C30.2234 66.5309 29.7933 66.75 29.3349 66.75L29.3349 66.7499Z" fill="black"/>
<path d="M33.3278 69.5312C32.9317 69.5312 32.5369 69.4896 32.1497 69.4076C31.3884 69.2468 30.9029 68.5081 31.066 67.7575C31.229 67.0069 31.9777 66.5283 32.7397 66.6891C33.421 66.8318 34.1325 66.7207 34.7352 66.3762C35.7162 65.7498 36.4731 64.8353 36.8994 63.7619C37.1872 63.0536 38.0001 62.7059 38.7218 62.9828C39.4428 63.2603 39.803 64.0593 39.5278 64.7727C38.8704 66.4359 37.684 67.8438 36.1458 68.7856C35.2895 69.2736 34.3172 69.5306 33.3281 69.5312L33.3278 69.5312Z" fill="black"/>
<path d="M46.2529 62.5781C45.6969 62.5781 45.1926 62.2559 44.9652 61.7549C44.7379 61.2539 44.8311 60.6684 45.202 60.2599C45.7328 59.6733 45.9879 58.8929 45.9035 58.1112C45.8191 57.329 45.4029 56.6188 44.7587 56.1563C44.1139 55.6931 43.301 55.5205 42.5201 55.6807C41.7601 55.8316 41.019 55.3498 40.8609 54.6017C40.7022 53.8536 41.1865 53.1198 41.9446 52.959C43.5056 52.6381 45.1315 52.9826 46.4205 53.9089C47.7094 54.8345 48.5412 56.255 48.7093 57.8189C48.8775 59.3821 48.3674 60.9427 47.3039 62.1148C47.0369 62.4104 46.6547 62.5786 46.2529 62.578L46.2529 62.5781Z" fill="black"/>
<path d="M38.0915 76.4986C35.9536 76.5029 33.8379 76.0684 31.8797 75.2222C31.1706 74.9118 30.8489 74.0954 31.1593 73.3945C31.4704 72.6936 32.2965 72.372 33.0087 72.6744C36.5733 74.2066 40.6544 74.0414 44.0792 72.2256C47.5047 70.4103 49.895 67.146 50.5649 63.3689C51.2349 59.5925 50.1097 55.7218 47.5128 52.8679C44.916 50.0147 41.1341 48.4937 37.2539 48.742C33.3732 48.9909 29.8229 50.9813 27.6223 54.1424C25.4222 57.303 24.8145 61.2848 25.9743 64.9446C26.2073 65.6771 25.793 66.4569 25.0499 66.6866C24.3069 66.9163 23.5154 66.5084 23.2824 65.7752C21.9701 61.6467 22.4921 57.1638 24.7193 53.4359C26.9458 49.7079 30.6698 47.0843 34.968 46.214C39.2669 45.3436 43.7382 46.3084 47.2753 48.8692C50.8117 51.4307 53.0834 55.3481 53.5274 59.6522C53.9713 63.9569 52.5457 68.2448 49.6044 71.4552C46.6626 74.666 42.4796 76.498 38.0913 76.4986H38.0915Z" fill="black"/>
<path d="M1.4122 75.1064C1.03817 75.1064 0.679245 74.9599 0.414782 74.6991C0.150318 74.4384 0.00170898 74.0845 0.00170898 73.7158V65.3596C0.00170898 64.5917 0.633287 63.969 1.4122 63.969C2.19111 63.969 2.82269 64.5917 2.82269 65.3596V73.7158C2.82332 74.0845 2.67472 74.4384 2.41025 74.6991C2.14516 74.9599 1.78686 75.1064 1.4122 75.1064V75.1064Z" fill="black"/>
<path d="M32.4444 75.1064C32.0698 75.1064 31.7115 74.9599 31.4464 74.6991C31.1819 74.4384 31.0333 74.0845 31.0339 73.7158V65.3596C31.0339 64.5917 31.6655 63.969 32.4444 63.969C33.2233 63.969 33.8549 64.5917 33.8549 65.3596V73.7158C33.8549 74.0845 33.7063 74.4384 33.4419 74.6991C33.1774 74.9599 32.8185 75.1064 32.4444 75.1064V75.1064Z" fill="black"/>
<path d="M26.8043 88.9999C26.4303 88.9999 26.0713 88.8534 25.8069 88.5927C25.5418 88.3319 25.3938 87.978 25.3938 87.6093C25.3938 86.1193 26.3251 84.7082 27.5039 82.9215C29.0768 80.5382 31.0345 77.5707 31.0345 73.7154C31.0345 72.9475 31.6661 72.3248 32.445 72.3248C33.2239 72.3248 33.8555 72.9475 33.8555 73.7154C33.8555 78.3964 31.5508 81.8879 29.869 84.4388V84.4382C29.1109 85.3775 28.5492 86.4552 28.2148 87.6093C28.2148 87.9781 28.0662 88.3319 27.8017 88.5927C27.5372 88.8534 27.1783 88.9999 26.8043 88.9999V88.9999Z" fill="black"/>
<path d="M7.05239 88.9999C6.67836 88.9999 6.31944 88.8534 6.05497 88.5926C5.79051 88.3319 5.6419 87.978 5.6419 87.6093C5.30754 86.4552 4.74586 85.3774 3.98767 84.4382C2.30572 81.8879 0.0012207 78.3964 0.0012207 73.7148V73.7154C0.0012207 72.9475 0.632799 72.3248 1.41171 72.3248C2.19063 72.3248 2.8222 72.9475 2.8222 73.7154C2.8222 77.5707 4.77932 80.5382 6.35279 82.9215C7.53155 84.7088 8.46288 86.1199 8.46288 87.6093C8.46288 87.978 8.31491 88.3319 8.04981 88.5926C7.78535 88.8534 7.42642 88.9999 7.05239 88.9999V88.9999Z" fill="black"/>
<path d="M32.4445 66.7499H1.41049C0.631578 66.7499 0 66.1272 0 65.3593C0 64.5914 0.631578 63.9687 1.41049 63.9687H32.4445C33.2235 63.9687 33.855 64.5914 33.855 65.3593C33.855 66.1272 33.2235 66.7499 32.4445 66.7499Z" fill="black"/>
<path d="M26.8042 88.9999H7.05087C6.27196 88.9999 5.64038 88.3772 5.64038 87.6093C5.64038 86.8413 6.27196 86.2187 7.05087 86.2187H26.8042C27.5831 86.2187 28.2147 86.8413 28.2147 87.6093C28.2147 88.3772 27.5831 88.9999 26.8042 88.9999Z" fill="black"/>
<path d="M16.9307 84.8344C14.6859 84.8344 12.5337 83.9553 10.9462 82.3902C9.3594 80.8258 8.46777 78.7033 8.46777 76.4907C8.46777 74.2774 9.3594 72.1556 10.9462 70.5904C12.5336 69.026 14.6859 68.1469 16.9307 68.1469C19.1749 68.1469 21.3278 69.026 22.9146 70.5904C24.502 72.1555 25.3937 74.2774 25.3937 76.4907C25.3912 78.7026 24.4989 80.824 22.912 82.3877C21.3252 83.9522 19.1741 84.8318 16.9307 84.8344ZM16.9307 70.9282C15.4346 70.9282 13.9995 71.5142 12.941 72.5572C11.8832 73.6008 11.2888 75.0156 11.2888 76.4907C11.2888 77.9657 11.8832 79.3806 12.941 80.4241C13.9995 81.4671 15.4346 82.0531 16.9307 82.0531C18.4268 82.0531 19.862 81.4671 20.9204 80.4241C21.9783 79.3805 22.5727 77.9657 22.5727 76.4907C22.5714 75.0156 21.9764 73.602 20.9185 72.5591C19.8606 71.5162 18.4262 70.9294 16.9307 70.9282Z" fill="black"/>
<path d="M16.9276 80.6641C16.5536 80.6641 16.1946 80.5182 15.9302 80.2569C15.6657 79.9961 15.5171 79.6422 15.5171 79.2735V73.7084C15.5171 72.9405 16.1487 72.3178 16.9276 72.3178C17.7071 72.3178 18.3381 72.9405 18.3381 73.7084V79.2735C18.3387 79.6422 18.1901 79.9961 17.9256 80.2569C17.6612 80.5182 17.3022 80.6641 16.9276 80.6641Z" fill="black"/>
<path d="M14.4853 79.2719C13.8468 79.2725 13.287 78.8504 13.1214 78.242C12.9558 77.6336 13.2253 76.9916 13.7788 76.6769L18.6657 73.8944V73.8937C18.9899 73.7094 19.3747 73.6591 19.7367 73.7547C20.0982 73.8503 20.4061 74.0831 20.5931 74.4028C20.7808 74.7225 20.8311 75.1025 20.7342 75.4588C20.6372 75.8152 20.4004 76.1187 20.0762 76.3031L15.1892 79.0856C14.9752 79.2079 14.7327 79.2719 14.4853 79.2719V79.2719Z" fill="black"/>
<path d="M19.3712 79.2719C19.1238 79.2719 18.8813 79.208 18.6672 79.0856L13.7803 76.3031C13.1059 75.9188 12.8748 75.0683 13.2646 74.4035C13.6538 73.7386 14.5158 73.5107 15.1908 73.8938L20.0777 76.6763V76.6769C20.6312 76.9917 20.9007 77.6336 20.7351 78.242C20.5695 78.8504 20.0097 79.2725 19.3712 79.2719L19.3712 79.2719Z" fill="black"/>
</svg>
