<svg width="211" height="323" viewBox="0 0 211 323" fill="none" xmlns="http://www.w3.org/2000/svg">
<path d="M116.036 75.7088C114.699 75.7111 113.415 75.1793 112.469 74.233C111.521 73.2845 110.992 72.0003 110.992 70.6619C110.992 60.4644 104.948 52.9979 97.9534 44.3484C89.7407 34.2005 80.4356 22.7034 80.7215 4.96958C80.7643 2.2141 83.0095 0.00380586 85.7658 0.0015564H85.8446C88.6302 0.0443648 90.8529 2.34025 90.8101 5.12727C90.5827 19.2043 97.9736 28.3313 105.79 37.9948C113.307 47.2839 121.08 56.8914 121.08 70.6622C121.08 72.0005 120.549 73.2848 119.603 74.2333C118.657 75.1796 117.373 75.7113 116.036 75.709L116.036 75.7088Z" fill="black"/>
<path d="M176.562 10.0937H85.7648C82.9792 10.0937 80.7205 7.83389 80.7205 5.04687C80.7205 2.25984 82.9792 0 85.7648 0H176.562C179.348 0 181.606 2.25984 181.606 5.04687C181.606 7.83389 179.348 10.0937 176.562 10.0937Z" fill="black"/>
<path d="M176.562 35.3281C175.222 35.3281 173.941 34.7964 172.993 33.8501C172.047 32.9038 171.516 31.6195 171.518 30.2812V5.04687C171.518 2.25984 173.777 0 176.562 0C179.348 0 181.606 2.25984 181.606 5.04687V30.2812C181.606 31.6195 181.075 32.9038 180.129 33.8501C179.183 34.7963 177.9 35.3281 176.562 35.3281Z" fill="black"/>
<path d="M156.385 75.7088C155.045 75.7111 153.764 75.1793 152.816 74.2331C151.87 73.2845 151.338 72.0003 151.341 70.6619C151.341 61.618 156.68 55.4515 161.844 49.4876C166.818 43.7423 171.518 38.317 171.518 30.2824C171.518 27.4953 173.776 25.2355 176.562 25.2355C179.348 25.2355 181.606 27.4953 181.606 30.2824C181.606 42.0771 174.878 49.855 169.468 56.0981C165.154 61.0819 161.429 65.3832 161.429 70.6619C161.429 72.0003 160.898 73.2845 159.952 74.2331C159.006 75.1793 157.723 75.7111 156.385 75.7088Z" fill="black"/>
<path d="M66.5618 242.25C66.492 242.25 66.429 242.25 66.3591 242.245C65.0215 242.193 63.7604 241.612 62.8529 240.628C61.9454 239.645 61.4635 238.343 61.5175 237.005C63.2313 193.239 73.3448 128.384 111.782 67.9489C113.278 65.5967 116.397 64.905 118.748 66.4011C121.099 67.8994 121.79 71.0176 120.295 73.3698C83.0637 131.902 73.261 194.875 71.5944 237.396V237.398C71.493 240.104 69.2681 242.247 66.5613 242.247L66.5618 242.25Z" fill="black"/>
<path d="M201.749 312.9C201.418 312.9 201.085 312.869 200.76 312.801C199.448 312.54 198.292 311.767 197.551 310.656C196.808 309.543 196.538 308.18 196.799 306.866C197.045 305.62 220.744 181.312 152.085 73.3723C151.367 72.2435 151.126 70.8759 151.417 69.5668C151.707 68.26 152.504 67.1222 153.633 66.4035C155.984 64.9074 159.102 65.5992 160.598 67.9513C231.483 179.404 206.946 307.565 206.69 308.846C206.219 311.205 204.152 312.901 201.749 312.903L201.749 312.9Z" fill="black"/>
<path d="M156.385 75.7088H116.035C113.249 75.7088 110.991 73.449 110.991 70.662C110.991 67.8749 113.249 65.6151 116.035 65.6151H156.385C159.17 65.6151 161.429 67.8749 161.429 70.662C161.429 73.449 159.17 75.7088 156.385 75.7088Z" fill="black"/>
<path d="M176.562 35.3281H93.6395C90.8539 35.3281 88.5952 33.0682 88.5952 30.2812C88.5952 27.4942 90.8539 25.2343 93.6395 25.2343H176.562C179.348 25.2343 181.606 27.4942 181.606 30.2812C181.606 33.0682 179.348 35.3281 176.562 35.3281Z" fill="black"/>
<path d="M171.524 50.4687H105.267C102.482 50.4687 100.223 48.2089 100.223 45.4218C100.223 42.6348 102.482 40.375 105.267 40.375H171.524C174.309 40.375 176.568 42.6348 176.568 45.4218C176.568 48.2089 174.309 50.4687 171.524 50.4687Z" fill="black"/>
<path d="M191.701 323C188.915 323 186.656 320.74 186.656 317.953C186.656 315.166 188.915 312.906 191.701 312.906C195.657 312.906 196.578 308.938 196.79 307.233H196.788C197.139 304.475 199.655 302.519 202.413 302.862C205.172 303.204 207.133 305.714 206.798 308.474C206.595 312.361 204.922 316.024 202.118 318.724C199.315 321.421 195.59 322.948 191.701 323L191.701 323Z" fill="black"/>
<path d="M191.701 323H80.7377C77.9521 323 75.6934 320.74 75.6934 317.953C75.6934 315.166 77.9521 312.906 80.7377 312.906H191.701C194.486 312.906 196.745 315.166 196.745 317.953C196.745 320.74 194.486 323 191.701 323Z" fill="black"/>
<path d="M182.039 126.172H90.3304C87.5448 126.172 85.2861 123.912 85.2861 121.125C85.2861 118.338 87.5448 116.078 90.3304 116.078H182.039C184.824 116.078 187.083 118.338 187.083 121.125C187.083 123.912 184.824 126.172 182.039 126.172Z" fill="black"/>
<path d="M187.602 141.312H84.7674C81.9818 141.312 79.7231 139.053 79.7231 136.265C79.7231 133.478 81.9818 131.219 84.7674 131.219H187.602C190.388 131.219 192.646 133.478 192.646 136.265C192.646 139.053 190.388 141.312 187.602 141.312Z" fill="black"/>
<path d="M136.657 237.197C132.644 237.197 128.793 235.602 125.956 232.763C123.119 229.922 121.525 226.071 121.525 222.057C121.525 218.042 123.119 214.189 125.956 211.35C128.794 208.512 132.645 206.916 136.657 206.916C140.67 206.916 144.519 208.512 147.358 211.35C150.196 214.189 151.79 218.042 151.79 222.057C151.785 226.069 150.189 229.92 147.351 232.757C144.516 235.596 140.668 237.193 136.657 237.197L136.657 237.197ZM136.657 217.01C134.617 217.01 132.777 218.24 131.996 220.126C131.217 222.011 131.647 224.181 133.09 225.625C134.531 227.067 136.702 227.5 138.587 226.718C140.472 225.938 141.702 224.098 141.702 222.056C141.699 219.269 139.443 217.012 136.657 217.01Z" fill="black"/>
<path d="M145.587 222.42C143.596 222.42 141.795 221.251 140.982 219.435C140.169 217.619 140.498 215.496 141.822 214.011C144.758 210.618 146.49 206.349 146.749 201.867C146.749 198.26 144.826 194.928 141.705 193.125C138.584 191.323 134.737 191.323 131.616 193.125C128.495 194.928 126.572 198.26 126.572 201.867C126.788 206.038 128.301 210.037 130.902 213.306C131.745 214.351 132.139 215.69 131.992 217.024C131.846 218.36 131.175 219.583 130.125 220.421C129.076 221.259 127.736 221.645 126.403 221.491C125.07 221.338 123.852 220.66 123.021 219.606C118.987 214.552 116.692 208.329 116.483 201.867C116.483 194.655 120.329 187.99 126.572 184.384C132.814 180.779 140.507 180.779 146.749 184.384C152.991 187.991 156.838 194.656 156.838 201.867C156.599 208.834 153.953 215.501 149.35 220.734C148.393 221.807 147.024 222.42 145.587 222.42L145.587 222.42Z" fill="black"/>
<path d="M136.657 262.437C132.406 262.444 128.26 261.106 124.815 258.611C121.369 256.117 118.802 252.596 117.48 248.554C116.608 245.904 118.05 243.052 120.696 242.179C123.344 241.31 126.195 242.749 127.066 245.399C127.956 248.11 129.953 250.318 132.559 251.476C135.166 252.631 138.141 252.631 140.749 251.476C143.357 250.317 145.352 248.109 146.244 245.399C147.113 242.749 149.966 241.31 152.612 242.179C155.26 243.051 156.699 245.904 155.83 248.554C154.506 252.596 151.939 256.115 148.495 258.609C145.052 261.104 140.909 262.444 136.657 262.437L136.657 262.437Z" fill="black"/>
<path d="M107.902 227.109C106.467 227.111 105.098 226.501 104.144 225.428C100.34 221.175 98.5137 215.511 99.1172 209.835C99.7185 204.162 102.691 199.007 107.303 195.645C111.912 192.286 117.727 191.033 123.312 192.2C124.625 192.468 125.778 193.248 126.516 194.37C127.253 195.489 127.514 196.859 127.239 198.173C126.967 199.486 126.181 200.638 125.057 201.37C123.934 202.102 122.564 202.357 121.251 202.077C118.459 201.494 115.552 202.12 113.246 203.799C110.94 205.48 109.451 208.057 109.149 210.896C108.848 213.735 109.76 216.567 111.66 218.696C112.989 220.178 113.32 222.303 112.507 224.121C111.696 225.94 109.893 227.109 107.902 227.109L107.902 227.109Z" fill="black"/>
<path d="M154.096 252.349C150.563 252.347 147.095 251.412 144.042 249.639C138.126 245.951 133.678 240.32 131.456 233.71C130.62 231.071 132.064 228.251 134.692 227.39C137.322 226.527 140.153 227.944 141.042 230.567C142.506 234.805 145.337 238.439 149.086 240.895C151.403 242.233 154.157 242.596 156.74 241.904C159.325 241.21 161.528 239.518 162.865 237.2C164.203 234.881 164.566 232.126 163.874 229.539C163.19 226.951 161.496 224.745 159.175 223.413C155.454 221.509 151.232 220.822 147.1 221.449C144.344 221.861 141.774 219.962 141.362 217.204C140.948 214.446 142.846 211.875 145.602 211.463C151.991 210.499 158.519 211.625 164.219 214.671C168.854 217.348 172.236 221.757 173.621 226.93C175.006 232.101 174.281 237.613 171.603 242.249C168.928 246.886 164.521 250.27 159.353 251.656C157.637 252.116 155.871 252.348 154.097 252.35L154.096 252.349Z" fill="black"/>
<path d="M104.91 242.25C102.777 242.247 100.875 240.905 100.156 238.893C98.5821 234.447 98.6136 229.59 100.246 225.165C101.879 220.74 105.009 217.027 109.092 214.67C115.24 211.387 122.338 210.346 129.168 211.727C130.481 211.996 131.634 212.775 132.372 213.897C133.109 215.019 133.37 216.387 133.095 217.7C132.823 219.014 132.037 220.165 130.913 220.897C129.789 221.63 128.42 221.884 127.107 221.605C122.702 220.771 118.147 221.407 114.136 223.412C112.096 224.588 110.531 226.442 109.713 228.653C108.896 230.863 108.878 233.292 109.664 235.513C110.213 237.059 109.979 238.774 109.033 240.114C108.087 241.455 106.549 242.25 104.91 242.25L104.91 242.25Z" fill="black"/>
<path d="M119.19 252.343C117.773 252.343 116.361 252.193 114.976 251.895C112.254 251.312 110.518 248.63 111.101 245.906C111.684 243.182 114.362 241.445 117.087 242.029C119.523 242.547 122.068 242.144 124.223 240.893C127.731 238.62 130.438 235.301 131.963 231.406C132.992 228.835 135.899 227.573 138.48 228.578C141.059 229.585 142.347 232.485 141.363 235.074C139.012 241.11 134.769 246.22 129.268 249.638C126.205 251.409 122.728 252.341 119.191 252.344L119.19 252.343Z" fill="black"/>
<path d="M165.413 227.109C163.424 227.109 161.621 225.94 160.808 224.122C159.995 222.303 160.328 220.179 161.654 218.696C163.553 216.567 164.465 213.735 164.163 210.898C163.861 208.059 162.373 205.482 160.069 203.803C157.763 202.122 154.856 201.496 152.063 202.077C149.345 202.625 146.695 200.876 146.129 198.161C145.562 195.446 147.294 192.783 150.005 192.2C155.587 191.035 161.402 192.285 166.012 195.647C170.622 199.006 173.596 204.161 174.197 209.837C174.799 215.51 172.975 221.174 169.171 225.428C168.216 226.5 166.849 227.111 165.413 227.109L165.413 227.109Z" fill="black"/>
<path d="M136.225 277.63C128.58 277.646 121.013 276.068 114.01 272.997C111.474 271.871 110.323 268.908 111.434 266.364C112.546 263.821 115.501 262.654 118.048 263.751C130.796 269.311 145.391 268.712 157.639 262.122C169.889 255.534 178.438 243.687 180.833 229.979C183.229 216.274 179.205 202.226 169.918 191.869C160.631 181.514 147.106 175.994 133.23 176.895C119.351 177.799 106.655 185.022 98.7843 196.494C90.9163 207.965 88.7429 222.415 92.8908 235.698C93.724 238.356 92.2422 241.186 89.585 242.02C86.9277 242.853 84.097 241.373 83.2637 238.712C78.5707 223.729 80.4376 207.46 88.4026 193.93C96.3651 180.401 109.683 170.879 125.055 167.72C140.429 164.562 156.419 168.063 169.069 177.357C181.716 186.653 189.84 200.87 191.428 216.491C193.016 232.113 187.917 247.675 177.399 259.326C166.878 270.979 151.918 277.627 136.224 277.63H136.225Z" fill="black"/>
<path d="M5.05016 272.577C3.71253 272.577 2.42891 272.045 1.48312 271.099C0.537327 270.153 0.00585938 268.869 0.00585938 267.53V237.204C0.00585938 234.417 2.26455 232.157 5.05016 232.157C7.83577 232.157 10.0945 234.417 10.0945 237.204V267.53C10.0967 268.869 9.56526 270.153 8.61946 271.099C7.67141 272.045 6.39004 272.577 5.05016 272.577Z" fill="black"/>
<path d="M116.03 272.577C114.691 272.577 113.409 272.045 112.461 271.099C111.515 270.153 110.984 268.869 110.986 267.53V237.204C110.986 234.417 113.245 232.157 116.03 232.157C118.816 232.157 121.075 234.417 121.075 237.204V267.53C121.075 268.869 120.543 270.153 119.597 271.099C118.652 272.045 117.368 272.577 116.03 272.577Z" fill="black"/>
<path d="M95.859 323C94.5214 323 93.2377 322.468 92.292 321.522C91.3439 320.575 90.8147 319.291 90.8147 317.953C90.8147 312.545 94.1453 307.424 98.361 300.94C103.986 292.29 110.987 281.521 110.987 267.529C110.987 264.742 113.246 262.482 116.032 262.482C118.817 262.482 121.076 264.742 121.076 267.529C121.076 284.517 112.834 297.189 106.819 306.447V306.444C104.108 309.853 102.099 313.764 100.903 317.953C100.903 319.291 100.372 320.575 99.426 321.522C98.4802 322.468 97.1966 323 95.859 323V323Z" fill="black"/>
<path d="M25.2215 323C23.8839 323 22.6003 322.468 21.6545 321.522C20.7087 320.575 20.1772 319.291 20.1772 317.953C18.9815 313.764 16.9727 309.853 14.2613 306.444C8.24616 297.189 0.00463867 284.517 0.00463867 267.527V267.529C0.00463867 264.742 2.26333 262.482 5.04894 262.482C7.83455 262.482 10.0932 264.742 10.0932 267.529C10.0932 281.521 17.0924 292.29 22.7196 300.94C26.9352 307.426 30.2658 312.548 30.2658 317.953C30.2658 319.291 29.7366 320.575 28.7886 321.522C27.8428 322.468 26.5592 323 25.2215 323V323Z" fill="black"/>
<path d="M116.03 242.25H5.0443C2.25869 242.25 0 239.99 0 237.203C0 234.416 2.25869 232.156 5.0443 232.156H116.03C118.816 232.156 121.075 234.416 121.075 237.203C121.075 239.99 118.816 242.25 116.03 242.25Z" fill="black"/>
<path d="M95.859 323H25.2157C22.4301 323 20.1714 320.74 20.1714 317.953C20.1714 315.166 22.4301 312.906 25.2157 312.906H95.859C98.6446 312.906 100.903 315.166 100.903 317.953C100.903 320.74 98.6446 323 95.859 323Z" fill="black"/>
<path d="M60.549 307.882C52.5208 307.882 44.8241 304.692 39.1468 299.012C33.4719 293.334 30.2832 285.631 30.2832 277.601C30.2832 269.569 33.4719 261.868 39.1468 256.188C44.8239 250.51 52.5208 247.32 60.549 247.32C68.5749 247.32 76.274 250.51 81.949 256.188C87.6261 261.868 90.8148 269.569 90.8148 277.601C90.8058 285.629 87.6148 293.328 81.9397 299.003C76.2649 304.68 68.572 307.873 60.549 307.882ZM60.549 257.413C55.1985 257.413 50.0661 259.54 46.2808 263.325C42.4976 267.113 40.3718 272.248 40.3718 277.601C40.3718 282.954 42.4976 288.089 46.2808 291.876C50.0663 295.661 55.1986 297.788 60.549 297.788C65.8994 297.788 71.0319 295.661 74.8172 291.876C78.6004 288.089 80.7262 282.954 80.7262 277.601C80.7217 272.248 78.5937 267.117 74.8103 263.332C71.0269 259.548 65.8971 257.418 60.549 257.413Z" fill="black"/>
<path d="M60.5375 292.747C59.1998 292.747 57.9162 292.218 56.9704 291.269C56.0246 290.323 55.4932 289.039 55.4932 287.7V267.504C55.4932 264.717 57.7519 262.457 60.5375 262.457C63.3253 262.457 65.5818 264.717 65.5818 267.504V287.7C65.584 289.039 65.0526 290.323 64.1068 291.269C63.161 292.218 61.8773 292.747 60.5375 292.747Z" fill="black"/>
<path d="M51.8035 287.695C49.5201 287.697 47.5181 286.165 46.9259 283.957C46.3337 281.749 47.2975 279.419 49.2769 278.277L66.7538 268.178V268.176C67.9135 267.507 69.2895 267.324 70.5843 267.671C71.8769 268.018 72.9781 268.863 73.6469 270.024C74.318 271.184 74.4982 272.563 74.1514 273.856C73.8046 275.149 72.9578 276.251 71.7981 276.92L54.3212 287.019C53.5556 287.462 52.6886 287.695 51.8035 287.695V287.695Z" fill="black"/>
<path d="M69.2771 287.695C68.392 287.695 67.525 287.463 66.7594 287.019L49.2825 276.92C46.8707 275.526 46.0442 272.439 47.4382 270.026C48.8299 267.613 51.9127 266.786 54.3267 268.176L71.8036 278.275V278.277C73.783 279.419 74.7469 281.749 74.1546 283.957C73.5624 286.165 71.5604 287.697 69.2769 287.695L69.2771 287.695Z" fill="black"/>
</svg>
