<svg width="54" height="77" viewBox="0 0 700 572" fill="none" xmlns="http://www.w3.org/2000/svg">
<path d="M669.237 135.667C662.122 128.641 654.158 122.886 645.597 118.162C657.811 105.349 665.004 88.2243 665.004 70.0003C665.004 31.4016 633.602 0.000264486 595.004 0.000264486C556.405 0.000264486 525.004 31.4016 525.004 70.0003C525.004 88.2509 532.212 105.396 544.43 118.198C535.811 122.963 527.742 128.776 520.69 135.744C518.076 138.38 515.638 141.14 513.336 143.989V119.948C513.336 105.27 501.399 93.3331 486.722 93.3331H213.282C198.604 93.3331 186.667 105.271 186.667 119.948V144.005C184.344 141.125 181.881 138.328 179.235 135.661C172.12 128.635 164.156 122.88 155.595 118.156C167.808 105.349 175.001 88.224 175.001 70C175.001 31.4013 143.6 0 105.001 0C66.4027 0 35.0013 31.4013 35.0013 70C35.0013 88.2507 42.2096 105.396 54.428 118.197C45.8083 122.963 37.74 128.775 30.688 135.744C10.896 155.671 0 182.047 0 209.999C0 216.441 5.224 221.665 11.6667 221.665H186.667V559.999C186.667 564.796 189.599 569.103 194.068 570.858C198.505 572.608 203.604 571.452 206.88 567.947L231.687 541.269L262.827 568.748C267.238 572.633 273.858 572.633 278.264 568.748L310.212 540.555L342.16 568.748C346.572 572.633 353.191 572.633 357.598 568.748L389.551 540.555L421.499 568.748C425.91 572.633 432.53 572.633 436.936 568.748L468.108 541.237L493.15 567.972C495.4 570.378 498.504 571.665 501.665 571.665C503.108 571.665 504.561 571.399 505.957 570.852C510.405 569.092 513.332 564.79 513.332 559.998V221.665H688.332C694.775 221.665 699.999 216.441 699.999 209.998C699.999 182.045 689.103 155.67 669.233 135.665L669.237 135.667ZM104.997 23.3336C130.726 23.3336 151.664 44.2709 151.664 70.0003C151.664 86.9536 142.44 102.574 127.502 110.823C117.315 116.557 104.726 117.99 93.3411 115.125C89.5285 114.162 85.8411 112.708 82.4036 110.776C67.5543 102.573 58.3303 86.9535 58.3303 70.0001C58.3303 44.2708 79.2677 23.3336 104.997 23.3336ZM24.1584 198.334C26.6324 180.979 34.6011 164.918 47.1691 152.26C55.4868 144.041 65.1424 137.791 75.9291 133.651C76.4968 133.911 77.101 134.094 77.6739 134.338C78.7103 134.781 79.7572 135.182 80.8145 135.573C82.226 136.094 83.6427 136.557 85.0853 136.984C86.4447 137.391 87.8041 137.771 89.1843 138.094C90.1478 138.312 91.1217 138.479 92.0957 138.656C96.3405 139.453 100.637 140 104.997 140C109.377 140 113.705 139.453 117.966 138.646C118.903 138.474 119.835 138.318 120.763 138.104C122.19 137.771 123.591 137.38 124.992 136.958C126.361 136.552 127.716 136.109 129.054 135.62C130.174 135.208 131.283 134.781 132.382 134.307C132.94 134.068 133.518 133.896 134.07 133.646C144.846 137.786 154.502 144.026 162.758 152.182C175.388 164.901 183.367 180.979 185.841 198.327L24.1584 198.334ZM489.998 530.48L477.399 517.027C473.087 512.433 465.91 512.074 461.159 516.251L429.211 544.444L397.269 516.251C392.857 512.365 386.238 512.365 381.831 516.251L349.878 544.444L317.93 516.251C315.727 514.308 312.967 513.334 310.211 513.334C307.456 513.334 304.696 514.308 302.493 516.251L270.545 544.444L238.602 516.251C233.857 512.063 226.633 512.423 222.337 517.053L209.998 530.329V119.942C209.998 118.13 211.467 116.661 213.279 116.661H486.719C488.532 116.661 490 118.13 490 119.942L489.998 530.48ZM594.998 23.3336C620.728 23.3336 641.665 44.2709 641.665 70.0003C641.665 86.9536 632.441 102.574 617.504 110.823C607.316 116.557 594.728 117.99 583.342 115.125C579.53 114.162 575.842 112.708 572.405 110.776C557.556 102.573 548.332 86.9535 548.332 70.0001C548.332 44.2708 569.269 23.3336 594.998 23.3336ZM514.16 198.334C516.634 180.979 524.602 164.918 537.17 152.26C545.488 144.041 555.144 137.791 565.93 133.651C566.498 133.911 567.102 134.094 567.675 134.338C568.712 134.781 569.759 135.182 570.816 135.573C572.227 136.094 573.644 136.557 575.087 136.984C576.446 137.391 577.806 137.771 579.186 138.094C580.149 138.312 581.123 138.479 582.097 138.656C586.342 139.453 590.639 140 594.998 140C599.378 140 603.706 139.453 607.967 138.646C608.904 138.474 609.837 138.318 610.764 138.104C612.191 137.771 613.592 137.38 614.993 136.958C616.363 136.552 617.717 136.109 619.056 135.62C620.175 135.208 621.285 134.781 622.384 134.307C622.941 134.068 623.519 133.896 624.071 133.646C634.847 137.786 644.503 144.026 652.759 152.182C665.389 164.901 673.369 180.979 675.842 198.327L514.16 198.334Z" fill="black"/>
<path d="M367.491 291.667H303.324C296.881 291.667 291.657 296.891 291.657 303.334C291.657 309.776 296.881 315 303.324 315H338.324V326.667C338.324 333.11 343.548 338.334 349.991 338.334C356.433 338.334 361.657 333.11 361.657 326.667V315H367.491C390.001 315 408.324 296.678 408.324 274.167C408.324 251.656 390.001 233.334 367.491 233.334H332.491C322.839 233.334 314.991 225.485 314.991 215.834C314.991 206.183 322.839 198.334 332.491 198.334H396.657C403.1 198.334 408.324 193.11 408.324 186.667C408.324 180.224 403.1 175 396.657 175H361.657V163.334C361.657 156.891 356.433 151.667 349.991 151.667C343.548 151.667 338.324 156.891 338.324 163.334V175H332.491C309.98 175 291.657 193.323 291.657 215.834C291.657 238.344 309.98 256.667 332.491 256.667H367.491C377.142 256.667 384.991 264.516 384.991 274.167C384.991 283.818 377.142 291.667 367.491 291.667Z" fill="black"/>
<path d="M443.33 385H366.466C360.024 385 354.8 390.224 354.8 396.667C354.8 403.11 360.024 408.334 366.466 408.334H443.33C449.773 408.334 454.997 403.11 454.997 396.667C454.997 390.224 449.773 385 443.33 385Z" fill="black"/>
<path d="M443.33 443.32H256.664C250.221 443.32 244.997 448.544 244.997 454.987C244.997 461.43 250.221 466.654 256.664 466.654H443.33C449.773 466.654 454.997 461.43 454.997 454.987C454.997 448.544 449.773 443.32 443.33 443.32Z" fill="black"/>
</svg>
