<svg width="55" height="44" viewBox="0 0 55 44" fill="none" xmlns="http://www.w3.org/2000/svg">
<path d="M52.127 10.442C51.5781 9.90126 50.9638 9.4583 50.3033 9.09469C51.2455 8.10853 51.8004 6.79046 51.8004 5.3878C51.8004 2.41693 49.378 2.0357e-05 46.4004 2.0357e-05C43.4228 2.0357e-05 41.0004 2.41693 41.0004 5.3878C41.0004 6.79252 41.5564 8.11216 42.499 9.09746C41.8341 9.46426 41.2116 9.91164 40.6676 10.448C40.4659 10.6508 40.2779 10.8633 40.1003 11.0826V9.23216C40.1003 8.10248 39.1794 7.18368 38.0472 7.18368H16.9532C15.8209 7.18368 14.9001 8.10249 14.9001 9.23216V11.0838C14.7209 10.8621 14.5308 10.6469 14.3267 10.4416C13.7779 9.90083 13.1635 9.45786 12.503 9.09426C13.4452 8.1085 14.0001 6.79044 14.0001 5.38778C14.0001 2.4169 11.5777 0 8.60012 0C5.6225 0 3.20011 2.4169 3.20011 5.38778C3.20011 6.7925 3.75618 8.11214 4.69874 9.09744C4.03379 9.46424 3.41138 9.91162 2.86737 10.448C1.34055 11.9817 0.5 14.0118 0.5 16.1632C0.5 16.6591 0.902995 17.0612 1.4 17.0612H14.9V43.1021C14.9 43.4713 15.1262 43.8028 15.471 43.9379C15.8133 44.0726 16.2066 43.9836 16.4594 43.7138L18.373 41.6605L20.7753 43.7755C21.1156 44.0746 21.6262 44.0746 21.9661 43.7755L24.4307 41.6055L26.8953 43.7755C27.2356 44.0746 27.7463 44.0746 28.0862 43.7755L30.5511 41.6055L33.0157 43.7755C33.356 44.0746 33.8667 44.0746 34.2066 43.7755L36.6113 41.6581L38.5431 43.7158C38.7166 43.901 38.9561 44 39.2 44C39.3113 44 39.4234 43.9796 39.531 43.9375C39.8742 43.802 40.1 43.4708 40.1 43.102V17.0611H53.6C54.097 17.0611 54.5 16.659 54.5 16.1632C54.5 14.0116 53.6595 11.9816 52.1267 10.4419L52.127 10.442ZM8.59979 1.79595C10.5846 1.79595 12.1998 3.40745 12.1998 5.3878C12.1998 6.69266 11.4882 7.89491 10.3359 8.52984C9.55003 8.97121 8.57891 9.08145 7.70061 8.86097C7.4065 8.78681 7.12204 8.67496 6.85686 8.52624C5.71134 7.89487 4.99977 6.69265 4.99977 5.38779C4.99977 3.40744 6.61495 1.79595 8.59979 1.79595ZM2.36365 15.2654C2.5545 13.9296 3.16923 12.6934 4.13876 11.7192C4.78042 11.0866 5.52528 10.6055 6.3574 10.2869C6.40119 10.3069 6.4478 10.3209 6.492 10.3398C6.57195 10.3739 6.65271 10.4047 6.73428 10.4348C6.84316 10.4749 6.95245 10.5106 7.06374 10.5434C7.1686 10.5747 7.27348 10.604 7.37994 10.6288C7.45427 10.6457 7.52941 10.6585 7.60454 10.6721C7.932 10.7335 8.26347 10.7755 8.59977 10.7755C8.93768 10.7755 9.27155 10.7334 9.60022 10.6713C9.67254 10.6581 9.74446 10.6461 9.81599 10.6296C9.92608 10.604 10.0342 10.5739 10.1422 10.5414C10.2479 10.5102 10.3524 10.4761 10.4556 10.4384C10.542 10.4067 10.6276 10.3739 10.7124 10.3374C10.7554 10.3189 10.8 10.3057 10.8426 10.2865C11.6738 10.6052 12.4187 11.0854 13.0556 11.7132C14.03 12.6921 14.6455 13.9296 14.8363 15.2649L2.36365 15.2654ZM38.3 40.8301L37.328 39.7946C36.9954 39.4411 36.4417 39.4134 36.0752 39.7349L33.6107 41.9049L31.1465 39.7349C30.8062 39.4359 30.2955 39.4359 29.9556 39.7349L27.4907 41.9049L25.0261 39.7349C24.8561 39.5854 24.6432 39.5104 24.4306 39.5104C24.2181 39.5104 24.0052 39.5854 23.8352 39.7349L21.3706 41.9049L18.9065 39.7349C18.5404 39.4126 17.9832 39.4403 17.6517 39.7966L16.6999 40.8185V9.23175C16.6999 9.09224 16.8132 8.9792 16.953 8.9792H38.047C38.1868 8.9792 38.3001 9.09225 38.3001 9.23175L38.3 40.8301ZM46.4 1.79595C48.3848 1.79595 50 3.40745 50 5.3878C50 6.69266 49.2884 7.89491 48.1361 8.52984C47.3502 8.97121 46.3791 9.08145 45.5008 8.86097C45.2067 8.78681 44.9222 8.67496 44.657 8.52624C43.5115 7.89487 42.8 6.69265 42.8 5.38779C42.8 3.40744 44.4151 1.79595 46.4 1.79595ZM40.1638 15.2654C40.3547 13.9296 40.9694 12.6934 41.9389 11.7192C42.5806 11.0866 43.3255 10.6055 44.1576 10.2869C44.2014 10.3069 44.248 10.3209 44.2922 10.3398C44.3721 10.3739 44.4529 10.4047 44.5345 10.4348C44.6433 10.4749 44.7526 10.5106 44.8639 10.5434C44.9688 10.5747 45.0737 10.604 45.1801 10.6288C45.2545 10.6457 45.3296 10.6585 45.4047 10.6721C45.7322 10.7335 46.0637 10.7755 46.4 10.7755C46.7379 10.7755 47.0717 10.7334 47.4004 10.6713C47.4727 10.6581 47.5446 10.6461 47.6162 10.6296C47.7263 10.604 47.8343 10.5739 47.9424 10.5414C48.0481 10.5102 48.1526 10.4761 48.2558 10.4384C48.3422 10.4067 48.4278 10.3739 48.5126 10.3374C48.5556 10.3189 48.6002 10.3057 48.6427 10.2865C49.474 10.6052 50.2189 11.0854 50.8558 11.7132C51.8302 12.6921 52.4457 13.9296 52.6365 15.2649L40.1638 15.2654Z" fill="black"/>
<path d="M28.8493 22.4491H23.8993C23.4023 22.4491 22.9993 22.8512 22.9993 23.3471C22.9993 23.843 23.4023 24.2451 23.8993 24.2451H26.5993V25.143C26.5993 25.6389 27.0023 26.041 27.4993 26.041C27.9963 26.041 28.3993 25.6389 28.3993 25.143V24.2451H28.8493C30.5859 24.2451 31.9993 22.8348 31.9993 21.1022C31.9993 19.3696 30.5859 17.9593 28.8493 17.9593H26.1493C25.4048 17.9593 24.7993 17.3552 24.7993 16.6124C24.7993 15.8696 25.4048 15.2654 26.1493 15.2654H31.0993C31.5963 15.2654 31.9993 14.8634 31.9993 14.3675C31.9993 13.8716 31.5963 13.4695 31.0993 13.4695H28.3993V12.5715C28.3993 12.0757 27.9963 11.6736 27.4993 11.6736C27.0023 11.6736 26.5993 12.0757 26.5993 12.5715V13.4695H26.1493C24.4128 13.4695 22.9993 14.8798 22.9993 16.6124C22.9993 18.345 24.4128 19.7552 26.1493 19.7552H28.8493C29.5938 19.7552 30.1993 20.3594 30.1993 21.1022C30.1993 21.845 29.5938 22.4491 28.8493 22.4491Z" fill="black"/>
<path d="M34.6999 29.6328H28.7703C28.2733 29.6328 27.8703 30.0349 27.8703 30.5308C27.8703 31.0267 28.2733 31.4287 28.7703 31.4287H34.6999C35.1969 31.4287 35.5999 31.0267 35.5999 30.5308C35.5999 30.0349 35.1969 29.6328 34.6999 29.6328Z" fill="black"/>
<path d="M34.6998 34.1216H20.2998C19.8028 34.1216 19.3998 34.5237 19.3998 35.0195C19.3998 35.5154 19.8028 35.9175 20.2998 35.9175H34.6998C35.1968 35.9175 35.5998 35.5154 35.5998 35.0195C35.5998 34.5237 35.1968 34.1216 34.6998 34.1216Z" fill="black"/>
</svg>
