<?xml version="1.0" encoding="utf-8"?>
<!-- Generator: Adobe Illustrator 26.0.3, SVG Export Plug-In . SVG Version: 6.00 Build 0)  -->
<svg version="1.1" id="Layer_1" xmlns="http://www.w3.org/2000/svg" xmlns:xlink="http://www.w3.org/1999/xlink" x="0px" y="0px"
	 viewBox="0 0 514.9 251.1" style="enable-background:new 0 0 514.9 251.1;" xml:space="preserve">
<style type="text/css">
	.st0{fill:#FFFFFF;stroke:#FFFFFF;stroke-miterlimit:10;}
</style>
<g>
	<path class="st0" d="M188,193.7c3.2,1,6.5,1.9,9.8,2.7c6.9,1.6,14.3,1.6,21.4,1.1c1.4-0.1,2.1-1.3,2.1-2.1
		c0.2-10.4,0.5-21,0.4-31.4c-0.1-6.3-1-12.6-1-18.9c-0.1-27.5,0-55.1-0.1-82.6c0-6-4.9-9.9-10.8-8.8c-6.1,1.1-12.3,1.6-18.4,2.2
		c-12.7,1.1-25.4,2.5-38.2,3.3c-4.3,0.3-8.9-0.1-13.2-0.8c-4.8-0.9-6-4.8-2-7.4c4.8-3.2,10.2-5.6,15.7-6.9c9.1-2.3,18.4-4,27.7-5
		c17-1.7,33.9-3.5,49.8,5.9c9.4,5.5,13.2,13.8,13.2,23.7c0,14.4-1,28.7-1.6,43.1c-0.3,7.7-0.6,15.2-0.8,22.8
		c-0.5,18.4,2.9,36.4,6.8,54.3c1.2,5.6,0.8,11.8-0.2,17.4c-1.2,6.9-3.3,13.8-5.9,20.4c-5.4,13.6-26.4,19.3-38.8,6.8
		c-7.2-7.3-16.4-18.3-24.1-28.1C175.9,199.5,181.3,191.6,188,193.7z"/>
	<path class="st0" d="M274.1,57.9c0.7-1.6,2.9-1.7,3.7-0.2c2.5,4.3,4.7,8,6.7,11.7c3,5.5,6,11.1,9,16.5c1,2,2.1,2.8,4.8,2
		c9.5-3,19.1-5.6,28.7-8c9.4-2.3,18.8-4.3,28.3-6.1c12.9-2.3,25.8-4.9,38.9-6c16-1.3,32.3-2.3,48.3-1.7c20.3,0.7,40.1,4.2,57,17
		c5,3.7,9.2,8.2,11.6,14.1c1.4,3.5,0.9,6.2-2.6,8.4c-9.6,5.6-19.7,8.7-30.9,9c-7.1,0.2-14.4,1.2-21.5,1.3c-4.5,0.1-9-0.8-13.5-1.3
		c-3.2-0.4-6.5-1-9.6-1.8c0,0,0,0-0.1,0c-2-0.5-2.1-3.3-0.2-4c3.9-1.4,7.9-2.8,11.5-4.8c6.8-3.8,13.4-8.1,20-12.6
		c4.2-3,3.9-4.9-0.5-7.4c-11.3-6.5-23.6-6.8-35.9-5.2c-10.2,1.3-20.3,4.4-30.5,6.1c-7.3,1.2-14.8,1.4-22.2,2
		c-24.2,1.9-47.8,5.5-69.1,18.6c-5.9,3.6-4.7,8.5-5.4,13.1c-1.6,9.1-2.7,18.3-4.2,27.4c-0.3,1.4-2.1,3.4-3.5,3.8
		c-13.2,4.1-23-2.9-26.2-18.1c-2.2-10.2,0.3-19.6,3.1-29.4c1.9-6.5,2.4-13.4,3-20.3c0.6-7.3,0.5-14.7,1-21.9
		C273.5,59.5,273.7,58.8,274.1,57.9z"/>
	<path class="st0" d="M432.4,228.5c6.2-2.3,12.4-4.1,18.4-6.7c5.9-2.5,6.2-3.8,3.6-9.4c-5.5-11.9-13.2-22.4-22.1-31.9
		c-14.7-15.8-29.8-31.1-44.7-46.7c-0.4-0.4-0.7-0.8-1.8-2c5.4,1.4,9.9,2.6,14.4,3.8c16.3,4.8,32.1,10.9,46.7,19.6
		c19.6,11.8,33.6,27.9,40.6,49.9c2.5,7.9,4.4,15.6,4.1,23.9c-0.3,8.6-5.1,15.9-12,16.7c-4.4,0.5-9.2-0.4-13.5-1.6
		c-11.7-3-22.8-7.2-32.7-14.5C433.3,229.5,432.8,229,432.4,228.5z"/>
	<path class="st0" d="M29.8,97.2c-0.8,1.7-1.6,2.6-2.3,4.1c-0.5,0.8,0.1,1.3,0.2,1.3c10.6,3,13,10.6,12.8,20.8
		c-0.3,14.6-3,28.6-4.9,43c-1.2,9.5-2.4,19.4,2.9,28.5l0,0c0.9,1.6,3.1,1.6,4.1,0.1c7.4-11.8,14.9-23.4,22.2-34.9
		c1.6-2.4,5.3-1,4.9,1.9v0.1c-1.3,8.9-2.9,17.7-4.5,26.5c-2.4,13-4.9,26-7.5,38.9c-1,4.8-2.5,9.6-4.5,14.1c-2,4.3-5.8,5.2-9.6,2.7
		c-11.5-7.3-19.3-17.9-20.2-31.3c-0.9-15.6,0.7-31.4,0.8-47.3c0-11.1-0.6-22.1-1.1-33.1c-0.2-4.8-4-7.1-7.2-9.6
		c-5.1-3.8-10.2-7.4-12.4-13.8c-0.8-2.4-1.1-4.3-0.5-6.7c0.4-1.8,2-3.4,3.2-3.4c3.2,0.1,6.5,0.5,9.6,1.6c4.9,1.7,8.9,1.2,12.4-2.7
		c0.4-0.4,0.5-0.4,1.2-0.6C29.2,97.3,29.8,97.2,29.8,97.2z"/>
	<path class="st0" d="M197.3,93c-18.5,7.8-36.9,15.5-52.8,28c-1.9,1.4-2.3,4-1,6c0.2,0.4,0.4,0.8,0.6,1.1c0.9,2.3,2.2,1.9,4.1,1.3
		c10.8-3.3,21.4-6.9,32.3-9.3c6.4-1.3,13.2-0.8,19.9-0.2c5.7,0.5,8.1,6.4,5.7,12.3c-3,7.8-8.7,13.4-14.8,18.7
		c-2.2,1.9-2.6,3.1-0.6,5.2c0.8,0.9,1.7,2,2.2,3.2c0.7,1.7,2.1,4.4,1.4,5.1c-1.4,1.4-3.9,2.9-5.9,2.7c-9.5-0.9-19-2.3-28.4-3.6
		c-3.3-0.4-6.4-0.6-9.4,1.6c-4.2,3-6.5,2.5-9.5-1.4c-6.1-7.7-10.4-16.1-10.4-26.1c0-5.9,1.8-11.5,6.4-15.7
		c6.2-5.7,12.2-11.5,18.1-17.2c2.2-2.1,1.8-5.7-0.9-7.2l-4.5-2.6c-3.4-2-2.9-6.9,0.7-8.2c12.5-4.4,24.3-7.7,37.2-6.7
		c7.4,0.5,11,2.3,12.4,8.1C200.5,89.9,199.4,92.2,197.3,93z M161.4,148c3.8-3.2,0.3-9.5-4.4-7.8c-0.1,0-0.1,0-0.2,0.1
		c-5.4,2.1-6,5.1-2.3,9.4c0.7,0.8,3.1,1.3,3.7,0.8C159.4,149.8,160.4,148.8,161.4,148z"/>
	<path class="st0" d="M327.4,151.1c-1.7-3.1,1.6-6.6,4.9-5.4c7,2.7,13,6.5,18.5,11.7c10,9.5,11.3,23.2,4,34.7
		c-12.6,20.3-30.6,32.8-54.2,36.7c-7.5,1.2-15.4,1.7-23.1,1.7c-8.8,0-13.6-7-10.2-14.3c0.4-0.9,2.4-2.1,3-1.8
		c8.3,2.5,15.1,1,21.4-3.5c14.1-10,26.2-22.1,36-36.5C333.2,166.5,331.5,158.9,327.4,151.1L327.4,151.1z"/>
	<path class="st0" d="M114,60.1c0.3-1.3,2-1.6,2.8-0.5c1.4,2,2.8,3.7,4.1,5.5c3.5,4.3,3.3,9.7,3.3,14.8c0.1,13.1-0.1,26.3-0.9,39.3
		c-0.5,7.8-1.9,15.6-3.6,23.2c-3.4,14.9-5.7,29.7-5,45c0.2,4.7-0.9,9.3-1.6,14c-0.5,3.9-2.2,7.5-6.2,8.4c-5,1-9.6-0.1-13.1-4.3
		c-3.5-4.2-4.7-9.3-4-14.5c0.9-8.2,2.4-16.3,3.7-24.5c2.4-14,5-28,7.4-42c1.7-9.2,3.3-18.5,5.3-27.6C108.7,84.5,111.3,72.3,114,60.1
		L114,60.1z"/>
	<path class="st0" d="M349.6,18.7c-2.6-1.6-2.3-5.4,0.5-6.5c9.2-3.8,18.4-6.1,28-4.8c15.4,2.1,29.8,7.2,39,21.1
		c3.9,5.9,3.9,12.5,1,18.7c-0.8,1.8-3.6,3.7-5.5,3.6c-15.2-0.4-30.4-1.2-45.6-2.2c0,0,0,0-0.1,0c-3-0.2-4.3-3.9-2.3-6.2
		c1.8-1.9,3.6-3.8,5.5-5.8c1.7-1.7,1.2-4.4-0.7-5.7C362.8,26.8,356.2,22.8,349.6,18.7z"/>
	<path class="st0" d="M28.5,97.7c6-5.9,13.9-11.8,19.4-18.1c4.4-5.1,8-11,11.5-16.9c3.4-5.8,2-11.7-1.2-17.1
		c-2.1-3.5-4.7-6.8-7.2-9.9c-3.4-4-3.1-6,2.1-6.9c9.7-1.9,19-1,27.6,4.2c7.3,4.4,8.7,11.8,3.4,18.8c-9.1,12.1-17.9,24.4-30.7,32.9
		c-7.3,4.9-7.2,5.3-15.1,9.4C38.3,94,28.5,97.7,28.5,97.7z"/>
</g>
</svg>
