<svg width="92" height="28" viewBox="0 0 92 28" fill="none" xmlns="http://www.w3.org/2000/svg">
<path d="M13.5723 0C6.07291 0 0 6.08649 0 13.5859C0 21.0854 6.07291 27.1718 13.5723 27.1718C21.0854 27.1718 27.1718 21.0854 27.1718 13.5859C27.1718 6.08649 21.0854 0 13.5723 0ZM13.5859 24.4547C7.58094 24.4547 2.71718 19.5909 2.71718 13.5859C2.71718 7.58094 7.58094 2.71718 13.5859 2.71718C19.5909 2.71718 24.4547 7.58094 24.4547 13.5859C24.4547 19.5909 19.5909 24.4547 13.5859 24.4547Z" fill="#DB4F2D"/>
<path d="M14.2654 6.79297H12.2275V14.9445L19.3601 19.2241L20.3791 17.553L14.2654 13.9256V6.79297Z" fill="#DB4F2D"/>
<path d="M45.7442 0C38.2448 0 32.1719 6.08649 32.1719 13.5859C32.1719 21.0854 38.2448 27.1718 45.7442 27.1718C53.2572 27.1718 59.3437 21.0854 59.3437 13.5859C59.3437 6.08649 53.2572 0 45.7442 0ZM45.7578 24.4547C39.7528 24.4547 34.8891 19.5909 34.8891 13.5859C34.8891 7.58094 39.7528 2.71718 45.7578 2.71718C51.7628 2.71718 56.6265 7.58094 56.6265 13.5859C56.6265 19.5909 51.7628 24.4547 45.7578 24.4547Z" fill="#FBC7BA"/>
<path d="M46.4373 6.79297H44.3994V14.9445L51.532 19.2241L52.551 17.553L46.4373 13.9256V6.79297Z" fill="#FBC7BA"/>
<path d="M77.9161 0C70.4167 0 64.3438 6.08649 64.3438 13.5859C64.3438 21.0854 70.4167 27.1718 77.9161 27.1718C85.4291 27.1718 91.5156 21.0854 91.5156 13.5859C91.5156 6.08649 85.4291 0 77.9161 0ZM77.9297 24.4547C71.9247 24.4547 67.0609 19.5909 67.0609 13.5859C67.0609 7.58094 71.9247 2.71718 77.9297 2.71718C83.9347 2.71718 88.7984 7.58094 88.7984 13.5859C88.7984 19.5909 83.9347 24.4547 77.9297 24.4547Z" fill="#FBC7BA"/>
<path d="M78.6092 6.79297H76.5713V14.9445L83.7039 19.2241L84.7228 17.553L78.6092 13.9256V6.79297Z" fill="#FBC7BA"/>
</svg>
