<?xml version="1.0" encoding="utf-8"?>
<!-- Generator: Adobe Illustrator 26.0.3, SVG Export Plug-In . SVG Version: 6.00 Build 0)  -->
<svg version="1.1" id="Layer_1" xmlns="http://www.w3.org/2000/svg" xmlns:xlink="http://www.w3.org/1999/xlink" x="0px" y="0px"
	 viewBox="0 0 331 274" style="enable-background:new 0 0 331 274;" xml:space="preserve">
<path d="M11.5,15.8l2.7,5.2c-2.1,2.3-3.8,5-4.9,7.9c-2.2,5.5-2,11.7,0.7,17c2.6,5.3,7.4,9.2,13.2,10.8l-4.8,2.5
	c-3.1,1.6-5.4,4.3-6.4,7.6c-1,3.3-0.7,6.9,0.9,9.9l5.3,10.2c1.6,3.1,4.3,5.4,7.6,6.4c3.3,1,6.9,0.7,9.9-0.9l4.8-2.5
	c-2,5.4-1.6,11.5,1,16.6c2.7,5.1,7.4,8.9,13,10.4l-4.7,2.5c-3.1,1.6-5.4,4.3-6.4,7.6c-1,3.3-0.7,6.9,0.9,9.9l5.3,10.1
	c1.6,3.1,4.3,5.4,7.6,6.4c3.3,1,6.9,0.7,9.9-0.9l4.8-2.5v0c-2,5.5-1.6,11.6,1.1,16.7c2.2,4,5.6,7.2,9.8,9.2c4.1,2,8.8,2.7,13.3,1.9
	l47.2,90.7c0.9,1.7,3,2.3,4.7,1.5l10.3-5.4c0.8-0.4,1.4-1.1,1.7-2c0.3-0.9,0.2-1.8-0.2-2.6l-47.2-90.7c2.4-2.6,4.2-5.8,5.3-9.2
	c1.8-5.4,1.3-11.3-1.4-16.3c-2.7-5-7.4-8.7-12.9-10.1l4.8-2.5c3.1-1.6,5.4-4.4,6.4-7.6c1-3.3,0.7-6.9-0.9-9.9l-5.3-10.1
	c-1.6-3.1-4.3-5.4-7.6-6.4c-3.3-1-6.9-0.7-9.9,0.9l-4.7,2.4l0.2-0.6c1.8-5.4,1.3-11.3-1.4-16.3c-2.7-5-7.4-8.7-12.9-10.1l4.8-2.5
	c3.1-1.6,5.4-4.3,6.4-7.6c1-3.3,0.7-6.9-0.9-9.9L77,43.4c-1.6-3.1-4.3-5.4-7.6-6.4c-3.3-1-6.9-0.7-9.9,0.9l-4.7,2.5l0.2-0.6
	c1.8-5.5,1.2-11.6-1.6-16.7c-2.9-5.1-7.7-8.7-13.4-10c-3-0.7-6.2-0.9-9.3-0.5l-2.7-5.2l0,0c-1.5-2.9-4.5-4.8-7.8-5
	c-3.3-0.1-6.4,1.5-8.2,4.3C10.2,9.4,10,12.9,11.5,15.8L11.5,15.8z M21.8,10.5l2,3.9c-0.7,0.3-1.4,0.6-2.1,1c-0.7,0.3-1.4,0.7-2,1.1
	l-2-3.9c-0.5-1.1,0-2.4,1.1-2.9C19.8,9.1,21.1,9.4,21.8,10.5L21.8,10.5z M38.2,19.7L38.2,19.7c4,0.9,7.4,3.5,9.3,7.1
	c1.9,3.6,2.1,7.9,0.5,11.7c-1.7,4.3-4.9,7.8-9,9.9c-4.1,2.2-8.8,2.8-13.3,1.7c-3.8-0.8-7.1-3.3-9.1-6.7c-1.9-3.4-2.3-7.5-1.1-11.2
	l0.3-0.9c1.7-4.3,4.9-7.9,9.1-9.9C28.9,19.2,33.7,18.6,38.2,19.7L38.2,19.7z M73.6,65l-41,21.4c-1.4,0.7-3.1,0.9-4.7,0.4
	c-1.6-0.5-2.8-1.6-3.6-3l-1.5-2.9c0.5-1.1,2.4-3.4,9.2-4.8c2.9-0.6,5.8-0.8,8.7-0.5c4.6,0.4,7.3-0.1,12.5-5.9
	c7.8-8.5,17.4-15.3,21.1-16.5l1.8,3.5c0.7,1.5,0.9,3.1,0.4,4.7C76.1,62.9,75,64.2,73.6,65L73.6,65z M69.6,80L69.6,80
	c4,0.9,7.5,3.5,9.4,7.1c1.9,3.7,2.1,8,0.5,11.8c-1.7,4.3-4.9,7.8-9,9.9c-4.1,2.1-8.8,2.8-13.2,1.7c-4-0.9-7.5-3.5-9.4-7.1
	c-1.7-3.3-2-7.2-0.8-10.8l0.3-0.9c1.7-4.3,5-7.8,9-9.9C60.3,79.7,65,79.1,69.6,80L69.6,80z M110.3,147.5c3.9,7.5,0,17.2-8.6,21.6
	c-8.6,4.5-18.8,2.1-22.6-5.4l0,0c-1.7-3.4-2-7.3-0.8-10.8c1.6-4.7,4.9-8.6,9.4-10.8C96.3,137.6,106.4,140,110.3,147.5L110.3,147.5z
	 M147.7,262.5l-44.9-86.3c0.7-0.3,1.4-0.6,2.1-1c0.7-0.4,1.3-0.8,2-1.2l44.9,86.3L147.7,262.5z M64,146.7L64,146.7
	c-1.4,0.8-3.1,0.9-4.7,0.4c-1.6-0.5-2.9-1.6-3.6-3l-1.9-3.6l0,0c1.5-2,3.6-3.6,5.9-4.6c2.3-1,4.9-1.3,7.4-1
	c10.7,0.7,17.7-7.1,22.9-12.9c1.6-2.1,3.5-3.9,5.6-5.5c3.4-1.6,7.1-2.3,10.8-1.9l1.2,2.3l0,0c0.7,1.5,0.8,3.1,0.4,4.7
	c-0.5,1.5-1.6,2.8-3,3.6L64,146.7z M102.3,106.9l0.5,0.9l0,0c-3.7,0.1-7.3,1.1-10.5,2.8c-2.8,1.9-5.3,4.2-7.3,6.8
	c-4.6,5.2-9.9,11.1-17.3,10.6v0c-6.3-0.7-12.7,1.4-17.2,5.9c-0.7-1.4-0.9-3.1-0.4-4.7c0.5-1.6,1.6-2.8,3-3.6l41-21.3
	c1.4-0.8,3.1-0.9,4.7-0.4C100.3,104.3,101.6,105.4,102.3,106.9L102.3,106.9z M70.9,46.5l0.3,0.6C61.4,51,48.3,64.9,48.2,65
	c-3.7,3.9-4.1,3.9-6.8,3.7c-3.6-0.4-7.2-0.2-10.6,0.6c-4.1,0.6-8,2.3-11.2,5l-0.4-0.7l0,0c-0.7-1.4-0.9-3.1-0.4-4.7
	c0.5-1.6,1.6-2.8,3-3.6l41-21.4v0c1.4-0.7,3.1-0.9,4.7-0.4c1.6,0.5,2.8,1.6,3.6,3L70.9,46.5z"/>
<path d="M114.5,56.1l4,4.4c-1.5,2.8-2.4,5.8-2.8,8.9c-0.8,5.9,1,11.8,4.9,16.3c3.9,4.5,9.5,7.1,15.5,7.1l-4,3.6
	c-2.6,2.3-4.1,5.6-4.3,9c-0.2,3.4,1,6.8,3.3,9.4l7.7,8.5c2.3,2.6,5.6,4.1,9,4.3c3.4,0.2,6.8-1,9.4-3.3l4-3.6
	c-0.6,5.8,1.3,11.5,5.2,15.8c3.9,4.3,9.4,6.8,15.2,6.8l-4,3.6c-2.6,2.3-4.1,5.6-4.3,9c-0.2,3.4,1,6.8,3.3,9.4l7.7,8.5
	c2.3,2.6,5.6,4.1,9,4.3c3.4,0.2,6.8-1,9.4-3.3l4-3.6l0,0c-0.5,5.8,1.4,11.6,5.3,15.9c3.2,3.3,7.3,5.5,11.8,6.4
	c4.5,0.9,9.1,0.4,13.3-1.5l68.5,75.9c1.3,1.4,3.5,1.5,4.9,0.2l8.6-7.8c0.7-0.6,1.1-1.5,1.1-2.4c0-0.9-0.3-1.8-0.9-2.5l-68.6-75.9
	c1.7-3.2,2.6-6.6,2.8-10.2c0.4-5.7-1.6-11.3-5.5-15.5c-3.9-4.2-9.3-6.5-15-6.5l4-3.6c2.6-2.3,4.1-5.6,4.3-9c0.2-3.4-1-6.8-3.3-9.4
	l-7.7-8.5c-2.3-2.6-5.6-4.1-9-4.3c-3.4-0.2-6.8,1-9.4,3.3l-4,3.6l0-0.6c0.4-5.7-1.6-11.3-5.5-15.4c-3.9-4.2-9.3-6.5-15-6.5l4-3.7
	c2.6-2.3,4.1-5.6,4.3-9c0.2-3.4-1-6.8-3.3-9.4l-7.7-8.5c-2.3-2.6-5.6-4.1-9-4.3c-3.4-0.2-6.8,1-9.4,3.3l-4,3.6l0-0.6
	c0.4-5.8-1.7-11.5-5.8-15.7c-4.1-4.2-9.7-6.5-15.5-6.3c-3.1,0-6.2,0.7-9.1,1.8l-4-4.4v0c-2.2-2.4-5.6-3.5-8.8-2.8
	c-3.2,0.7-5.8,3-6.8,6.2C111.5,50.3,112.3,53.7,114.5,56.1L114.5,56.1z M123,48.4l2.9,3.2c-0.6,0.5-1.2,1-1.8,1.5
	c-0.6,0.5-1.1,1-1.6,1.6l-2.9-3.2c-0.7-1-0.6-2.3,0.3-3.1C120.8,47.6,122.1,47.6,123,48.4L123,48.4z M141.2,53.2L141.2,53.2
	c4.1-0.2,8.1,1.5,10.8,4.5c2.8,3,4,7.2,3.4,11.2c-0.6,4.6-2.8,8.8-6.2,11.9c-3.4,3.1-7.8,4.9-12.4,5c-3.9,0.2-7.7-1.4-10.5-4.2
	c-2.7-2.8-4.1-6.7-3.9-10.6l0.1-1c0.6-4.6,2.8-8.8,6.3-11.9C132.2,55.1,136.6,53.3,141.2,53.2L141.2,53.2z M186.9,88.1l-34.3,31
	c-1.2,1.1-2.8,1.7-4.4,1.6s-3.2-0.8-4.2-2l-2.2-2.4c0.2-1.2,1.5-3.9,7.7-7c2.6-1.3,5.4-2.2,8.3-2.7c4.5-0.8,7-2,10.6-8.9
	c5.4-10.2,13-19.2,16.3-21.3l2.6,2.9c1.1,1.2,1.7,2.8,1.6,4.4C188.8,85.4,188.1,87,186.9,88.1L186.9,88.1z M186.8,103.7L186.8,103.7
	c4.1-0.2,8.1,1.5,10.9,4.6c2.8,3.1,4,7.2,3.4,11.3c-0.6,4.6-2.8,8.8-6.2,11.9c-3.4,3.1-7.8,4.9-12.4,5c-4.1,0.2-8.1-1.5-10.9-4.5
	c-2.5-2.8-3.8-6.5-3.5-10.3l0-1c0.6-4.6,2.8-8.8,6.2-11.9C177.8,105.7,182.2,103.9,186.8,103.7L186.8,103.7z M243.3,158.7
	c5.6,6.2,4.4,16.6-2.8,23.1c-7.2,6.5-17.6,6.7-23.3,0.5l0,0c-2.5-2.8-3.8-6.5-3.5-10.3c0.3-4.9,2.6-9.6,6.3-12.8
	C227.2,152.7,237.7,152.4,243.3,158.7L243.3,158.7z M308.5,260.5l-65.2-72.2c0.6-0.5,1.2-0.9,1.8-1.5c0.6-0.5,1.1-1.1,1.6-1.6
	l65.2,72.1L308.5,260.5z M198.3,169.6L198.3,169.6c-1.2,1.1-2.8,1.7-4.4,1.6c-1.6-0.1-3.2-0.8-4.3-2l-2.7-3l0,0
	c1-2.4,2.5-4.4,4.5-5.9c2-1.5,4.4-2.5,6.9-2.8c10.5-2,15.4-11.4,18.9-18.2c1.1-2.4,2.4-4.7,4.1-6.7c2.8-2.4,6.3-4,10-4.6l1.7,1.9
	l0,0c1.1,1.2,1.6,2.8,1.5,4.4c-0.1,1.6-0.8,3.1-2,4.3L198.3,169.6z M225.3,121.4l0.7,0.8h0c-3.5,1-6.8,2.9-9.5,5.4
	c-2.2,2.5-4,5.4-5.4,8.4c-3.2,6.2-6.8,13.2-14.1,14.6v0c-6.3,0.9-11.9,4.6-15.2,10.1c-1.1-1.2-1.6-2.8-1.6-4.4
	c0.1-1.6,0.8-3.2,2-4.2l34.3-31c1.2-1.1,2.8-1.7,4.4-1.6C222.7,119.4,224.2,120.2,225.3,121.4L225.3,121.4z M179.7,70.9l0.5,0.5
	c-8.5,6.2-17.7,22.9-17.8,23.1c-2.5,4.7-3,4.8-5.7,5.3c-3.5,0.5-7,1.7-10.1,3.3c-3.8,1.7-7.1,4.3-9.6,7.6l-0.5-0.6v0
	c-1.1-1.2-1.7-2.8-1.6-4.4c0.1-1.6,0.8-3.2,2-4.2l34.3-31l0,0c1.2-1.1,2.8-1.7,4.4-1.6C177.2,68.9,178.7,69.6,179.7,70.9L179.7,70.9
	z"/>
</svg>
