<svg width="132" height="95" viewBox="0 0 132 95" fill="none" xmlns="http://www.w3.org/2000/svg">
<path d="M21.9121 5.44061L22.8508 7.24428C22.1222 8.03539 21.5494 8.9569 21.1616 9.96014C20.3951 11.8572 20.4772 13.9921 21.3884 15.8236C22.2996 17.6557 23.9517 19.0091 25.9265 19.5417L24.2829 20.3976C23.2263 20.9487 22.4321 21.8964 22.0737 23.0331C21.7155 24.1693 21.8224 25.4016 22.3721 26.4585L24.2028 29.9762C24.7532 31.0328 25.7005 31.8271 26.8369 32.1853C27.9728 32.5435 29.2048 32.4363 30.2616 31.8863L31.9058 31.0301C31.2107 32.9072 31.3402 34.9908 32.2633 36.7663C33.1863 38.5423 34.8165 39.8453 36.7518 40.3543L35.118 41.2051C34.0633 41.7575 33.2696 42.7053 32.9116 43.8409C32.5534 44.9771 32.6601 46.2082 33.2072 47.2661L35.0273 50.7635C35.5794 51.8183 36.527 52.6115 37.6624 52.9694C38.7977 53.3274 40.0289 53.2211 41.0867 52.6738L42.7302 51.8179L42.7304 51.8173C42.0444 53.7095 42.1783 55.8015 43.1005 57.5894C43.8724 58.9675 45.0487 60.0744 46.4709 60.7611C47.893 61.4477 49.4912 61.6807 51.0501 61.4285L67.3181 92.711C67.625 93.2906 68.3404 93.5161 68.9242 93.2174L72.4706 91.3705C72.7515 91.2255 72.9628 90.9738 73.0572 90.6723C73.1511 90.3708 73.1222 90.0444 72.9771 89.764L56.6942 58.4768C57.5262 57.5678 58.1509 56.4889 58.5243 55.3138C59.1535 53.4508 58.9803 51.4097 58.0464 49.6797C57.1119 47.9494 55.5013 46.6852 53.5984 46.1899L55.242 45.3339C56.2974 44.7812 57.0905 43.8332 57.4485 42.6976C57.8066 41.562 57.7005 40.3305 57.1528 39.273L55.3326 35.7756C54.7806 34.7208 53.8331 33.927 52.6978 33.5691C51.5625 33.2112 50.331 33.318 49.2738 33.8655L47.6424 34.7089L47.7045 34.5118C48.3284 32.6488 48.153 30.6112 47.2189 28.8834C46.285 27.1551 44.6763 25.8926 42.7763 25.3953L44.4172 24.5217C45.4739 23.9706 46.2681 23.0229 46.6265 21.8862C46.9847 20.75 46.8777 19.5177 46.3281 18.4608L44.5028 14.9536C43.9519 13.8968 43.0048 13.102 41.8684 12.7438C40.7325 12.3857 39.5003 12.4934 38.4435 13.0433L36.8097 13.8941L36.8718 13.697C37.4995 11.787 37.2942 9.70041 36.3058 7.94976C35.3174 6.19901 33.6378 4.94557 31.6783 4.49692C30.6345 4.23928 29.5512 4.18013 28.4857 4.32295L27.547 2.51927L27.5468 2.5198C27.0228 1.51216 26.0008 0.861099 24.8663 0.811931C23.7319 0.762219 22.6574 1.32227 22.0468 2.28021C21.4363 3.23815 21.3841 4.44867 21.9081 5.4563L21.9121 5.44061ZM25.4366 3.61126L26.1313 4.94695C25.8869 5.0477 25.6484 5.16132 25.4159 5.28729C25.1793 5.40562 24.9495 5.53592 24.7268 5.67836L24.032 4.3432C23.8689 3.96121 24.0277 3.51856 24.3958 3.32728C24.7636 3.1353 25.2171 3.25911 25.4364 3.61178L25.4366 3.61126ZM31.0949 6.79416L31.0947 6.79469C32.478 7.096 33.6565 7.99683 34.3093 9.25368C34.962 10.5105 35.0221 11.993 34.4734 13.2987C33.889 14.7819 32.7797 15.9974 31.356 16.714C29.9534 17.4692 28.3211 17.6815 26.772 17.3093C25.4487 17.0205 24.3114 16.1821 23.6438 15.0037C22.9757 13.8251 22.8414 12.4179 23.2729 11.1341L23.3757 10.808C23.9622 9.31967 25.076 8.09923 26.505 7.3801C27.9137 6.62793 29.5502 6.42058 31.1021 6.7971L31.0949 6.79416ZM43.3168 22.4085L29.1693 29.7762C28.6713 30.0346 28.091 30.0846 27.5558 29.9159C27.0206 29.7471 26.5738 29.3733 26.3141 28.876L25.7954 27.8793C25.97 27.5097 26.6272 26.6926 28.966 26.222C29.9541 26.0043 30.9708 25.9448 31.9773 26.0466C33.5596 26.1788 34.4886 26.0052 36.2845 24.0062C38.9672 21.0702 42.3024 18.7322 43.5793 18.3266L44.2018 19.5228C44.4596 20.0241 44.5118 20.6065 44.3465 21.1457C44.1811 21.685 43.8118 22.138 43.317 22.4085L43.3168 22.4085ZM41.9271 27.6089L41.9269 27.6095C43.3154 27.9089 44.4984 28.8123 45.1526 30.0737C45.8062 31.3354 45.8634 32.8229 45.3081 34.131C44.7187 35.6103 43.6104 36.8244 42.1916 37.546C40.7906 38.2866 39.169 38.4946 37.627 38.1311C36.2389 37.8265 35.0525 36.9325 34.3771 35.6825C33.7893 34.5274 33.691 33.1846 34.1028 31.956L34.2056 31.6299C34.8091 30.1597 35.9135 28.9502 37.3231 28.2158C38.7324 27.4819 40.3564 27.2705 41.9067 27.6198L41.9271 27.6089ZM55.9839 50.8735C57.3219 53.4444 55.9924 56.7903 53.0231 58.3361C50.0542 59.8822 46.5519 59.0527 45.2137 56.4823L45.2144 56.482C44.6281 55.324 44.53 53.9788 44.9424 52.7482C45.4865 51.1273 46.6483 49.7877 48.1748 49.0193C51.1436 47.4732 54.6459 48.3026 55.9839 50.8735V50.8735ZM68.8848 90.5392L53.4036 60.7795C53.6429 60.68 53.8851 60.5734 54.1243 60.4483C54.3634 60.3238 54.5894 60.1871 54.8088 60.0477L70.3002 89.8033L68.8848 90.5392ZM39.9949 50.6131L39.9951 50.6126C39.4953 50.8716 38.9137 50.9218 38.3774 50.7527C37.8406 50.5835 37.393 50.2088 37.1321 49.71L36.4889 48.4742L36.4893 48.4749C37.0138 47.7728 37.7164 47.2245 38.5247 46.8861C39.3325 46.5476 40.2165 46.4318 41.0847 46.5504C44.7784 46.7986 47.2062 44.0908 48.9773 42.1172C49.5388 41.4048 50.1924 40.7707 50.9207 40.231C52.0794 39.6621 53.3754 39.435 54.6579 39.5768L55.0751 40.3666L55.0748 40.3659C55.3207 40.8682 55.3646 41.4456 55.1965 41.9788C55.0284 42.5121 54.6613 42.9599 54.1719 43.2297L39.9949 50.6131ZM53.2247 36.8584L53.3828 37.1749L53.3834 37.1751C52.1127 37.2166 50.8693 37.5479 49.7466 38.1446C48.786 38.7911 47.9318 39.5844 47.2154 40.495C45.6119 42.2797 43.7885 44.3125 41.2541 44.138L41.2542 44.1375C39.0699 43.8898 36.8903 44.6371 35.3166 46.1723C35.0603 45.6737 35.0114 45.0936 35.1799 44.5592C35.3485 44.0244 35.7211 43.5777 36.2172 43.3158L50.3619 35.9558C50.8616 35.6974 51.4431 35.6472 51.9799 35.8164C52.5162 35.9854 52.9638 36.3601 53.2249 36.8584L53.2247 36.8584ZM42.3914 16.0438L42.4979 16.2604C39.1108 17.5747 34.5999 22.3745 34.548 22.4081C33.2864 23.7678 33.1405 23.755 32.1975 23.6826C30.9702 23.5571 29.7311 23.6278 28.5265 23.8912C27.1079 24.1109 25.7722 24.7013 24.6556 25.6031L24.5261 25.3543L24.5263 25.3538C24.268 24.8558 24.2176 24.2752 24.3864 23.7398C24.5551 23.2044 24.9295 22.7577 25.4267 22.4979L39.5737 15.1305L39.5739 15.1299C40.0718 14.8715 40.6522 14.8215 41.1874 14.9902C41.7226 15.159 42.1693 15.5328 42.4296 16.0303L42.3914 16.0438Z" fill="black"/>
<path d="M57.4161 19.3579L58.7796 20.8663C58.2741 21.8157 57.9524 22.8519 57.8303 23.9205C57.5673 25.9495 58.1854 27.9947 59.5293 29.537C60.8732 31.08 62.8134 31.9726 64.8586 31.9897L63.4843 33.2326C62.6009 34.0326 62.0715 35.1499 62.0115 36.3403C61.9516 37.5301 62.366 38.6956 63.1646 39.5796L65.8237 42.5215C66.6228 43.4051 67.7399 43.9346 68.9299 43.9946C70.1194 44.0545 71.2846 43.6399 72.1684 42.8411L73.5433 41.5976C73.3443 43.5894 73.9954 45.5729 75.3366 47.0581C76.6779 48.5438 78.5842 49.3932 80.5852 49.3974L79.219 50.633C78.3378 51.4336 77.8089 52.551 77.749 53.7402C77.6891 54.93 78.103 56.0943 78.8993 56.9799L81.543 59.9049C82.3434 60.7863 83.4605 61.3147 84.6494 61.3746C85.8384 61.4345 87.0029 61.021 87.8883 60.2245L89.2627 58.9815L89.2628 58.981C89.0764 60.9851 89.7338 62.9755 91.0773 64.4729C92.172 65.6116 93.5896 66.3859 95.1389 66.6915C96.6883 66.9971 98.2936 66.8193 99.7384 66.1819L123.373 92.3474C123.817 92.8308 124.566 92.8685 125.055 92.4321L128.021 89.7502C128.256 89.539 128.397 89.242 128.412 88.9266C128.427 88.6111 128.317 88.3026 128.106 88.0678L104.455 61.9015C105.031 60.812 105.363 59.6104 105.428 58.3791C105.567 56.4177 104.884 54.4863 103.544 53.0479C102.203 51.6094 100.325 50.7925 98.3592 50.7933L99.7336 49.5504C100.615 48.7493 101.144 47.6318 101.204 46.4426C101.263 45.2534 100.85 44.0885 100.053 43.2034L97.4095 40.2785C96.6092 39.3971 95.4921 38.8681 94.3032 38.8082C93.1143 38.7483 91.9497 39.1624 91.0648 39.9589L89.6989 41.1867L89.7093 40.9803C89.843 39.0202 89.1591 37.0927 87.8193 35.6566C86.4795 34.2198 84.6042 33.4041 82.6402 33.4023L84.0077 32.143C84.8911 31.343 85.4205 30.2257 85.4804 29.0353C85.5404 27.8455 85.1259 26.68 84.3274 25.796L81.6762 22.8629C80.8765 21.9793 79.7595 21.4492 78.5695 21.3892C77.38 21.3293 76.2148 21.7445 75.3309 22.5433L73.9647 23.7788L73.9751 23.5724C74.1006 21.5658 73.3754 19.5985 71.9772 18.1539C70.579 16.7092 68.6375 15.9201 66.6282 15.9804C65.5531 15.9945 64.49 16.2106 63.495 16.6177L62.1315 15.1092L62.1315 15.1098C61.3702 14.267 60.217 13.8948 59.1068 14.1335C57.9965 14.3717 57.0981 15.1847 56.749 16.2657C56.4 17.3467 56.6549 18.5312 57.4162 19.3741L57.4161 19.3579ZM60.365 16.6984L61.3742 17.8156C61.1632 17.9747 60.9611 18.1448 60.7678 18.3254C60.5688 18.4996 60.3793 18.6837 60.1998 18.8777L59.1905 17.7611C58.9364 17.4326 58.9783 16.9642 59.2862 16.6862C59.5937 16.4076 60.0638 16.413 60.365 16.6989L60.365 16.6984ZM66.6433 18.3506L66.6433 18.3511C68.0578 18.2937 69.4255 18.868 70.3743 19.9194C71.3231 20.9709 71.7553 22.3902 71.5537 23.7921C71.3625 25.3748 70.5958 26.8308 69.399 27.8835C68.2323 28.9683 66.7064 29.5855 65.1136 29.6162C63.7602 29.6707 62.4481 29.1463 61.5048 28.1745C60.5609 27.2026 60.0759 25.8749 60.1695 24.5238L60.1867 24.1823C60.3787 22.5941 61.1484 21.1321 62.3498 20.0757C63.5231 18.9924 65.0543 18.3788 66.651 18.3516L66.6433 18.3506ZM82.4097 30.3758L70.5789 41.0748C70.1623 41.4505 69.6134 41.6454 69.0529 41.6171C68.4924 41.5889 67.9658 41.3399 67.589 40.9242L66.8356 40.0907C66.9113 39.6889 67.3411 38.7324 69.4854 37.687C70.3867 37.2269 71.3555 36.9129 72.355 36.7574C73.9195 36.4861 74.7746 36.0836 76.0081 33.6962C77.8631 30.1783 80.5005 27.0743 81.6336 26.3597L82.5379 27.3601C82.9138 27.7802 83.1113 28.3305 83.0874 28.8941C83.0634 29.4576 82.8203 29.9891 82.4098 30.3757L82.4097 30.3758ZM82.3771 35.7586L82.377 35.7592C83.7962 35.6986 85.1689 36.2743 86.1202 37.3297C87.0709 38.3857 87.5016 39.8106 87.2944 41.2165C87.0973 42.7966 86.3312 44.2511 85.1404 45.3074C83.9716 46.3776 82.4549 46.988 80.8711 47.0253C79.4511 47.0808 78.0775 46.5151 77.1086 45.4759C76.2483 44.5066 75.8144 43.232 75.9028 41.9392L75.92 41.5978C76.133 40.0228 76.8966 38.5738 78.0752 37.5075C79.2537 36.4417 80.7718 35.8275 82.3601 35.7742L82.3771 35.7586ZM101.849 54.7235C103.793 56.8737 103.35 60.4467 100.867 62.6917C98.3846 64.9369 94.7863 65.018 92.8429 62.8684L92.8435 62.8679C91.9839 61.8953 91.5496 60.6184 91.6381 59.3236C91.7556 57.6178 92.5417 56.0285 93.825 54.8997C96.3076 52.6545 99.9059 52.5734 101.849 54.7235V54.7235ZM124.341 89.8505L101.852 64.96C102.058 64.8034 102.266 64.6391 102.466 64.4577C102.666 64.2769 102.85 64.0876 103.027 63.8973L125.525 88.7812L124.341 89.8505ZM86.312 58.5059L86.312 58.5054C85.8937 58.8821 85.3436 59.0775 84.782 59.0492C84.2199 59.0209 83.6922 58.7713 83.3139 58.3544L82.3797 57.3209L82.3802 57.3215C82.7107 56.5098 83.2522 55.8019 83.9489 55.2705C84.6452 54.7391 85.4713 54.404 86.3413 54.2997C89.9781 53.6079 91.6441 50.3751 92.86 48.0185C93.2236 47.1874 93.696 46.4089 94.2646 45.703C95.2422 44.8601 96.4389 44.3133 97.7158 44.1269L98.3188 44.7859L98.3183 44.7853C98.683 45.2093 98.8711 45.7569 98.843 46.3153C98.8149 46.8737 98.5726 47.3997 98.1672 47.7843L86.312 58.5059ZM95.643 41.8581L95.8759 42.1245L95.8764 42.1245C94.6574 42.4853 93.5378 43.1197 92.602 43.9803C91.8356 44.8483 91.2092 45.8314 90.7458 46.8934C89.6445 49.0249 88.393 51.452 85.8966 51.9227L85.8966 51.9221C83.7204 52.2336 81.7999 53.5067 80.6645 55.3892C80.2906 54.9715 80.097 54.4225 80.1252 53.8629C80.1534 53.3029 80.4012 52.7766 80.8152 52.3979L92.6451 41.7071C93.0634 41.3309 93.6135 41.1356 94.1756 41.1639C94.7371 41.1922 95.2648 41.4418 95.6432 41.8581L95.643 41.8581ZM79.9082 24.4505L80.066 24.6333C77.1201 26.7597 73.9662 32.5424 73.9244 32.588C73.0467 34.222 72.9024 34.2464 71.9716 34.4143C70.7524 34.6026 69.5712 34.9836 68.472 35.5424C67.1548 36.113 66.0113 37.0213 65.1584 38.1757L64.9703 37.9676L64.9703 37.9671C64.5947 37.5504 64.3994 37.0012 64.4276 36.4406C64.4559 35.88 64.7054 35.3533 65.121 34.9763L76.9512 24.2777L76.9513 24.2772C77.3679 23.9014 77.9169 23.7066 78.4773 23.7348C79.0378 23.7631 79.5644 24.0121 79.9418 24.4278L79.9082 24.4505Z" fill="black"/>
</svg>
